<?xml version="1.0" encoding="UTF-8"?>
<svg xmlns="http://www.w3.org/2000/svg" xmlns:xlink="http://www.w3.org/1999/xlink" version="1.2" >
<font id="Omnes-Bold">
<font-face  font-family="Omnes" units-per-em="1000" ascent="800" descent="-200" font-style="normal" font-weight="700" font-stretch="normal" cap-height="700" x-height="500" underline-position="-123" underline-thickness="20" />
<missing-glyph  horiz-adv-x="500" d="" />
<glyph glyph-name="NULL" d="" />
<glyph glyph-name="CR" unicode="&#xd;" horiz-adv-x="250" d="" />
<glyph glyph-name="space" unicode="&#x20;" horiz-adv-x="170" d="" />
<glyph glyph-name="exclam" unicode="&#x21;" horiz-adv-x="297" d="M138 216 L157 216 C184 216 197 235 208 276 L259 537 C278 610 236 659 159 659 L134 659 C61 659 19 610 38 537 L90 276 C100 235 113 216 138 216 L138 216 Z M136 -8 L159 -8 C216 -8 242 18 242 73 L242 89 C242 144 216 170 159 170 L136 170 C81 170 54 144 54 89 L54 73 C54 18 82 -8 136 -8 L136 -8 Z " />
<glyph glyph-name="quotedbl" unicode="&#x22;" horiz-adv-x="479" d="M339 330 L360 330 C387 330 399 344 405 374 L441 566 C452 622 425 656 349 656 C274 656 247 622 258 566 L294 374 C300 344 312 330 339 330 L339 330 Z M118 330 L139 330 C166 330 178 344 184 374 L220 566 C231 622 205 656 128 656 C53 656 26 622 37 566 L73 374 C79 344 91 330 118 330 L118 330 Z " />
<glyph glyph-name="numbersign" unicode="&#x23;" horiz-adv-x="698" d="M465 129 L537 129 C588 129 613 148 613 187 L613 210 C613 247 588 267 537 267 L509 267 L544 380 L615 380 C666 380 691 400 691 439 L691 462 C691 499 666 518 615 518 L587 518 L596 547 C601 561 603 573 603 582 C603 636 551 662 522 662 C512 662 505 660 504 655 L461 518 L358 518 L367 547 C371 561 373 573 373 582 C373 636 321 662 293 662 C283 662 276 660 274 655 L231 518 L161 518 C111 518 85 499 85 462 L85 438 C85 400 111 380 161 380 L188 380 L153 267 L82 267 C32 267 6 247 6 210 L6 187 C6 148 32 129 82 129 L110 129 L101 101 C97 87 95 75 95 65 C95 12 147 -15 176 -15 C185 -15 192 -12 194 -7 L237 129 L339 129 C340 129 331 101 331 101 C326 87 324 75 324 65 C324 12 377 -15 405 -15 C415 -15 422 -12 423 -7 C423 -7 466 129 465 129 L465 129 Z M383 266 L278 266 L314 381 C315 381 378 381 418 381 L383 266 Z " />
<glyph glyph-name="dollar" unicode="&#x24;" horiz-adv-x="574" d="M373 641 L373 658 C373 721 352 751 295 751 L290 751 C235 751 212 719 212 658 L212 636 C104 613 42 545 42 445 C42 307 167 273 249 256 C308 243 355 234 355 199 C355 168 329 152 272 152 C206 152 129 185 88 221 C84 226 28 184 28 132 C28 68 92 21 211 8 L211 -12 C211 -75 232 -105 289 -105 L294 -105 C349 -105 372 -73 372 -12 L372 13 C487 35 549 103 549 208 C549 340 421 377 336 394 C273 408 226 416 226 450 C226 480 251 497 306 497 C363 497 427 470 471 430 C475 426 535 469 535 524 C535 585 480 628 373 641 L373 641 Z " />
<glyph glyph-name="percent" unicode="&#x25;" horiz-adv-x="743" d="M180 335 C285 335 353 396 353 493 L353 500 C353 597 285 657 180 657 C75 657 5 596 5 499 L5 492 C5 395 74 335 180 335 L180 335 Z M148 -13 L653 546 C670 565 677 581 677 595 C677 639 600 666 593 658 L88 99 C71 79 64 65 64 50 C64 7 142 -21 148 -13 L148 -13 Z M564 -12 C669 -12 737 48 737 145 L737 152 C737 250 669 310 564 310 C458 310 389 249 389 152 L389 145 C389 48 458 -12 564 -12 L564 -12 Z M180 430 C151 430 130 449 130 488 L130 504 C130 545 150 563 180 563 C208 563 230 544 230 504 L230 488 C230 448 208 430 180 430 L180 430 Z M564 83 C535 83 514 101 514 141 L514 156 C514 197 534 216 564 216 C592 216 613 196 613 156 L613 141 C613 101 592 83 564 83 L564 83 Z " />
<glyph glyph-name="ampersand" unicode="&#x26;" horiz-adv-x="711" d="M301 407 C276 429 262 450 262 479 C262 513 284 538 318 538 C349 538 372 515 372 482 C372 449 353 424 301 407 L301 407 Z M382 157 C354 133 319 117 285 117 C223 117 182 150 182 203 C182 240 203 266 236 284 L382 157 Z M389 347 C470 375 520 428 520 498 C520 596 440 661 319 661 C182 661 94 591 94 484 C94 438 117 393 153 359 C66 326 15 265 15 181 C15 55 109 -14 270 -14 C362 -14 431 14 484 63 L501 46 C537 4 576 -9 607 -9 C680 -9 714 72 711 74 L588 177 C632 237 669 305 687 379 C688 383 658 429 602 429 C559 429 536 409 510 350 C497 315 488 294 477 272 L389 347 Z " />
<glyph glyph-name="quotesingle" unicode="&#x27;" horiz-adv-x="258" d="M118 330 L139 330 C166 330 178 344 184 374 L220 566 C231 622 205 656 128 656 C53 656 26 622 37 566 L73 374 C79 344 91 330 118 330 L118 330 Z " />
<glyph glyph-name="parenleft" unicode="&#x28;" horiz-adv-x="441" d="M342 -198 C401 -198 434 -166 434 -115 C434 -80 406 -56 400 -54 C281 -23 222 86 222 231 C222 374 281 484 400 515 C406 517 434 541 434 575 C434 627 401 659 342 659 C185 659 31 466 31 231 C31 -8 185 -198 342 -198 L342 -198 Z " />
<glyph glyph-name="parenright" unicode="&#x29;" horiz-adv-x="441" d="M99 -198 C256 -198 410 -8 410 231 C410 466 256 659 99 659 C41 659 7 627 7 575 C7 541 36 517 41 515 C160 484 219 374 219 231 C219 86 160 -23 41 -54 C36 -56 7 -80 7 -115 C7 -166 41 -198 99 -198 L99 -198 Z " />
<glyph glyph-name="asterisk" unicode="&#x2a;" horiz-adv-x="433" d="M156 541 L80 554 C41 561 27 550 20 520 L19 516 C11 486 12 474 48 455 L112 422 L75 352 C57 316 66 296 89 283 L93 281 C116 269 132 262 161 289 C161 289 218 348 218 347 L276 289 C305 262 324 268 344 281 L347 283 C367 297 380 316 361 352 L324 421 L389 455 C425 474 426 487 418 516 L417 520 C410 548 396 561 356 554 L282 541 L272 613 C266 652 248 660 221 660 L217 660 C190 660 174 652 167 613 L156 541 Z " />
<glyph glyph-name="plus" unicode="&#x2b;" horiz-adv-x="534" d="M194 184 L194 74 C194 22 221 -2 259 -2 L275 -2 C312 -2 340 22 340 74 L340 184 L443 184 C495 184 519 211 519 249 L519 257 C519 294 495 322 443 322 L340 322 L340 428 C340 479 312 505 275 505 L259 505 C221 505 194 479 194 428 L194 322 L92 322 C40 322 15 294 15 257 L15 249 C15 211 40 184 92 184 L194 184 Z " />
<glyph glyph-name="comma" unicode="&#x2c;" horiz-adv-x="259" d="M106 -96 L182 -7 C212 24 225 53 225 85 L225 93 C225 148 198 172 151 172 L130 172 C69 172 55 146 43 93 L9 -53 C-2 -106 71 -132 106 -96 L106 -96 Z " />
<glyph glyph-name="hyphen" unicode="&#x2d;" horiz-adv-x="469" d="M106 159 L363 159 C414 159 439 193 439 231 L439 262 C439 299 414 334 363 334 L106 334 C56 334 30 299 30 262 L30 231 C30 193 56 159 106 159 L106 159 Z " />
<glyph glyph-name="period" unicode="&#x2e;" horiz-adv-x="259" d="M116 -8 L139 -8 C196 -8 222 18 222 73 L222 89 C222 144 197 170 139 170 L116 170 C61 170 35 144 35 89 L35 73 C35 18 62 -8 116 -8 L116 -8 Z " />
<glyph glyph-name="slash" unicode="&#x2f;" horiz-adv-x="382" d="M81 -217 C104 -217 123 -213 123 -211 L367 549 C373 567 375 582 375 593 C375 650 322 662 283 662 C261 662 242 657 241 655 L-3 -104 C-9 -122 -11 -137 -11 -148 C-11 -206 42 -217 81 -217 L81 -217 Z " />
<glyph glyph-name="zero" unicode="0" horiz-adv-x="653" d="M327 -14 C514 -14 626 105 626 293 L626 355 C626 542 515 661 327 661 C139 661 27 541 27 354 L27 293 C27 104 138 -14 327 -14 L327 -14 Z M327 147 C261 147 228 189 228 276 L228 373 C228 461 260 503 327 503 C392 503 425 459 425 373 L425 275 C425 190 392 147 327 147 L327 147 Z " />
<glyph glyph-name="one" unicode="1" horiz-adv-x="420" d="M163 422 L163 84 C163 23 193 -9 248 -9 L273 -9 C330 -9 361 23 361 84 L361 563 C361 625 330 656 273 656 L221 656 C210 610 174 583 131 583 C107 583 88 590 68 603 C61 606 16 578 16 511 C16 453 59 411 117 411 C133 411 149 415 163 422 L163 422 Z " />
<glyph glyph-name="two" unicode="2" horiz-adv-x="577" d="M217 160 C242 203 299 225 377 254 C469 289 554 329 554 452 C554 583 461 662 290 662 C124 662 31 589 31 493 C31 396 160 402 160 404 C170 455 210 505 277 505 C333 505 360 484 360 443 C360 403 302 386 227 351 C140 312 28 248 28 135 L28 97 C28 14 56 1 149 1 L465 1 C535 1 559 29 559 79 L559 87 C559 134 534 160 465 160 C407 160 304 160 217 160 L217 160 Z " />
<glyph glyph-name="three" unicode="3" horiz-adv-x="585" d="M435 349 C517 322 561 266 561 187 C561 59 457 -14 273 -14 C112 -14 12 55 12 137 C12 237 129 235 131 228 C148 167 199 136 271 136 C333 136 372 162 372 203 C372 243 347 262 296 262 C289 262 276 262 276 262 C211 262 184 283 184 326 L184 337 C184 381 214 403 274 403 C274 403 278 403 309 403 C344 403 365 422 365 451 C365 488 329 511 268 511 C183 511 151 464 140 425 C139 417 25 414 25 515 C25 598 119 661 272 661 C453 661 551 598 551 479 C551 416 510 372 435 349 L435 349 Z " />
<glyph glyph-name="four" unicode="4" horiz-adv-x="630" d="M185 282 L336 522 L336 282 L185 282 Z M510 286 L510 526 C510 624 468 656 367 656 C267 656 238 646 206 589 L46 342 C23 303 14 280 14 250 L14 222 C14 175 53 141 120 141 C120 141 223 141 328 141 L328 84 C328 25 354 -9 409 -9 L426 -9 C483 -9 510 23 510 84 L510 141 C525 141 534 141 534 141 C596 141 619 160 619 213 L619 218 C619 267 596 286 534 286 L510 286 Z " />
<glyph glyph-name="five" unicode="5" horiz-adv-x="566" d="M197 393 L197 489 L427 489 C493 489 523 512 523 565 L523 570 C523 623 492 647 427 647 L128 647 C60 647 34 608 34 535 L34 361 C34 279 76 250 150 249 C172 265 207 282 263 282 C337 282 372 256 372 206 C372 157 332 128 263 128 C197 128 135 154 88 203 C82 208 14 165 14 111 C14 47 103 -14 268 -14 C440 -14 545 71 545 203 C545 333 448 409 297 409 C261 409 227 403 197 393 L197 393 Z " />
<glyph glyph-name="six" unicode="6" horiz-adv-x="622" d="M224 362 C228 459 267 505 357 505 C425 505 463 471 482 439 C484 436 577 444 577 522 C577 605 492 661 340 661 C145 661 27 540 27 345 L27 297 C27 107 140 -14 326 -14 C490 -14 602 80 602 219 L602 224 C602 351 516 416 388 416 C315 416 259 392 224 362 L224 362 Z M228 247 C255 269 287 283 323 283 C378 283 411 257 411 210 L411 207 C411 161 373 133 324 133 C267 133 232 174 228 247 L228 247 Z " />
<glyph glyph-name="seven" unicode="7" horiz-adv-x="562" d="M330 485 L99 485 C42 485 11 505 11 562 L11 573 C11 628 42 647 99 647 C99 647 410 647 409 647 C528 647 544 596 544 544 L544 533 C544 479 503 419 480 380 L300 61 C270 9 233 -9 198 -9 C133 -9 78 48 85 60 L330 485 Z " />
<glyph glyph-name="eight" unicode="8" horiz-adv-x="621" d="M311 126 C253 126 217 156 217 199 C217 244 253 274 310 274 C368 274 404 243 404 199 C404 156 368 126 311 126 L311 126 Z M311 387 C260 387 225 415 225 455 C225 496 259 524 310 524 C361 524 395 495 395 455 C395 415 360 387 311 387 L311 387 Z M147 332 C63 305 22 253 22 179 C22 58 127 -12 309 -12 C489 -12 598 61 598 179 C598 255 558 307 472 334 C542 360 575 408 575 475 C575 591 474 664 312 664 C151 664 41 588 41 475 C41 406 75 358 147 332 L147 332 Z " />
<glyph glyph-name="nine" unicode="9" horiz-adv-x="622" d="M398 286 C397 185 354 141 260 141 C192 141 141 166 104 198 C99 201 44 182 44 104 C44 32 122 -15 277 -15 C480 -15 595 95 595 296 L595 351 C595 544 478 661 296 661 C131 661 20 565 20 425 L20 423 C20 295 106 230 234 230 C307 230 364 255 398 286 L398 286 Z M393 399 C366 378 334 364 299 364 C243 364 210 390 210 437 C210 483 248 514 297 514 C354 514 389 473 393 399 L393 399 Z " />
<glyph glyph-name="colon" unicode="&#x3a;" horiz-adv-x="266" d="M120 274 L143 274 C200 274 226 300 226 355 L226 371 C226 426 200 453 143 453 L120 453 C65 453 38 426 38 371 L38 355 C38 300 66 274 120 274 L120 274 Z M120 -8 L143 -8 C200 -8 226 18 226 73 L226 89 C226 144 200 170 143 170 L120 170 C65 170 38 144 38 89 L38 73 C38 18 66 -8 120 -8 L120 -8 Z " />
<glyph glyph-name="semicolon" unicode="&#x3b;" horiz-adv-x="266" d="M120 274 L143 274 C200 274 226 300 226 355 L226 371 C226 426 200 453 143 453 L120 453 C65 453 38 426 38 371 L38 355 C38 300 66 274 120 274 L120 274 Z M110 -96 L186 -7 C216 24 229 53 229 85 L229 93 C229 148 202 172 154 172 L134 172 C72 172 58 146 47 93 L13 -53 C2 -106 74 -132 110 -96 L110 -96 Z " />
<glyph glyph-name="less" unicode="&#x3c;" horiz-adv-x="453" d="M225 255 L350 193 C406 166 422 130 422 98 C421 49 384 6 376 10 L87 166 C58 182 31 211 31 253 C31 296 58 326 87 342 L376 500 C384 503 421 460 421 412 C422 378 406 342 350 316 L225 255 Z " />
<glyph glyph-name="equal" unicode="&#x3d;" horiz-adv-x="534" d="M109 299 L425 299 C477 299 502 334 502 372 L502 388 C502 425 477 460 425 460 L109 460 C58 460 33 425 33 388 L33 372 C33 334 58 299 109 299 L109 299 Z M109 48 L425 48 C477 48 502 82 502 120 L502 136 C502 173 477 209 425 209 L109 209 C58 209 33 173 33 136 L33 120 C33 82 58 48 109 48 L109 48 Z " />
<glyph glyph-name="greater" unicode="&#x3e;" horiz-adv-x="453" d="M228 255 L103 193 C47 166 31 130 31 98 C31 49 69 6 77 10 L366 166 C395 182 422 211 422 253 C422 296 395 326 366 342 L77 500 C69 503 32 460 32 412 C31 378 47 342 103 316 L228 255 Z " />
<glyph glyph-name="question" unicode="&#x3f;" horiz-adv-x="522" d="M243 208 C286 208 312 218 319 241 C334 325 507 306 507 471 C507 588 415 661 259 661 C102 661 14 582 14 496 C14 395 141 405 141 407 C148 458 186 507 257 507 C300 507 325 488 325 458 C325 396 164 419 162 275 C162 230 195 208 243 208 L243 208 Z M230 -8 L253 -8 C309 -8 336 18 336 73 L336 89 C336 144 310 170 253 170 L230 170 C175 170 148 144 148 89 L148 73 C148 19 176 -8 230 -8 L230 -8 Z " />
<glyph glyph-name="at" unicode="&#x40;" horiz-adv-x="736" d="M404 302 C404 274 384 257 355 257 C325 257 303 280 303 315 C303 351 324 376 356 376 C377 376 394 365 404 348 L404 302 Z M410 419 C390 448 359 467 322 467 C247 467 192 406 192 315 C192 233 238 166 322 166 C365 166 402 191 415 228 C432 192 472 168 526 168 C641 168 705 238 705 367 C705 527 591 661 373 661 C173 661 32 520 32 324 C32 125 169 -14 372 -14 C480 -14 568 27 626 90 C629 92 613 132 585 132 C574 132 563 127 552 117 C511 79 449 51 372 51 C211 51 102 166 102 324 C102 481 213 596 373 596 C558 596 635 485 635 365 C635 273 598 244 565 244 C537 244 519 255 519 304 C519 328 519 450 519 450 C519 454 500 464 477 464 C451 464 422 455 410 419 L410 419 Z " />
<glyph glyph-name="A" unicode="A" horiz-adv-x="688" d="M270 278 L340 466 L409 278 L270 278 Z M445 134 L463 86 C491 14 535 -9 578 -9 C638 -9 692 37 685 55 L467 596 C457 629 434 652 343 652 C252 652 225 629 215 596 L5 53 C-1 35 54 -9 109 -9 C152 -9 194 15 218 84 L237 134 L445 134 Z " />
<glyph glyph-name="B" unicode="B" horiz-adv-x="660" d="M148 0 L356 0 C554 0 637 57 637 187 C637 267 593 327 496 350 C572 368 614 410 614 485 C614 589 532 647 380 647 L148 647 C82 647 45 608 45 535 L45 112 C45 39 82 0 148 0 L148 0 Z M243 386 L243 505 L329 505 C385 505 408 486 408 448 C408 408 385 386 326 386 L243 386 Z M243 143 L243 270 C243 270 337 270 336 270 C407 270 431 252 431 209 C431 162 408 143 338 143 L243 143 Z " />
<glyph glyph-name="C" unicode="C" horiz-adv-x="649" d="M368 -14 C554 -14 626 86 626 149 C626 233 513 253 509 247 C488 198 442 169 380 169 C298 169 235 231 235 324 C235 418 297 478 380 478 C437 478 483 451 507 404 C511 398 623 419 623 502 C623 564 552 661 369 661 C166 661 29 520 29 324 C29 126 166 -14 368 -14 L368 -14 Z " />
<glyph glyph-name="D" unicode="D" horiz-adv-x="690" d="M157 0 L317 0 C530 0 665 127 665 327 C665 524 534 647 321 647 L150 647 C89 647 45 608 45 535 L45 110 C45 49 95 0 157 0 L157 0 Z M244 170 L244 477 L315 477 C408 477 467 423 467 326 C467 227 405 170 312 170 L244 170 Z " />
<glyph glyph-name="E" unicode="E" horiz-adv-x="616" d="M148 0 L497 0 C560 0 589 33 589 88 L589 93 C589 145 560 172 497 172 L246 172 L246 247 L410 247 C475 247 503 276 503 328 L503 332 C503 381 476 409 410 409 L246 409 L246 474 L492 474 C556 474 585 502 585 557 L585 563 C585 615 556 647 492 647 L148 647 C82 647 45 608 45 535 L45 110 C45 37 82 0 148 0 L148 0 Z " />
<glyph glyph-name="F" unicode="F" horiz-adv-x="571" d="M130 -4 L162 -4 C220 -4 250 28 250 89 L250 212 L394 212 C459 212 486 241 486 293 L486 296 C486 345 460 373 394 373 L243 373 L243 478 L463 478 C527 478 556 506 556 561 L556 566 C556 619 527 647 463 647 L148 647 C82 647 45 608 45 535 L45 112 C45 39 75 -4 130 -4 L130 -4 Z " />
<glyph glyph-name="G" unicode="G" horiz-adv-x="728" d="M525 72 C541 11 584 -5 624 -5 C660 -5 691 9 691 15 L691 286 C692 344 680 371 622 371 L446 371 C383 371 352 359 352 302 L352 293 C352 238 383 224 446 224 L513 224 C503 172 457 139 386 139 C296 139 231 208 231 314 C231 419 303 490 395 490 C452 490 504 465 539 421 C544 414 639 439 639 511 C639 597 545 661 383 661 C170 661 29 520 29 324 C29 130 150 -10 337 -10 C427 -10 490 22 525 72 L525 72 Z " />
<glyph glyph-name="H" unicode="H" horiz-adv-x="700" d="M130 -5 L159 -5 C217 -5 247 27 247 88 L247 241 L454 241 L454 88 C454 27 483 -5 538 -5 L567 -5 C625 -5 655 27 655 88 L655 559 C655 621 625 652 567 652 L538 652 C483 652 454 621 454 559 L454 409 L247 409 L247 559 C247 621 217 652 159 652 L130 652 C75 652 45 621 45 559 L45 88 C45 27 75 -5 130 -5 L130 -5 Z " />
<glyph glyph-name="I" unicode="I" horiz-adv-x="306" d="M137 -5 L166 -5 C223 -5 253 27 253 88 L253 559 C253 621 223 652 166 652 L137 652 C82 652 52 621 52 559 L52 88 C52 27 82 -5 137 -5 L137 -5 Z " />
<glyph glyph-name="J" unicode="J" horiz-adv-x="538" d="M229 -14 C398 -14 487 71 487 257 L487 559 C487 621 457 652 400 652 L371 652 C316 652 286 621 286 559 L286 260 C286 183 260 156 199 156 C151 156 112 177 81 215 C78 219 15 189 15 115 C15 35 90 -14 229 -14 L229 -14 Z " />
<glyph glyph-name="K" unicode="K" horiz-adv-x="652" d="M246 280 L404 62 C438 12 476 -5 514 -5 C587 -5 642 57 635 69 L445 330 L626 577 C632 589 580 652 512 652 C476 652 436 635 402 584 L246 366 C246 367 246 559 246 559 C246 621 216 652 159 652 L130 652 C75 652 45 621 45 559 L45 88 C45 27 75 -5 130 -5 L159 -5 C216 -5 246 27 246 88 C246 88 246 281 246 280 L246 280 Z " />
<glyph glyph-name="L" unicode="L" horiz-adv-x="552" d="M148 0 L443 0 C505 0 535 31 535 88 L535 91 C535 146 505 174 443 174 L246 174 L246 559 C246 621 216 652 159 652 L130 652 C75 652 45 621 45 559 L45 110 C45 37 82 0 148 0 L148 0 Z " />
<glyph glyph-name="M" unicode="M" horiz-adv-x="772" d="M124 -5 L156 -5 C214 -5 234 27 234 88 L234 357 L301 175 C312 149 310 126 385 126 C460 126 461 150 470 175 L537 365 L537 88 C537 27 561 -5 616 -5 L648 -5 C705 -5 726 27 726 88 L726 556 C726 619 694 652 634 652 L578 652 C532 652 511 642 492 598 L386 339 L281 598 C263 639 245 652 192 652 L135 652 C77 652 45 619 45 556 L45 88 C45 27 68 -5 124 -5 L124 -5 Z " />
<glyph glyph-name="N" unicode="N" horiz-adv-x="703" d="M130 -5 L147 -5 C204 -5 234 27 234 88 L234 346 L471 39 C498 7 512 -5 560 -5 L576 -5 C626 -5 657 26 657 88 L657 559 C657 620 628 652 573 652 L556 652 C498 652 469 620 469 559 L469 303 L237 605 C209 638 194 652 147 652 L128 652 C76 652 45 621 45 559 L45 88 C45 27 74 -5 130 -5 L130 -5 Z " />
<glyph glyph-name="O" unicode="O" horiz-adv-x="733" d="M366 -14 C566 -14 708 127 708 324 C708 520 566 661 367 661 C168 661 25 520 25 324 C25 126 167 -14 366 -14 L366 -14 Z M367 165 C280 165 223 228 223 324 C223 422 279 484 366 484 C453 484 510 419 510 324 C510 228 453 165 367 165 L367 165 Z " />
<glyph glyph-name="P" unicode="P" horiz-adv-x="614" d="M244 328 L244 496 L314 496 C377 496 410 466 410 411 C410 358 378 328 317 328 L244 328 Z M247 181 L325 181 C508 181 605 258 605 412 C605 567 504 647 319 647 L148 647 C82 647 45 607 45 535 L45 88 C45 27 76 -5 130 -5 L159 -5 C217 -5 247 29 247 88 L247 181 Z " />
<glyph glyph-name="Q" unicode="Q" horiz-adv-x="733" d="M402 167 C391 165 380 164 368 164 C283 164 223 230 223 322 C223 416 280 484 372 484 C461 484 517 416 517 324 C517 308 515 293 512 279 L509 283 C475 322 429 339 389 308 L384 303 C346 272 358 215 390 180 L402 167 Z M651 139 C687 193 708 257 708 324 C708 521 568 661 368 661 C169 661 25 520 25 324 C25 126 168 -14 368 -14 C424 -14 477 0 524 25 C560 -4 592 -14 619 -14 C691 -14 735 47 731 52 C731 52 651 140 651 139 L651 139 Z " />
<glyph glyph-name="R" unicode="R" horiz-adv-x="650" d="M243 344 L243 495 L325 495 C388 495 417 469 417 419 C417 371 387 344 327 344 L243 344 Z M478 245 C570 271 618 340 618 434 C618 573 528 647 348 647 L148 647 C82 647 45 608 45 535 L45 111 C45 38 75 -5 130 -5 L158 -5 C216 -5 246 28 246 88 L246 201 L283 201 L374 80 C416 22 447 -5 509 -5 C595 -5 630 56 624 64 L478 245 Z " />
<glyph glyph-name="S" unicode="S" horiz-adv-x="588" d="M277 -14 C472 -14 569 65 569 206 C569 325 472 380 345 408 C277 423 225 420 225 457 C225 490 254 508 312 508 C373 508 440 478 483 438 C487 434 554 482 554 538 C554 602 480 661 310 661 C132 661 34 578 34 446 C34 311 143 266 251 244 C315 230 367 230 367 190 C367 157 338 139 277 139 C208 139 127 176 85 214 C79 219 19 167 19 119 C19 51 87 -14 277 -14 L277 -14 Z " />
<glyph glyph-name="T" unicode="T" horiz-adv-x="619" d="M211 473 L211 88 C211 27 239 -5 294 -5 L322 -5 C380 -5 412 27 412 88 L412 473 L517 473 C579 473 610 503 610 560 L610 564 C610 619 579 647 517 647 L102 647 C42 647 10 619 10 564 L10 560 C10 503 42 473 102 473 L211 473 Z " />
<glyph glyph-name="U" unicode="U" horiz-adv-x="679" d="M339 -10 C535 -10 636 89 636 284 L636 559 C636 621 606 652 549 652 L523 652 C468 652 435 621 435 559 L435 284 C435 201 405 163 340 163 C276 163 244 203 244 283 L244 559 C244 621 214 652 156 652 L131 652 C76 652 43 621 43 559 L43 284 C43 89 143 -10 339 -10 L339 -10 Z " />
<glyph glyph-name="V" unicode="V" horiz-adv-x="674" d="M342 238 L241 558 C223 616 181 652 130 652 C64 652 -2 601 6 583 L225 70 C249 14 279 -5 339 -5 C399 -5 432 16 455 70 L668 583 C676 601 614 652 549 652 C505 652 461 624 442 558 L342 238 Z " />
<glyph glyph-name="W" unicode="W" horiz-adv-x="983" d="M299 -5 C359 -5 402 13 418 71 L493 338 L569 71 C586 12 627 -5 687 -5 C749 -5 790 14 805 71 L952 582 C955 592 915 650 835 650 C788 650 740 624 726 546 L672 264 L604 516 C593 563 548 590 497 590 C443 590 398 567 387 516 L319 264 L265 543 C249 628 195 649 155 649 C70 649 28 591 30 582 L182 71 C199 11 237 -5 299 -5 L299 -5 Z " />
<glyph glyph-name="X" unicode="X" horiz-adv-x="671" d="M338 435 L424 578 C451 628 492 650 531 650 C600 650 663 590 656 577 L473 321 L656 66 C663 52 599 -8 528 -8 C488 -8 448 11 418 65 L333 208 L246 64 C216 9 177 -9 139 -9 C70 -9 7 52 14 65 L197 321 L16 576 C9 589 76 650 147 650 C188 650 224 631 254 578 L338 435 Z " />
<glyph glyph-name="Y" unicode="Y" horiz-adv-x="639" d="M421 253 L643 575 C649 583 611 651 519 651 C486 651 454 632 424 580 L321 410 L221 581 C194 630 161 650 127 650 C25 650 -10 585 -4 575 C-4 575 220 255 220 254 L220 88 C220 27 250 -5 305 -5 L334 -5 C391 -5 421 27 421 88 L421 253 Z " />
<glyph glyph-name="Z" unicode="Z" horiz-adv-x="621" d="M132 0 L508 0 C567 0 597 24 597 79 L597 87 C597 144 567 166 508 166 L287 166 L538 445 C570 479 591 501 591 559 L591 569 C591 608 562 647 489 647 L127 647 C69 647 38 623 38 568 L38 560 C38 503 69 481 127 481 L329 481 L83 203 C51 167 31 146 31 88 L31 79 C31 40 59 0 132 0 L132 0 Z " />
<glyph glyph-name="bracketleft" unicode="&#x5b;" horiz-adv-x="406" d="M149 -199 L303 -199 C367 -199 395 -178 395 -124 L395 -118 C395 -67 367 -47 303 -47 L223 -47 L223 505 L300 505 C364 505 392 526 392 580 L392 586 C392 638 364 658 300 658 L149 658 C82 658 46 619 46 547 L46 -89 C46 -162 82 -199 149 -199 L149 -199 Z " />
<glyph glyph-name="backslash" unicode="&#x5c;" horiz-adv-x="382" d="M300 -217 C339 -217 393 -206 393 -148 C393 -137 390 -122 385 -104 L141 655 C140 657 121 662 99 662 C60 662 6 650 6 593 C6 582 8 567 14 549 L258 -211 C259 -213 278 -217 300 -217 L300 -217 Z " />
<glyph glyph-name="bracketright" unicode="&#x5d;" horiz-adv-x="406" d="M104 -199 L258 -199 C324 -199 360 -162 360 -89 L360 547 C360 619 324 658 258 658 L107 658 C42 658 14 638 14 586 L14 580 C14 526 42 505 107 505 L184 505 L184 -47 L104 -47 C39 -47 11 -67 11 -118 L11 -124 C11 -178 39 -199 104 -199 L104 -199 Z " />
<glyph glyph-name="asciicircum" unicode="&#x5e;" horiz-adv-x="500" d="M250 531 C224 473 187 438 146 438 C109 438 84 463 84 496 C84 565 188 635 250 651 C312 635 415 565 415 496 C415 463 391 438 354 438 C313 438 275 473 250 531 L250 531 Z " />
<glyph glyph-name="underscore" unicode="&#x5f;" horiz-adv-x="516" d="M84 -139 L433 -139 C483 -139 509 -111 509 -73 L509 -65 C509 -28 483 0 433 0 L84 0 C34 0 7 -28 7 -65 L7 -73 C7 -111 34 -139 84 -139 L84 -139 Z " />
<glyph glyph-name="grave" unicode="&#x60;" horiz-adv-x="500" d="M140 577 C226 529 322 550 332 567 C341 584 290 689 223 728 C206 738 187 744 170 744 C121 744 83 712 83 670 C83 635 105 597 140 577 L140 577 Z " />
<glyph glyph-name="a" unicode="a" horiz-adv-x="574" d="M261 107 C226 107 203 124 203 153 C203 191 244 207 321 209 L345 209 L345 192 C345 142 312 107 261 107 L261 107 Z M344 304 L324 304 C114 303 21 249 21 136 C21 50 86 -10 186 -10 C259 -10 320 20 352 72 C367 19 405 -9 460 -9 C497 -9 534 3 534 13 L534 295 C534 437 456 506 278 506 C114 506 40 457 40 379 C40 293 166 301 167 304 C180 333 205 369 267 369 C314 369 340 347 344 304 L344 304 Z " />
<glyph glyph-name="b" unicode="b" horiz-adv-x="629" d="M235 299 C251 334 284 357 328 357 C387 357 425 314 425 246 C425 179 386 135 327 135 C274 135 235 168 235 223 L235 299 Z M234 74 C258 23 311 -14 380 -14 C517 -14 607 94 607 247 C607 407 517 506 380 506 C319 506 266 479 236 435 L236 558 C236 675 173 704 118 704 C79 704 44 689 44 682 L44 88 C44 17 80 -5 131 -5 L151 -5 C197 -5 230 16 234 74 L234 74 Z " />
<glyph glyph-name="c" unicode="c" horiz-adv-x="512" d="M286 -14 C437 -14 497 68 497 117 C497 198 397 208 395 201 C379 162 347 135 297 135 C236 135 194 182 194 247 C194 309 237 356 297 356 C351 356 379 329 395 290 C398 283 497 297 497 373 C497 422 443 505 286 505 C131 505 22 397 22 247 C22 92 128 -14 286 -14 L286 -14 Z " />
<glyph glyph-name="d" unicode="d" horiz-adv-x="629" d="M394 222 C394 168 354 135 302 135 C244 135 204 180 204 246 C204 315 244 357 304 357 C347 357 378 335 394 299 L394 222 Z M393 439 C364 479 312 506 250 506 C112 506 22 406 22 247 C22 93 112 -14 248 -14 C316 -14 369 22 394 78 C398 15 432 -5 481 -5 L501 -5 C550 -5 585 19 585 88 L585 558 C585 675 522 704 467 704 C428 704 393 689 393 682 L393 439 Z " />
<glyph glyph-name="e" unicode="e" horiz-adv-x="563" d="M189 296 C195 345 234 381 284 381 C337 381 369 347 371 296 L189 296 Z M192 197 L505 197 C534 197 543 218 544 247 L544 259 C544 402 438 506 286 506 C132 506 22 394 22 242 C22 82 128 -14 298 -14 C438 -14 515 36 515 102 C515 175 427 184 427 182 C408 148 366 119 307 119 C246 119 204 145 192 197 L192 197 Z " />
<glyph glyph-name="f" unicode="f" horiz-adv-x="416" d="M101 351 L101 88 C101 19 138 -5 187 -5 L207 -5 C259 -5 293 17 293 88 L293 351 L327 351 C379 351 405 374 405 416 L405 427 C405 472 379 496 327 496 L285 496 L285 512 C285 552 302 567 334 567 C360 567 381 557 395 543 C398 541 432 576 432 618 C432 666 390 709 290 709 C181 709 101 664 101 509 L101 496 L81 496 C29 496 3 473 3 430 L3 420 C3 374 29 351 81 351 L101 351 Z " />
<glyph glyph-name="g" unicode="g" horiz-adv-x="540" d="M255 -12 C314 -24 357 -30 357 -56 C357 -81 328 -98 265 -98 C202 -98 172 -81 172 -57 C172 -32 204 -17 255 -12 L255 -12 Z M267 249 C226 249 197 277 197 320 C197 362 226 390 266 390 C308 390 336 362 336 320 C336 277 308 249 267 249 L267 249 Z M358 492 C330 500 300 505 267 505 C125 505 24 427 24 318 C24 237 78 179 169 156 C144 143 126 118 126 91 C126 74 132 58 143 48 C52 37 -9 -6 -9 -71 C-9 -167 73 -211 263 -211 C439 -211 539 -146 539 -49 C539 36 467 78 398 97 C325 117 276 119 276 143 L276 144 C423 146 511 212 511 319 C511 361 494 399 465 429 L551 507 C556 511 527 587 461 587 C424 587 398 571 375 526 L358 492 Z " />
<glyph glyph-name="h" unicode="h" horiz-adv-x="606" d="M236 417 L236 558 C236 675 173 704 118 704 C79 704 44 689 44 682 L44 88 C44 17 80 -5 131 -5 L151 -5 C200 -5 236 18 236 88 L236 269 C236 320 263 350 312 350 C351 350 375 321 375 272 L375 88 C375 17 411 -5 463 -5 L482 -5 C532 -5 567 19 567 88 L567 303 C567 409 520 506 391 506 C314 506 266 468 236 417 L236 417 Z " />
<glyph glyph-name="i" unicode="i" horiz-adv-x="286" d="M145 552 C207 552 246 587 246 643 C246 699 206 733 142 733 C80 733 41 698 41 643 C41 587 81 552 145 552 L145 552 Z M135 -5 L155 -5 C204 -5 239 19 239 88 L239 408 C239 480 205 501 153 501 L133 501 C84 501 47 478 47 408 L47 88 C47 17 83 -5 135 -5 L135 -5 Z " />
<glyph glyph-name="j" unicode="j" horiz-adv-x="286" d="M145 552 C207 552 246 587 246 643 C246 699 206 733 142 733 C80 733 41 698 41 643 C41 587 81 552 145 552 L145 552 Z M58 -200 C174 -200 239 -134 239 -17 L239 408 C239 480 205 501 153 501 L133 501 C84 501 47 478 47 408 L47 -7 C47 -37 33 -52 7 -52 C-11 -52 -30 -45 -41 -31 C-43 -29 -78 -61 -78 -102 C-78 -168 -28 -200 58 -200 L58 -200 Z " />
<glyph glyph-name="k" unicode="k" horiz-adv-x="561" d="M236 205 L343 50 C371 7 412 -8 447 -8 C504 -8 558 40 553 50 L407 255 L540 444 C545 455 494 503 436 503 C403 503 362 488 335 445 L236 297 L236 558 C236 675 173 704 118 704 C79 704 44 689 44 682 L44 88 C44 17 80 -5 131 -5 L151 -5 C200 -5 236 19 236 88 L236 205 Z " />
<glyph glyph-name="l" unicode="l" horiz-adv-x="286" d="M135 -5 L155 -5 C204 -5 239 19 239 88 L239 558 C239 675 176 704 121 704 C82 704 47 689 47 682 L47 88 C47 17 83 -5 135 -5 L135 -5 Z " />
<glyph glyph-name="m" unicode="m" horiz-adv-x="909" d="M228 416 C210 483 162 501 118 501 C79 501 44 486 44 479 L44 88 C44 17 80 -5 131 -5 L151 -5 C200 -5 236 18 236 88 L236 314 C250 335 274 350 302 350 C341 350 361 327 361 280 L361 88 C361 17 397 -5 449 -5 L468 -5 C518 -5 553 18 553 88 L553 314 C567 335 591 350 619 350 C658 350 678 327 678 281 L678 88 C678 17 714 -5 766 -5 L786 -5 C835 -5 870 19 870 88 L870 316 C870 421 827 506 700 506 C617 506 572 463 537 407 C516 466 468 506 383 506 C307 506 262 468 228 416 L228 416 Z " />
<glyph glyph-name="n" unicode="n" horiz-adv-x="606" d="M228 415 C210 482 162 501 118 501 C79 501 44 486 44 479 L44 88 C44 17 80 -5 131 -5 L151 -5 C200 -5 236 18 236 88 L236 310 C251 333 277 350 311 350 C351 350 375 322 375 277 L375 88 C375 17 411 -5 463 -5 L482 -5 C532 -5 567 19 567 88 L567 310 C567 413 520 506 391 506 C311 506 263 468 228 415 L228 415 Z " />
<glyph glyph-name="o" unicode="o" horiz-adv-x="586" d="M292 -14 C456 -14 564 88 564 246 C564 402 457 506 295 506 C131 506 22 402 22 247 C22 88 127 -14 292 -14 L292 -14 Z M293 133 C229 133 185 180 185 247 C185 313 230 360 293 360 C356 360 401 313 401 246 C401 181 355 133 293 133 L293 133 Z " />
<glyph glyph-name="p" unicode="p" horiz-adv-x="629" d="M235 299 C251 334 284 357 328 357 C387 357 425 314 425 246 C425 179 386 135 327 135 C274 135 235 168 235 223 L235 299 Z M236 72 C260 22 313 -14 380 -14 C517 -14 607 94 607 247 C607 407 517 506 380 506 C308 506 252 468 229 411 C213 482 163 501 118 501 C79 501 44 486 44 479 L44 -101 C44 -172 80 -193 131 -193 L151 -193 C200 -193 236 -170 236 -101 C236 -101 236 73 236 72 L236 72 Z " />
<glyph glyph-name="q" unicode="q" horiz-adv-x="629" d="M394 223 C394 169 354 135 302 135 C244 135 204 180 204 246 C204 315 244 357 304 357 C347 357 378 335 394 300 L394 223 Z M403 422 C378 471 320 506 250 506 C112 506 22 406 22 247 C22 93 112 -14 248 -14 C315 -14 367 21 393 75 L393 -101 C393 -170 429 -193 478 -193 L498 -193 C549 -193 585 -172 585 -101 L585 479 C585 486 551 501 512 501 C469 501 422 484 403 422 L403 422 Z " />
<glyph glyph-name="r" unicode="r" horiz-adv-x="467" d="M229 413 C211 482 162 501 118 501 C79 501 44 486 44 479 L44 88 C44 17 80 -5 131 -5 L151 -5 C200 -5 236 18 236 88 L236 206 C236 287 264 328 321 328 C349 328 374 316 390 302 C392 300 453 326 453 403 C453 465 412 506 348 506 C289 506 247 469 229 413 L229 413 Z " />
<glyph glyph-name="s" unicode="s" horiz-adv-x="492" d="M235 -10 C382 -10 468 52 468 157 C468 275 349 300 286 314 C235 326 200 326 200 349 C200 370 222 376 259 376 C311 376 367 351 403 315 C407 312 456 347 456 392 C456 462 387 505 244 505 C111 505 25 439 25 337 C25 216 139 193 201 179 C249 169 281 167 281 143 C281 123 260 118 220 118 C153 118 96 144 61 176 C58 179 13 144 13 102 C13 32 81 -10 235 -10 L235 -10 Z " />
<glyph glyph-name="t" unicode="t" horiz-adv-x="439" d="M98 351 L98 164 C98 46 154 -14 272 -14 C363 -14 421 31 421 95 C421 143 382 170 379 165 C366 148 350 135 324 135 C295 135 282 152 282 185 L282 351 L341 351 C392 351 418 375 418 420 L418 430 C418 474 394 496 343 496 L286 496 L286 544 C286 615 251 637 200 637 L184 637 C129 637 98 605 98 544 L98 496 L87 496 C35 496 9 472 9 427 L9 416 C9 374 36 351 87 351 L98 351 Z " />
<glyph glyph-name="u" unicode="u" horiz-adv-x="606" d="M378 79 C396 13 445 -5 488 -5 C527 -5 562 11 562 17 L562 408 C562 480 526 501 475 501 L455 501 C405 501 370 478 370 408 L370 182 C355 159 328 143 296 143 C255 143 231 171 231 216 L231 408 C231 480 195 501 143 501 L124 501 C74 501 39 478 39 408 L39 182 C39 80 86 -14 215 -14 C295 -14 343 26 378 79 L378 79 Z " />
<glyph glyph-name="v" unicode="v" horiz-adv-x="571" d="M287 185 L360 415 C381 483 420 503 458 503 C514 503 567 457 562 447 L388 38 C372 1 319 -6 287 -6 C255 -6 201 1 184 38 L7 447 C3 457 59 503 114 503 C155 503 194 483 215 415 L287 185 Z " />
<glyph glyph-name="w" unicode="w" horiz-adv-x="809" d="M239 -6 C297 -6 328 4 344 57 L405 250 L468 57 C485 4 513 -6 574 -6 C607 -6 656 1 668 45 L799 447 C803 458 739 503 684 503 C650 503 611 486 601 430 L559 204 L504 402 C494 441 457 462 413 462 C368 462 330 441 319 402 L256 194 L214 430 C204 488 163 503 127 503 C74 503 6 458 10 447 L144 45 C159 2 206 -6 239 -6 L239 -6 Z " />
<glyph glyph-name="x" unicode="x" horiz-adv-x="556" d="M276 152 L222 56 C202 15 168 -7 125 -7 C64 -7 8 43 15 53 L153 248 L16 444 C9 453 64 503 124 503 C163 503 201 487 222 441 L277 344 L332 441 C354 485 392 503 429 503 C491 503 546 453 540 444 L402 248 L539 53 C546 43 492 -7 426 -7 C388 -7 352 13 332 55 C332 55 277 153 276 152 L276 152 Z " />
<glyph glyph-name="y" unicode="y" horiz-adv-x="570" d="M243 -188 C284 -188 320 -167 345 -103 L563 447 C567 458 513 503 458 503 C420 503 380 482 360 415 L290 199 L215 415 C195 483 155 503 115 503 C59 502 3 457 7 447 L172 72 C181 52 199 41 221 36 L140 -135 C135 -145 187 -188 243 -188 L243 -188 Z " />
<glyph glyph-name="z" unicode="z" horiz-adv-x="508" d="M91 1 L415 1 C463 1 487 25 487 69 L487 77 C487 123 463 145 415 145 L257 145 L442 343 C467 369 477 380 477 425 L477 432 C477 463 455 496 407 496 L101 496 C53 496 28 471 28 427 L28 419 C28 373 53 352 101 352 L236 352 L57 154 C33 129 23 117 23 72 C23 87 23 79 23 64 C23 33 43 1 91 1 L91 1 Z " />
<glyph glyph-name="braceleft" unicode="&#x7b;" horiz-adv-x="497" d="M384 -200 C442 -200 486 -167 486 -115 C486 -76 458 -55 452 -55 C349 -48 317 15 310 161 L192 230 L310 298 C317 444 350 508 453 515 C458 515 486 536 486 575 C486 627 442 659 384 659 C277 659 163 586 139 374 L112 360 C41 324 18 299 18 230 C18 160 34 139 112 99 L138 85 C163 -126 276 -200 384 -200 L384 -200 Z " />
<glyph glyph-name="bar" unicode="&#x7c;" horiz-adv-x="290" d="M137 -199 L157 -199 C206 -199 241 -176 241 -107 L241 567 C241 638 207 659 155 659 L135 659 C86 659 49 636 49 567 L49 -107 C49 -178 85 -199 137 -199 L137 -199 Z " />
<glyph glyph-name="braceright" unicode="&#x7d;" horiz-adv-x="497" d="M113 -200 C221 -200 334 -126 359 85 L385 99 C461 138 479 160 479 230 C479 299 455 325 385 360 L358 374 C334 586 220 659 113 659 C55 659 10 627 10 575 C10 536 39 515 44 515 C147 508 179 444 187 298 L305 230 L187 161 C180 15 147 -48 45 -55 C39 -55 11 -76 11 -115 C11 -167 55 -200 113 -200 L113 -200 Z " />
<glyph glyph-name="asciitilde" unicode="&#x7e;" horiz-adv-x="499" d="M129 155 C161 155 183 181 194 215 C236 173 279 153 328 153 C382 153 431 195 431 264 C431 298 406 327 369 327 C338 327 316 301 304 268 C263 309 219 329 170 329 C117 329 68 287 68 218 C68 184 92 155 129 155 L129 155 Z " />
<glyph glyph-name="nbspace" unicode="&#xa0;" horiz-adv-x="170" d="" />
<glyph glyph-name="exclamdown" unicode="&#xa1;" horiz-adv-x="297" d="M138 477 L161 477 C216 477 242 503 242 558 L242 575 C242 629 215 656 161 656 L138 656 C81 656 54 629 54 575 L54 558 C54 503 80 477 138 477 L138 477 Z M137 -12 L162 -12 C235 -12 277 38 258 111 L207 372 C196 413 184 432 159 432 L140 432 C113 432 100 413 89 372 L38 111 C18 38 61 -12 137 -12 L137 -12 Z " />
<glyph glyph-name="cent" unicode="&#xa2;" horiz-adv-x="522" d="M368 544 L368 574 C368 637 347 667 290 667 L285 667 C230 667 207 635 207 574 L207 538 C89 508 12 414 12 283 C12 146 88 54 210 25 L210 -11 C210 -74 230 -103 288 -103 L292 -103 C347 -103 370 -71 370 -11 L370 22 C466 37 515 85 515 145 C515 217 419 233 415 226 C389 184 358 165 308 165 C241 165 193 212 193 284 C193 353 239 401 305 401 C358 401 386 382 413 341 C417 334 513 352 513 423 C513 484 466 530 368 544 L368 544 Z " />
<glyph glyph-name="sterling" unicode="&#xa3;" horiz-adv-x="622" d="M289 239 L422 239 C460 239 486 263 486 299 L486 315 C486 350 460 374 422 374 C422 374 314 374 313 374 L323 428 C334 486 360 509 407 509 C462 509 487 480 496 432 C496 430 602 423 602 522 C602 607 524 661 398 661 C271 661 185 593 160 453 L146 374 L106 374 C70 374 43 350 43 315 L43 299 C43 263 69 239 106 239 L122 239 L106 151 L103 151 C42 151 17 130 17 81 L17 72 C17 21 41 0 103 0 L514 0 C575 0 600 21 600 72 L600 81 C600 130 575 151 514 151 L274 151 L289 239 Z " />
<glyph glyph-name="currency" unicode="&#xa4;" horiz-adv-x="634" d="M94 338 L94 308 L78 308 C35 308 15 286 15 261 L15 247 C15 222 35 199 78 199 L104 199 C136 63 244 -14 394 -14 C554 -14 617 60 617 123 C617 188 533 221 527 215 C492 171 461 148 397 148 C353 148 318 165 298 199 L415 199 C459 199 478 222 478 247 L478 261 C478 286 459 308 415 308 L280 308 L280 338 L415 338 C459 338 478 360 478 386 L478 400 C478 424 459 447 415 447 L297 447 C317 482 352 498 396 498 C459 498 490 477 526 434 C532 428 616 461 616 525 C616 604 532 661 392 661 C244 661 136 582 104 447 L78 447 C35 447 15 424 15 400 L15 386 C15 360 35 338 78 338 L94 338 Z " />
<glyph glyph-name="yen" unicode="&#xa5;" horiz-adv-x="644" d="M235 255 L235 220 L108 220 C61 220 39 195 39 168 L39 154 C39 125 61 100 108 100 L235 100 L235 84 C235 23 256 -9 312 -9 L332 -9 C390 -9 412 23 412 84 L412 100 L537 100 C584 100 605 125 605 154 L605 168 C605 195 584 220 537 220 L412 220 L412 255 L537 255 C584 255 605 280 605 308 L605 322 C605 350 584 375 537 375 L470 375 L603 571 C608 579 583 655 501 655 C460 655 429 636 402 583 L324 433 L249 584 C226 634 194 653 153 653 C55 653 36 580 42 571 C42 571 119 459 175 375 L108 375 C61 375 39 350 39 322 L39 308 C39 280 61 255 108 255 L235 255 Z " />
<glyph glyph-name="section" unicode="&#xa7;" horiz-adv-x="601" d="M127 346 C58 319 22 271 22 208 C22 87 155 55 252 33 C316 18 361 9 361 -21 C361 -49 338 -62 283 -62 C224 -62 134 -34 93 4 C87 9 36 -27 36 -71 C36 -145 113 -196 280 -196 C451 -196 551 -119 551 -4 C551 60 520 97 477 120 C544 148 579 195 579 258 C579 370 465 405 371 429 C297 446 242 458 242 487 C242 516 267 528 317 528 C372 528 429 502 473 462 C477 458 534 492 534 543 C534 594 485 661 305 661 C146 661 52 585 52 469 C52 407 83 370 127 346 L127 346 Z M351 161 C264 178 186 187 186 238 C186 267 214 293 263 303 C345 287 415 275 415 224 C415 195 393 171 351 161 L351 161 Z " />
<glyph glyph-name="dieresis" unicode="&#xa8;" horiz-adv-x="500" d="M365 540 C416 540 451 573 451 629 C451 685 416 717 362 717 C309 717 274 684 274 629 C274 572 309 540 365 540 L365 540 Z M138 540 C191 540 226 573 226 629 C226 685 191 717 135 717 C84 717 49 684 49 629 C49 572 84 540 138 540 L138 540 Z " />
<glyph glyph-name="copyright" unicode="&#xa9;" horiz-adv-x="739" d="M370 -14 C569 -14 706 128 706 324 C706 521 569 661 370 661 C171 661 33 519 33 324 C33 126 169 -14 370 -14 L370 -14 Z M370 53 C211 53 103 167 103 324 C103 481 210 594 369 594 C527 594 636 480 636 324 C636 166 529 53 370 53 L370 53 Z M379 138 C442 138 479 160 497 178 C509 191 516 204 516 223 C516 264 462 285 458 281 C438 256 418 245 385 245 C344 245 312 277 312 323 C312 368 344 400 384 400 C417 400 436 390 457 364 C461 360 514 382 514 423 C515 443 508 454 497 466 C479 484 441 506 379 506 C270 506 192 429 192 323 C192 215 269 138 379 138 L379 138 Z " />
<glyph glyph-name="ordfeminine" unicode="&#xaa;" horiz-adv-x="456" d="M149 247 C206 247 254 272 279 314 C291 269 320 249 363 249 C393 249 422 258 422 266 L422 489 C422 605 362 661 219 661 C88 661 31 618 31 555 C31 487 132 492 132 495 C143 518 162 550 209 550 C250 550 269 530 271 493 C67 490 16 447 16 364 C16 295 68 247 149 247 L149 247 Z M214 -9 L234 -9 C285 -9 309 15 309 64 L309 79 C309 129 286 152 234 152 L214 152 C164 152 140 129 140 79 L140 64 C140 15 165 -9 214 -9 L214 -9 Z M209 343 C181 343 161 356 161 379 C161 410 193 420 271 423 L271 406 C271 371 247 343 209 343 L209 343 Z " />
<glyph glyph-name="guillemotleft" unicode="&#xab;" horiz-adv-x="551" d="M452 55 L454 55 C500 55 524 84 524 123 L524 128 C524 175 446 223 401 247 C446 269 524 319 524 366 L524 370 C524 410 500 439 454 439 L452 439 C367 439 261 267 261 247 C261 227 367 55 452 55 L452 55 Z M204 74 L206 74 C248 74 269 100 269 136 L269 139 C269 181 200 225 159 247 C200 267 269 312 269 354 L269 357 C269 394 248 420 206 420 L204 420 C128 420 25 265 25 247 C25 228 128 74 204 74 L204 74 Z " />
<glyph glyph-name="logicalnot" unicode="&#xac;" horiz-adv-x="729" d="M503 221 C493 174 453 144 388 144 C299 144 231 204 231 314 C231 426 303 490 395 490 C452 490 505 464 539 420 C545 413 635 441 635 511 C635 597 545 661 383 661 C170 661 29 520 29 324 C29 126 167 -14 387 -14 C575 -14 704 110 704 282 C704 288 704 288 704 288 C703 345 696 368 641 368 L444 368 C382 368 352 356 352 299 L352 291 C352 236 382 221 444 221 L503 221 Z " />
<glyph glyph-name="registered" unicode="&#xae;" horiz-adv-x="739" d="M331 338 L331 414 L373 414 C406 414 421 401 421 376 C421 351 406 338 375 338 L331 338 Z M370 -14 C569 -14 706 128 706 324 C706 521 569 661 370 661 C171 661 33 519 33 324 C33 126 169 -14 370 -14 L370 -14 Z M370 53 C211 53 103 167 103 324 C103 481 210 594 369 594 C527 594 636 480 636 324 C636 166 529 53 370 53 L370 53 Z M470 283 C514 299 538 336 538 384 C538 464 486 502 383 502 L276 502 C237 502 216 480 216 438 L216 212 C216 170 233 144 265 144 L282 144 C315 144 333 164 333 198 L333 257 L360 257 L406 185 C425 151 450 141 472 141 C509 141 545 174 540 181 L470 283 Z " />
<glyph glyph-name="macron" unicode="&#xaf;" horiz-adv-x="500" d="M133 545 L367 545 C416 545 445 570 445 611 L445 619 C445 659 415 684 367 684 L133 684 C86 684 55 659 55 619 L55 611 C55 570 85 545 133 545 L133 545 Z " />
<glyph glyph-name="degree" unicode="&#xb0;" horiz-adv-x="375" d="M188 335 C286 335 355 395 355 493 L355 500 C355 599 287 658 189 658 C90 658 20 598 20 500 L20 493 C20 394 89 335 188 335 L188 335 Z M188 425 C157 425 133 446 133 489 L133 504 C133 549 156 568 188 568 C218 568 243 547 243 504 L243 488 C243 445 219 425 188 425 L188 425 Z " />
<glyph glyph-name="plusminus" unicode="&#xb1;" horiz-adv-x="493" d="M361 165 L361 563 C361 625 331 656 274 656 L221 656 C210 610 175 583 132 583 C108 583 89 590 68 603 C62 606 16 578 16 511 C16 453 59 411 117 411 C139 411 159 418 177 430 L177 165 L127 165 C66 165 34 139 34 82 L34 79 C34 24 66 0 127 0 L388 0 C450 0 481 24 481 79 L481 82 C481 139 450 165 388 165 L361 165 Z " />
<glyph glyph-name="acute" unicode="&#xb4;" horiz-adv-x="500" d="M167 567 C176 550 272 529 358 577 C394 597 415 635 415 670 C415 712 377 744 329 744 C311 744 293 738 275 728 C208 689 158 584 167 567 L167 567 Z " />
<glyph glyph-name="mu" unicode="&#xb5;" horiz-adv-x="629" d="M394 222 C394 168 354 135 302 135 C244 135 204 180 204 246 C204 315 244 357 304 357 C347 357 378 335 394 299 L394 222 Z M403 423 C378 472 320 506 250 506 C112 506 22 406 22 247 C22 93 112 -14 248 -14 C315 -14 367 21 393 75 C396 13 431 -9 478 -9 L498 -9 C549 -9 585 13 585 84 L585 479 C585 486 551 501 512 501 C469 501 422 484 403 423 L403 423 Z " />
<glyph glyph-name="paragraph" unicode="&#xb6;" horiz-adv-x="626" d="M518 -9 L534 -9 C565 -9 581 9 581 42 L581 606 C581 639 565 656 534 656 L518 656 C488 656 472 639 472 606 L472 42 C472 9 488 -9 518 -9 L518 -9 Z M359 -9 L374 -9 C403 -9 420 9 420 42 L420 594 C420 633 397 655 357 655 L248 655 C91 655 13 588 13 461 C13 336 97 272 250 272 L312 272 L312 42 C312 10 328 -9 359 -9 L359 -9 Z " />
<glyph glyph-name="periodcentered" unicode="&#xb7;" horiz-adv-x="262" d="M118 158 L141 158 C198 158 224 184 224 239 L224 255 C224 310 199 336 141 336 L118 336 C63 336 37 310 37 255 L37 239 C37 184 64 158 118 158 L118 158 Z " />
<glyph glyph-name="cedilla" unicode="&#xb8;" horiz-adv-x="500" d="M233 -221 L308 -162 C339 -140 354 -122 354 -100 L354 -95 C354 -59 326 -42 278 -42 L257 -42 C196 -42 182 -60 171 -96 L136 -192 C125 -227 197 -245 233 -221 L233 -221 Z " />
<glyph glyph-name="ordmasculine" unicode="&#xba;" horiz-adv-x="476" d="M237 244 C365 244 455 334 455 453 C455 570 368 661 239 661 C111 661 21 570 21 452 C21 333 107 244 237 244 L237 244 Z M226 -9 L247 -9 C298 -9 321 15 321 64 L321 79 C321 129 298 152 247 152 L226 152 C176 152 153 129 153 79 L153 64 C153 15 177 -9 226 -9 L226 -9 Z M238 367 C192 367 157 405 157 453 C157 502 192 540 238 540 C284 540 320 502 320 453 C320 405 284 367 238 367 L238 367 Z " />
<glyph glyph-name="guillemotright" unicode="&#xbb;" horiz-adv-x="551" d="M344 74 L347 74 C423 74 525 229 525 247 C525 265 423 420 347 420 L344 420 C303 420 282 394 282 357 L282 354 C282 312 351 267 391 247 C351 225 282 182 282 140 L282 136 C282 100 303 74 344 74 L344 74 Z M97 55 L99 55 C183 55 289 227 289 247 C289 267 183 439 99 439 L97 439 C50 439 27 411 27 370 L27 366 C27 319 104 269 150 247 C105 223 27 175 27 128 L27 124 C27 84 50 55 97 55 L97 55 Z " />
<glyph glyph-name="questiondown" unicode="&#xbf;" horiz-adv-x="522" d="M270 477 L292 477 C347 477 374 504 374 558 L374 575 C374 629 347 656 292 656 L270 656 C213 656 186 629 186 575 L186 558 C186 503 213 477 270 477 L270 477 Z M263 -13 C420 -13 508 66 508 152 C508 252 381 243 381 241 C374 190 336 140 266 140 C222 140 197 159 197 190 C197 251 359 229 360 372 C361 417 328 440 280 440 C236 440 210 431 203 406 C188 323 16 342 16 177 C16 60 108 -13 263 -13 L263 -13 Z " />
<glyph glyph-name="Agrave" unicode="&#xc0;" horiz-adv-x="688" d="M270 278 L340 466 L409 278 L270 278 Z M445 134 L463 86 C491 14 535 -9 578 -9 C638 -9 692 37 685 55 L467 596 C457 629 434 652 343 652 C252 652 225 629 215 596 L5 53 C-1 35 54 -9 109 -9 C152 -9 194 15 218 84 L237 134 L445 134 Z M226 732 C312 684 408 705 418 722 C427 739 376 844 309 883 C292 893 273 899 256 899 C207 899 169 867 169 825 C169 790 191 752 226 732 L226 732 Z " />
<glyph glyph-name="Aacute" unicode="&#xc1;" horiz-adv-x="688" d="M270 278 L340 466 L409 278 L270 278 Z M445 134 L463 86 C491 14 535 -9 578 -9 C638 -9 692 37 685 55 L467 596 C457 629 434 652 343 652 C252 652 225 629 215 596 L5 53 C-1 35 54 -9 109 -9 C152 -9 194 15 218 84 L237 134 L445 134 Z M266 722 C275 705 371 684 457 732 C493 752 514 790 514 825 C514 867 476 899 428 899 C410 899 392 893 374 883 C307 844 257 739 266 722 L266 722 Z " />
<glyph glyph-name="Acircumflex" unicode="&#xc2;" horiz-adv-x="688" d="M270 278 L340 466 L409 278 L270 278 Z M445 134 L463 86 C491 14 535 -9 578 -9 C638 -9 692 37 685 55 L467 596 C457 629 434 652 343 652 C252 652 225 629 215 596 L5 53 C-1 35 54 -9 109 -9 C152 -9 194 15 218 84 L237 134 L445 134 Z M344 789 C318 731 281 696 240 696 C203 696 178 721 178 754 C178 823 282 893 344 909 C406 893 509 823 509 754 C509 721 485 696 448 696 C407 696 369 731 344 789 L344 789 Z " />
<glyph glyph-name="Atilde" unicode="&#xc3;" horiz-adv-x="688" d="M270 278 L340 466 L409 278 L270 278 Z M445 134 L463 86 C491 14 535 -9 578 -9 C638 -9 692 37 685 55 L467 596 C457 629 434 652 343 652 C252 652 225 629 215 596 L5 53 C-1 35 54 -9 109 -9 C152 -9 194 15 218 84 L237 134 L445 134 Z M225 697 C257 697 279 723 290 757 C332 715 375 695 424 695 C478 695 527 737 527 806 C527 840 502 869 465 869 C434 869 412 843 400 810 C359 851 315 871 266 871 C213 871 164 829 164 760 C164 726 188 697 225 697 L225 697 Z " />
<glyph glyph-name="Adieresis" unicode="&#xc4;" horiz-adv-x="688" d="M270 278 L340 466 L409 278 L270 278 Z M445 134 L463 86 C491 14 535 -9 578 -9 C638 -9 692 37 685 55 L467 596 C457 629 434 652 343 652 C252 652 225 629 215 596 L5 53 C-1 35 54 -9 109 -9 C152 -9 194 15 218 84 L237 134 L445 134 Z M459 695 C510 695 545 728 545 784 C545 840 510 872 456 872 C403 872 368 839 368 784 C368 727 403 695 459 695 L459 695 Z M232 695 C285 695 320 728 320 784 C320 840 285 872 229 872 C178 872 143 839 143 784 C143 727 178 695 232 695 L232 695 Z " />
<glyph glyph-name="Aring" unicode="&#xc5;" horiz-adv-x="688" d="M344 676 C318 676 298 698 298 724 C298 752 318 773 344 773 C369 773 390 752 390 724 C390 698 369 676 344 676 L344 676 Z M445 134 L463 86 C491 14 535 -9 578 -9 C638 -9 692 37 685 55 L467 596 C461 611 446 622 427 630 C457 651 475 684 475 724 C475 797 421 850 345 850 C269 850 213 797 213 724 C213 684 229 652 257 632 C236 624 221 612 215 596 L5 53 C-1 35 54 -9 109 -9 C152 -9 194 15 218 84 L237 134 L445 134 Z M270 278 L340 466 L409 278 L270 278 Z " />
<glyph glyph-name="AE" unicode="&#xc6;" horiz-adv-x="895" d="M270 278 L340 466 L409 278 L270 278 Z M445 134 L462 89 C490 14 528 0 598 0 L776 0 C840 0 869 33 869 88 L869 93 C869 145 840 172 776 172 L631 172 L601 247 L689 247 C754 247 782 276 782 328 L782 332 C782 381 755 409 689 409 L534 409 L509 474 L772 474 C835 474 864 502 864 557 L864 563 C864 615 835 647 772 647 L340 647 C252 647 223 623 210 582 L5 53 C-1 35 52 -9 110 -9 C151 -9 193 14 218 84 L237 134 L445 134 Z " />
<glyph glyph-name="Ccedilla" unicode="&#xc7;" horiz-adv-x="649" d="M368 -14 C554 -14 626 86 626 149 C626 233 513 253 509 247 C488 198 442 169 380 169 C298 169 235 231 235 324 C235 418 297 478 380 478 C437 478 483 451 507 404 C511 398 623 419 623 502 C623 564 552 661 369 661 C166 661 29 520 29 324 C29 126 166 -14 368 -14 L368 -14 Z M334 -221 L409 -162 C440 -140 455 -122 455 -100 L455 -95 C455 -59 427 -42 379 -42 L358 -42 C297 -42 283 -60 272 -96 L237 -192 C226 -227 298 -245 334 -221 L334 -221 Z " />
<glyph glyph-name="Egrave" unicode="&#xc8;" horiz-adv-x="616" d="M148 0 L497 0 C560 0 589 33 589 88 L589 93 C589 145 560 172 497 172 L246 172 L246 247 L410 247 C475 247 503 276 503 328 L503 332 C503 381 476 409 410 409 L246 409 L246 474 L492 474 C556 474 585 502 585 557 L585 563 C585 615 556 647 492 647 L148 647 C82 647 45 608 45 535 L45 110 C45 37 82 0 148 0 L148 0 Z M227 732 C313 684 409 705 419 722 C428 739 377 844 310 883 C293 893 274 899 257 899 C208 899 170 867 170 825 C170 790 192 752 227 732 L227 732 Z " />
<glyph glyph-name="Eacute" unicode="&#xc9;" horiz-adv-x="616" d="M148 0 L497 0 C560 0 589 33 589 88 L589 93 C589 145 560 172 497 172 L246 172 L246 247 L410 247 C475 247 503 276 503 328 L503 332 C503 381 476 409 410 409 L246 409 L246 474 L492 474 C556 474 585 502 585 557 L585 563 C585 615 556 647 492 647 L148 647 C82 647 45 608 45 535 L45 110 C45 37 82 0 148 0 L148 0 Z M222 722 C231 705 327 684 413 732 C449 752 470 790 470 825 C470 867 432 899 384 899 C366 899 348 893 330 883 C263 844 213 739 222 722 L222 722 Z " />
<glyph glyph-name="Ecircumflex" unicode="&#xca;" horiz-adv-x="616" d="M148 0 L497 0 C560 0 589 33 589 88 L589 93 C589 145 560 172 497 172 L246 172 L246 247 L410 247 C475 247 503 276 503 328 L503 332 C503 381 476 409 410 409 L246 409 L246 474 L492 474 C556 474 585 502 585 557 L585 563 C585 615 556 647 492 647 L148 647 C82 647 45 608 45 535 L45 110 C45 37 82 0 148 0 L148 0 Z M322 789 C296 731 259 696 218 696 C181 696 156 721 156 754 C156 823 260 893 322 909 C384 893 487 823 487 754 C487 721 463 696 426 696 C385 696 347 731 322 789 L322 789 Z " />
<glyph glyph-name="Edieresis" unicode="&#xcb;" horiz-adv-x="616" d="M148 0 L497 0 C560 0 589 33 589 88 L589 93 C589 145 560 172 497 172 L246 172 L246 247 L410 247 C475 247 503 276 503 328 L503 332 C503 381 476 409 410 409 L246 409 L246 474 L492 474 C556 474 585 502 585 557 L585 563 C585 615 556 647 492 647 L148 647 C82 647 45 608 45 535 L45 110 C45 37 82 0 148 0 L148 0 Z M437 695 C488 695 523 728 523 784 C523 840 488 872 434 872 C381 872 346 839 346 784 C346 727 381 695 437 695 L437 695 Z M210 695 C263 695 298 728 298 784 C298 840 263 872 207 872 C156 872 121 839 121 784 C121 727 156 695 210 695 L210 695 Z " />
<glyph glyph-name="Igrave" unicode="&#xcc;" horiz-adv-x="306" d="M137 -5 L166 -5 C223 -5 253 27 253 88 L253 559 C253 621 223 652 166 652 L137 652 C82 652 52 621 52 559 L52 88 C52 27 82 -5 137 -5 L137 -5 Z M49 732 C135 684 231 705 241 722 C250 739 199 844 132 883 C115 893 96 899 79 899 C30 899 -8 867 -8 825 C-8 790 14 752 49 732 L49 732 Z " />
<glyph glyph-name="Iacute" unicode="&#xcd;" horiz-adv-x="306" d="M137 -5 L166 -5 C223 -5 253 27 253 88 L253 559 C253 621 223 652 166 652 L137 652 C82 652 52 621 52 559 L52 88 C52 27 82 -5 137 -5 L137 -5 Z M56 722 C65 705 161 684 247 732 C283 752 304 790 304 825 C304 867 266 899 218 899 C200 899 182 893 164 883 C97 844 47 739 56 722 L56 722 Z " />
<glyph glyph-name="Icircumflex" unicode="&#xce;" horiz-adv-x="306" d="M137 -5 L166 -5 C223 -5 253 27 253 88 L253 559 C253 621 223 652 166 652 L137 652 C82 652 52 621 52 559 L52 88 C52 27 82 -5 137 -5 L137 -5 Z M149 789 C123 731 86 696 45 696 C8 696 -17 721 -17 754 C-17 823 87 893 149 909 C211 893 314 823 314 754 C314 721 290 696 253 696 C212 696 174 731 149 789 L149 789 Z " />
<glyph glyph-name="Idieresis" unicode="&#xcf;" horiz-adv-x="306" d="M137 -5 L166 -5 C223 -5 253 27 253 88 L253 559 C253 621 223 652 166 652 L137 652 C82 652 52 621 52 559 L52 88 C52 27 82 -5 137 -5 L137 -5 Z M264 695 C315 695 350 728 350 784 C350 840 315 872 261 872 C208 872 173 839 173 784 C173 727 208 695 264 695 L264 695 Z M37 695 C90 695 125 728 125 784 C125 840 90 872 34 872 C-17 872 -52 839 -52 784 C-52 727 -17 695 37 695 L37 695 Z " />
<glyph glyph-name="Eth" unicode="&#xd0;" horiz-adv-x="731" d="M283 392 L283 476 L356 476 C450 476 509 422 509 326 C509 228 447 171 353 171 L283 171 L283 257 L349 257 C392 257 412 285 412 317 L412 333 C412 364 392 392 349 392 L283 392 Z M84 257 L84 110 C84 49 134 0 196 0 C196 0 361 0 357 0 C570 0 706 128 706 327 C706 524 573 647 361 647 C364 647 188 647 188 647 C128 647 84 608 84 535 L84 392 L67 392 C24 392 3 364 3 333 L3 317 C3 285 24 257 67 257 L84 257 Z " />
<glyph glyph-name="Ntilde" unicode="&#xd1;" horiz-adv-x="703" d="M130 -5 L147 -5 C204 -5 234 27 234 88 L234 346 L471 39 C498 7 512 -5 560 -5 L576 -5 C626 -5 657 26 657 88 L657 559 C657 620 628 652 573 652 L556 652 C498 652 469 620 469 559 L469 303 L237 605 C209 638 194 652 147 652 L128 652 C76 652 45 621 45 559 L45 88 C45 27 74 -5 130 -5 L130 -5 Z M231 697 C263 697 285 723 296 757 C338 715 381 695 430 695 C484 695 533 737 533 806 C533 840 508 869 471 869 C440 869 418 843 406 810 C365 851 321 871 272 871 C219 871 170 829 170 760 C170 726 194 697 231 697 L231 697 Z " />
<glyph glyph-name="Ograve" unicode="&#xd2;" horiz-adv-x="733" d="M366 -14 C566 -14 708 127 708 324 C708 520 566 661 367 661 C168 661 25 520 25 324 C25 126 167 -14 366 -14 L366 -14 Z M367 165 C280 165 223 228 223 324 C223 422 279 484 366 484 C453 484 510 419 510 324 C510 228 453 165 367 165 L367 165 Z M253 732 C339 684 435 705 445 722 C454 739 403 844 336 883 C319 893 300 899 283 899 C234 899 196 867 196 825 C196 790 218 752 253 732 L253 732 Z " />
<glyph glyph-name="Oacute" unicode="&#xd3;" horiz-adv-x="733" d="M366 -14 C566 -14 708 127 708 324 C708 520 566 661 367 661 C168 661 25 520 25 324 C25 126 167 -14 366 -14 L366 -14 Z M367 165 C280 165 223 228 223 324 C223 422 279 484 366 484 C453 484 510 419 510 324 C510 228 453 165 367 165 L367 165 Z M275 722 C284 705 380 684 466 732 C502 752 523 790 523 825 C523 867 485 899 437 899 C419 899 401 893 383 883 C316 844 266 739 275 722 L275 722 Z " />
<glyph glyph-name="Ocircumflex" unicode="&#xd4;" horiz-adv-x="733" d="M366 -14 C566 -14 708 127 708 324 C708 520 566 661 367 661 C168 661 25 520 25 324 C25 126 167 -14 366 -14 L366 -14 Z M367 165 C280 165 223 228 223 324 C223 422 279 484 366 484 C453 484 510 419 510 324 C510 228 453 165 367 165 L367 165 Z M368 789 C342 731 305 696 264 696 C227 696 202 721 202 754 C202 823 306 893 368 909 C430 893 533 823 533 754 C533 721 509 696 472 696 C431 696 393 731 368 789 L368 789 Z " />
<glyph glyph-name="Otilde" unicode="&#xd5;" horiz-adv-x="733" d="M366 -14 C566 -14 708 127 708 324 C708 520 566 661 367 661 C168 661 25 520 25 324 C25 126 167 -14 366 -14 L366 -14 Z M367 165 C280 165 223 228 223 324 C223 422 279 484 366 484 C453 484 510 419 510 324 C510 228 453 165 367 165 L367 165 Z M248 697 C280 697 302 723 313 757 C355 715 398 695 447 695 C501 695 550 737 550 806 C550 840 525 869 488 869 C457 869 435 843 423 810 C382 851 338 871 289 871 C236 871 187 829 187 760 C187 726 211 697 248 697 L248 697 Z " />
<glyph glyph-name="Odieresis" unicode="&#xd6;" horiz-adv-x="733" d="M366 -14 C566 -14 708 127 708 324 C708 520 566 661 367 661 C168 661 25 520 25 324 C25 126 167 -14 366 -14 L366 -14 Z M367 165 C280 165 223 228 223 324 C223 422 279 484 366 484 C453 484 510 419 510 324 C510 228 453 165 367 165 L367 165 Z M483 695 C534 695 569 728 569 784 C569 840 534 872 480 872 C427 872 392 839 392 784 C392 727 427 695 483 695 L483 695 Z M256 695 C309 695 344 728 344 784 C344 840 309 872 253 872 C202 872 167 839 167 784 C167 727 202 695 256 695 L256 695 Z " />
<glyph glyph-name="multiply" unicode="&#xd7;" horiz-adv-x="565" d="M86 41 C110 16 149 11 185 50 L283 153 L380 50 C416 11 455 16 479 41 L491 53 C518 79 521 117 483 153 L381 252 L483 350 C521 386 516 423 491 450 L481 462 C455 490 416 492 380 453 L283 350 L185 453 C149 492 110 490 84 462 L74 450 C49 423 44 386 82 350 L184 252 L82 153 C44 117 47 79 74 53 L86 41 Z " />
<glyph glyph-name="Oslash" unicode="&#xd8;" horiz-adv-x="733" d="M225 247 C215 270 210 296 210 324 C210 425 270 493 368 493 C393 493 415 488 434 480 L225 247 Z M512 401 C522 378 527 352 527 324 C527 225 463 156 368 156 C344 156 321 161 302 169 L512 401 Z M637 539 L675 581 C691 599 697 614 697 628 C697 673 627 694 620 686 L554 612 C502 643 438 661 368 661 C168 661 27 518 27 324 C27 239 53 165 99 108 L56 61 C39 42 32 27 32 14 C32 -30 103 -52 110 -44 C110 -44 181 36 181 35 C234 4 297 -14 368 -14 C568 -14 709 129 709 324 C709 408 683 482 637 539 L637 539 Z " />
<glyph glyph-name="Ugrave" unicode="&#xd9;" horiz-adv-x="679" d="M339 -10 C535 -10 636 89 636 284 L636 559 C636 621 606 652 549 652 L523 652 C468 652 435 621 435 559 L435 284 C435 201 405 163 340 163 C276 163 244 203 244 283 L244 559 C244 621 214 652 156 652 L131 652 C76 652 43 621 43 559 L43 284 C43 89 143 -10 339 -10 L339 -10 Z M227 730 C313 682 409 703 419 720 C428 737 377 842 310 881 C293 891 274 897 257 897 C208 897 170 865 170 823 C170 788 192 750 227 730 L227 730 Z " />
<glyph glyph-name="Uacute" unicode="&#xda;" horiz-adv-x="679" d="M339 -10 C535 -10 636 89 636 284 L636 559 C636 621 606 652 549 652 L523 652 C468 652 435 621 435 559 L435 284 C435 201 405 163 340 163 C276 163 244 203 244 283 L244 559 C244 621 214 652 156 652 L131 652 C76 652 43 621 43 559 L43 284 C43 89 143 -10 339 -10 L339 -10 Z M261 720 C270 703 366 682 452 730 C488 750 509 788 509 823 C509 865 471 897 423 897 C405 897 387 891 369 881 C302 842 252 737 261 720 L261 720 Z " />
<glyph glyph-name="Ucircumflex" unicode="&#xdb;" horiz-adv-x="679" d="M339 -10 C535 -10 636 89 636 284 L636 559 C636 621 606 652 549 652 L523 652 C468 652 435 621 435 559 L435 284 C435 201 405 163 340 163 C276 163 244 203 244 283 L244 559 C244 621 214 652 156 652 L131 652 C76 652 43 621 43 559 L43 284 C43 89 143 -10 339 -10 L339 -10 Z M339 789 C313 731 276 696 235 696 C198 696 173 721 173 754 C173 823 277 893 339 909 C401 893 504 823 504 754 C504 721 480 696 443 696 C402 696 364 731 339 789 L339 789 Z " />
<glyph glyph-name="Udieresis" unicode="&#xdc;" horiz-adv-x="679" d="M339 -10 C535 -10 636 89 636 284 L636 559 C636 621 606 652 549 652 L523 652 C468 652 435 621 435 559 L435 284 C435 201 405 163 340 163 C276 163 244 203 244 283 L244 559 C244 621 214 652 156 652 L131 652 C76 652 43 621 43 559 L43 284 C43 89 143 -10 339 -10 L339 -10 Z M454 695 C505 695 540 728 540 784 C540 840 505 872 451 872 C398 872 363 839 363 784 C363 727 398 695 454 695 L454 695 Z M227 695 C280 695 315 728 315 784 C315 840 280 872 224 872 C173 872 138 839 138 784 C138 727 173 695 227 695 L227 695 Z " />
<glyph glyph-name="Yacute" unicode="&#xdd;" horiz-adv-x="639" d="M421 253 L643 575 C649 583 611 651 519 651 C486 651 454 632 424 580 L321 410 L221 581 C194 630 161 650 127 650 C25 650 -10 585 -4 575 C-4 575 220 255 220 254 L220 88 C220 27 250 -5 305 -5 L334 -5 C391 -5 421 27 421 88 L421 253 Z M239 720 C248 703 344 682 430 730 C466 750 487 788 487 823 C487 865 449 897 401 897 C383 897 365 891 347 881 C280 842 230 737 239 720 L239 720 Z " />
<glyph glyph-name="Thorn" unicode="&#xde;" horiz-adv-x="623" d="M246 551 L246 559 C246 621 216 652 159 652 L130 652 C75 652 45 621 45 559 L45 88 C45 27 75 -5 130 -5 L159 -5 C216 -5 246 27 246 88 L246 100 L321 100 C507 100 601 176 601 323 C601 473 503 551 315 551 L246 551 Z M246 247 L246 400 L317 400 C381 400 410 376 410 323 C410 273 379 247 317 247 L246 247 Z " />
<glyph glyph-name="germandbls" unicode="&#xdf;" horiz-adv-x="625" d="M470 397 C540 415 573 457 573 532 C573 639 481 708 320 708 C127 708 44 631 44 447 C44 155 44 84 44 84 C44 27 77 -9 130 -9 L150 -9 C203 -9 236 24 236 84 C236 84 236 463 236 465 C236 534 264 568 317 568 C361 568 390 543 390 503 C390 461 362 439 312 439 C312 439 280 411 280 367 C280 310 311 291 347 278 C407 258 434 235 434 193 C434 159 405 133 370 133 C336 133 320 144 305 157 C302 159 265 124 265 85 C265 23 316 -14 417 -14 C534 -14 614 70 614 194 C614 286 563 360 470 397 L470 397 Z " />
<glyph glyph-name="agrave" unicode="&#xe0;" horiz-adv-x="574" d="M261 107 C226 107 203 124 203 153 C203 191 244 207 321 209 L345 209 L345 192 C345 142 312 107 261 107 L261 107 Z M344 304 L324 304 C114 303 21 249 21 136 C21 50 86 -10 186 -10 C259 -10 320 20 352 72 C367 19 405 -9 460 -9 C497 -9 534 3 534 13 L534 295 C534 437 456 506 278 506 C114 506 40 457 40 379 C40 293 166 301 167 304 C180 333 205 369 267 369 C314 369 340 347 344 304 L344 304 Z M186 577 C272 529 368 550 378 567 C387 584 336 689 269 728 C252 738 233 744 216 744 C167 744 129 712 129 670 C129 635 151 597 186 577 L186 577 Z " />
<glyph glyph-name="aacute" unicode="&#xe1;" horiz-adv-x="574" d="M261 107 C226 107 203 124 203 153 C203 191 244 207 321 209 L345 209 L345 192 C345 142 312 107 261 107 L261 107 Z M344 304 L324 304 C114 303 21 249 21 136 C21 50 86 -10 186 -10 C259 -10 320 20 352 72 C367 19 405 -9 460 -9 C497 -9 534 3 534 13 L534 295 C534 437 456 506 278 506 C114 506 40 457 40 379 C40 293 166 301 167 304 C180 333 205 369 267 369 C314 369 340 347 344 304 L344 304 Z M198 567 C207 550 303 529 389 577 C425 597 446 635 446 670 C446 712 408 744 360 744 C342 744 324 738 306 728 C239 689 189 584 198 567 L198 567 Z " />
<glyph glyph-name="acircumflex" unicode="&#xe2;" horiz-adv-x="574" d="M261 107 C226 107 203 124 203 153 C203 191 244 207 321 209 L345 209 L345 192 C345 142 312 107 261 107 L261 107 Z M344 304 L324 304 C114 303 21 249 21 136 C21 50 86 -10 186 -10 C259 -10 320 20 352 72 C367 19 405 -9 460 -9 C497 -9 534 3 534 13 L534 295 C534 437 456 506 278 506 C114 506 40 457 40 379 C40 293 166 301 167 304 C180 333 205 369 267 369 C314 369 340 347 344 304 L344 304 Z M288 634 C262 576 225 541 184 541 C147 541 122 566 122 599 C122 668 226 738 288 754 C350 738 453 668 453 599 C453 566 429 541 392 541 C351 541 313 576 288 634 L288 634 Z " />
<glyph glyph-name="atilde" unicode="&#xe3;" horiz-adv-x="574" d="M261 107 C226 107 203 124 203 153 C203 191 244 207 321 209 L345 209 L345 192 C345 142 312 107 261 107 L261 107 Z M344 304 L324 304 C114 303 21 249 21 136 C21 50 86 -10 186 -10 C259 -10 320 20 352 72 C367 19 405 -9 460 -9 C497 -9 534 3 534 13 L534 295 C534 437 456 506 278 506 C114 506 40 457 40 379 C40 293 166 301 167 304 C180 333 205 369 267 369 C314 369 340 347 344 304 L344 304 Z M161 542 C193 542 215 568 226 602 C268 560 311 540 360 540 C414 540 463 582 463 651 C463 685 438 714 401 714 C370 714 348 688 336 655 C295 696 251 716 202 716 C149 716 100 674 100 605 C100 571 124 542 161 542 L161 542 Z " />
<glyph glyph-name="adieresis" unicode="&#xe4;" horiz-adv-x="574" d="M261 107 C226 107 203 124 203 153 C203 191 244 207 321 209 L345 209 L345 192 C345 142 312 107 261 107 L261 107 Z M344 304 L324 304 C114 303 21 249 21 136 C21 50 86 -10 186 -10 C259 -10 320 20 352 72 C367 19 405 -9 460 -9 C497 -9 534 3 534 13 L534 295 C534 437 456 506 278 506 C114 506 40 457 40 379 C40 293 166 301 167 304 C180 333 205 369 267 369 C314 369 340 347 344 304 L344 304 Z M396 540 C447 540 482 573 482 629 C482 685 447 717 393 717 C340 717 305 684 305 629 C305 572 340 540 396 540 L396 540 Z M169 540 C222 540 257 573 257 629 C257 685 222 717 166 717 C115 717 80 684 80 629 C80 572 115 540 169 540 L169 540 Z " />
<glyph glyph-name="aring" unicode="&#xe5;" horiz-adv-x="574" d="M261 107 C226 107 203 124 203 153 C203 191 244 207 321 209 L345 209 L345 192 C345 142 312 107 261 107 L261 107 Z M344 304 L324 304 C114 303 21 249 21 136 C21 50 86 -10 186 -10 C259 -10 320 20 352 72 C367 19 405 -9 460 -9 C497 -9 534 3 534 13 L534 295 C534 437 456 506 278 506 C114 506 40 457 40 379 C40 293 166 301 167 304 C180 333 205 369 267 369 C314 369 340 347 344 304 L344 304 Z M280 540 C359 540 412 594 412 667 C412 738 360 793 282 793 C203 793 150 738 150 667 C150 594 201 540 280 540 L280 540 Z M281 619 C255 619 235 639 235 667 C235 694 255 715 281 715 C307 715 327 694 327 667 C327 640 307 619 281 619 L281 619 Z " />
<glyph glyph-name="ae" unicode="&#xe6;" horiz-adv-x="872" d="M497 296 C503 345 542 381 592 381 C645 381 678 347 679 296 L497 296 Z M261 107 C226 107 203 124 203 153 C203 191 244 207 321 209 L345 209 L345 192 C345 142 312 107 261 107 L261 107 Z M344 304 C344 305 324 304 324 304 C114 303 21 249 21 136 C21 50 88 -10 188 -10 C281 -10 354 31 389 89 C428 22 500 -14 607 -14 C746 -14 824 36 824 102 C824 175 736 184 735 182 C716 148 675 119 615 119 C555 119 513 145 500 197 L814 197 C843 197 851 218 852 247 L852 259 C852 402 746 506 595 506 C529 506 475 487 434 450 C397 487 339 506 260 506 C111 506 40 457 40 379 C40 293 166 301 167 304 C180 333 205 370 267 370 C314 370 340 347 344 304 L344 304 Z " />
<glyph glyph-name="ccedilla" unicode="&#xe7;" horiz-adv-x="512" d="M286 -14 C437 -14 497 68 497 117 C497 198 397 208 395 201 C379 162 347 135 297 135 C236 135 194 182 194 247 C194 309 237 356 297 356 C351 356 379 329 395 290 C398 283 497 297 497 373 C497 422 443 505 286 505 C131 505 22 397 22 247 C22 92 128 -14 286 -14 L286 -14 Z M258 -221 L333 -162 C364 -140 379 -122 379 -100 L379 -95 C379 -59 351 -42 303 -42 L282 -42 C221 -42 207 -60 196 -96 L161 -192 C150 -227 222 -245 258 -221 L258 -221 Z " />
<glyph glyph-name="egrave" unicode="&#xe8;" horiz-adv-x="563" d="M189 296 C195 345 234 381 284 381 C337 381 369 347 371 296 L189 296 Z M192 197 L505 197 C534 197 543 218 544 247 L544 259 C544 402 438 506 286 506 C132 506 22 394 22 242 C22 82 128 -14 298 -14 C438 -14 515 36 515 102 C515 175 427 184 427 182 C408 148 366 119 307 119 C246 119 204 145 192 197 L192 197 Z M172 577 C258 529 354 550 364 567 C373 584 322 689 255 728 C238 738 219 744 202 744 C153 744 115 712 115 670 C115 635 137 597 172 577 L172 577 Z " />
<glyph glyph-name="eacute" unicode="&#xe9;" horiz-adv-x="563" d="M189 296 C195 345 234 381 284 381 C337 381 369 347 371 296 L189 296 Z M192 197 L505 197 C534 197 543 218 544 247 L544 259 C544 402 438 506 286 506 C132 506 22 394 22 242 C22 82 128 -14 298 -14 C438 -14 515 36 515 102 C515 175 427 184 427 182 C408 148 366 119 307 119 C246 119 204 145 192 197 L192 197 Z M195 567 C204 550 300 529 386 577 C422 597 443 635 443 670 C443 712 405 744 357 744 C339 744 321 738 303 728 C236 689 186 584 195 567 L195 567 Z " />
<glyph glyph-name="ecircumflex" unicode="&#xea;" horiz-adv-x="563" d="M189 296 C195 345 234 381 284 381 C337 381 369 347 371 296 L189 296 Z M192 197 L505 197 C534 197 543 218 544 247 L544 259 C544 402 438 506 286 506 C132 506 22 394 22 242 C22 82 128 -14 298 -14 C438 -14 515 36 515 102 C515 175 427 184 427 182 C408 148 366 119 307 119 C246 119 204 145 192 197 L192 197 Z M286 634 C260 576 223 541 182 541 C145 541 120 566 120 599 C120 668 224 738 286 754 C348 738 451 668 451 599 C451 566 427 541 390 541 C349 541 311 576 286 634 L286 634 Z " />
<glyph glyph-name="edieresis" unicode="&#xeb;" horiz-adv-x="563" d="M189 296 C195 345 234 381 284 381 C337 381 369 347 371 296 L189 296 Z M192 197 L505 197 C534 197 543 218 544 247 L544 259 C544 402 438 506 286 506 C132 506 22 394 22 242 C22 82 128 -14 298 -14 C438 -14 515 36 515 102 C515 175 427 184 427 182 C408 148 366 119 307 119 C246 119 204 145 192 197 L192 197 Z M401 540 C452 540 487 573 487 629 C487 685 452 717 398 717 C345 717 310 684 310 629 C310 572 345 540 401 540 L401 540 Z M174 540 C227 540 262 573 262 629 C262 685 227 717 171 717 C120 717 85 684 85 629 C85 572 120 540 174 540 L174 540 Z " />
<glyph glyph-name="igrave" unicode="&#xec;" horiz-adv-x="286" d="M135 -5 L155 -5 C204 -5 239 19 239 88 L239 408 C239 480 205 501 153 501 L133 501 C84 501 47 478 47 408 L47 88 C47 17 83 -5 135 -5 L135 -5 Z M42 577 C128 529 224 550 234 567 C243 584 192 689 125 728 C108 738 89 744 72 744 C23 744 -15 712 -15 670 C-15 635 7 597 42 577 L42 577 Z " />
<glyph glyph-name="iacute" unicode="&#xed;" horiz-adv-x="286" d="M135 -5 L155 -5 C204 -5 239 19 239 88 L239 408 C239 480 205 501 153 501 L133 501 C84 501 47 478 47 408 L47 88 C47 17 83 -5 135 -5 L135 -5 Z M49 567 C58 550 154 529 240 577 C276 597 297 635 297 670 C297 712 259 744 211 744 C193 744 175 738 157 728 C90 689 40 584 49 567 L49 567 Z " />
<glyph glyph-name="icircumflex" unicode="&#xee;" horiz-adv-x="286" d="M135 -5 L155 -5 C204 -5 239 19 239 88 L239 408 C239 480 205 501 153 501 L133 501 C84 501 47 478 47 408 L47 88 C47 17 83 -5 135 -5 L135 -5 Z M142 634 C116 576 79 541 38 541 C1 541 -24 566 -24 599 C-24 668 80 738 142 754 C204 738 307 668 307 599 C307 566 283 541 246 541 C205 541 167 576 142 634 L142 634 Z " />
<glyph glyph-name="idieresis" unicode="&#xef;" horiz-adv-x="286" d="M135 -5 L155 -5 C204 -5 239 19 239 88 L239 408 C239 480 205 501 153 501 L133 501 C84 501 47 478 47 408 L47 88 C47 17 83 -5 135 -5 L135 -5 Z M257 540 C308 540 343 573 343 629 C343 685 308 717 254 717 C201 717 166 684 166 629 C166 572 201 540 257 540 L257 540 Z M30 540 C83 540 118 573 118 629 C118 685 83 717 27 717 C-24 717 -59 684 -59 629 C-59 572 -24 540 30 540 L30 540 Z " />
<glyph glyph-name="eth" unicode="&#xf0;" horiz-adv-x="622" d="M403 287 C403 254 403 228 403 236 C403 174 364 133 303 133 C245 133 205 178 205 238 C205 298 245 343 307 343 C349 343 386 318 403 287 L403 287 Z M303 547 C354 505 387 454 404 398 C376 439 325 472 256 472 C118 472 23 373 23 234 C23 76 134 -14 301 -14 C478 -14 599 111 599 308 C599 433 549 549 472 629 L509 647 C551 668 567 704 546 730 L542 735 C522 761 497 780 456 760 L357 711 C319 728 277 737 235 737 C110 737 85 641 95 639 C122 633 146 626 169 618 L168 618 C125 597 119 569 131 535 L133 530 C145 495 180 485 221 505 L303 547 Z " />
<glyph glyph-name="ntilde" unicode="&#xf1;" horiz-adv-x="606" d="M228 415 C210 482 162 501 118 501 C79 501 44 486 44 479 L44 88 C44 17 80 -5 131 -5 L151 -5 C200 -5 236 18 236 88 L236 310 C251 333 277 350 311 350 C351 350 375 322 375 277 L375 88 C375 17 411 -5 463 -5 L482 -5 C532 -5 567 19 567 88 L567 310 C567 413 520 506 391 506 C311 506 263 468 228 415 L228 415 Z M189 542 C221 542 243 568 254 602 C296 560 339 540 388 540 C442 540 491 582 491 651 C491 685 466 714 429 714 C398 714 376 688 364 655 C323 696 279 716 230 716 C177 716 128 674 128 605 C128 571 152 542 189 542 L189 542 Z " />
<glyph glyph-name="ograve" unicode="&#xf2;" horiz-adv-x="586" d="M292 -14 C456 -14 564 88 564 246 C564 402 457 506 295 506 C131 506 22 402 22 247 C22 88 127 -14 292 -14 L292 -14 Z M293 133 C229 133 185 180 185 247 C185 313 230 360 293 360 C356 360 401 313 401 246 C401 181 355 133 293 133 L293 133 Z M179 577 C265 529 361 550 371 567 C380 584 329 689 262 728 C245 738 226 744 209 744 C160 744 122 712 122 670 C122 635 144 597 179 577 L179 577 Z " />
<glyph glyph-name="oacute" unicode="&#xf3;" horiz-adv-x="586" d="M292 -14 C456 -14 564 88 564 246 C564 402 457 506 295 506 C131 506 22 402 22 247 C22 88 127 -14 292 -14 L292 -14 Z M293 133 C229 133 185 180 185 247 C185 313 230 360 293 360 C356 360 401 313 401 246 C401 181 355 133 293 133 L293 133 Z M216 567 C225 550 321 529 407 577 C443 597 464 635 464 670 C464 712 426 744 378 744 C360 744 342 738 324 728 C257 689 207 584 216 567 L216 567 Z " />
<glyph glyph-name="ocircumflex" unicode="&#xf4;" horiz-adv-x="586" d="M292 -14 C456 -14 564 88 564 246 C564 402 457 506 295 506 C131 506 22 402 22 247 C22 88 127 -14 292 -14 L292 -14 Z M293 133 C229 133 185 180 185 247 C185 313 230 360 293 360 C356 360 401 313 401 246 C401 181 355 133 293 133 L293 133 Z M294 634 C268 576 231 541 190 541 C153 541 128 566 128 599 C128 668 232 738 294 754 C356 738 459 668 459 599 C459 566 435 541 398 541 C357 541 319 576 294 634 L294 634 Z " />
<glyph glyph-name="otilde" unicode="&#xf5;" horiz-adv-x="586" d="M292 -14 C456 -14 564 88 564 246 C564 402 457 506 295 506 C131 506 22 402 22 247 C22 88 127 -14 292 -14 L292 -14 Z M293 133 C229 133 185 180 185 247 C185 313 230 360 293 360 C356 360 401 313 401 246 C401 181 355 133 293 133 L293 133 Z M174 542 C206 542 228 568 239 602 C281 560 324 540 373 540 C427 540 476 582 476 651 C476 685 451 714 414 714 C383 714 361 688 349 655 C308 696 264 716 215 716 C162 716 113 674 113 605 C113 571 137 542 174 542 L174 542 Z " />
<glyph glyph-name="odieresis" unicode="&#xf6;" horiz-adv-x="586" d="M292 -14 C456 -14 564 88 564 246 C564 402 457 506 295 506 C131 506 22 402 22 247 C22 88 127 -14 292 -14 L292 -14 Z M293 133 C229 133 185 180 185 247 C185 313 230 360 293 360 C356 360 401 313 401 246 C401 181 355 133 293 133 L293 133 Z M409 540 C460 540 495 573 495 629 C495 685 460 717 406 717 C353 717 318 684 318 629 C318 572 353 540 409 540 L409 540 Z M182 540 C235 540 270 573 270 629 C270 685 235 717 179 717 C128 717 93 684 93 629 C93 572 128 540 182 540 L182 540 Z " />
<glyph glyph-name="oslash" unicode="&#xf8;" horiz-adv-x="586" d="M82 -73 L162 16 C199 -4 243 -14 292 -14 C453 -14 564 98 564 247 C564 307 546 361 513 404 L568 466 C584 484 590 499 590 513 C590 555 521 576 514 568 L429 474 C391 494 346 506 296 506 C136 506 24 393 24 246 C24 183 43 128 77 84 L28 30 C11 12 5 -3 5 -16 C5 -59 75 -80 82 -73 L82 -73 Z M191 193 C184 209 180 226 180 246 C180 316 227 367 294 367 C310 367 325 362 339 355 C339 355 192 193 191 193 L191 193 Z M294 127 C279 127 264 131 252 138 C252 138 397 297 396 297 C404 282 408 265 408 246 C408 178 360 127 294 127 L294 127 Z " />
<glyph glyph-name="ugrave" unicode="&#xf9;" horiz-adv-x="606" d="M378 79 C396 13 445 -5 488 -5 C527 -5 562 11 562 17 L562 408 C562 480 526 501 475 501 L455 501 C405 501 370 478 370 408 L370 182 C355 159 328 143 296 143 C255 143 231 171 231 216 L231 408 C231 480 195 501 143 501 L124 501 C74 501 39 478 39 408 L39 182 C39 80 86 -14 215 -14 C295 -14 343 26 378 79 L378 79 Z M188 577 C274 529 370 550 380 567 C389 584 338 689 271 728 C254 738 235 744 218 744 C169 744 131 712 131 670 C131 635 153 597 188 577 L188 577 Z " />
<glyph glyph-name="uacute" unicode="&#xfa;" horiz-adv-x="606" d="M378 79 C396 13 445 -5 488 -5 C527 -5 562 11 562 17 L562 408 C562 480 526 501 475 501 L455 501 C405 501 370 478 370 408 L370 182 C355 159 328 143 296 143 C255 143 231 171 231 216 L231 408 C231 480 195 501 143 501 L124 501 C74 501 39 478 39 408 L39 182 C39 80 86 -14 215 -14 C295 -14 343 26 378 79 L378 79 Z M227 567 C236 550 332 529 418 577 C454 597 475 635 475 670 C475 712 437 744 389 744 C371 744 353 738 335 728 C268 689 218 584 227 567 L227 567 Z " />
<glyph glyph-name="ucircumflex" unicode="&#xfb;" horiz-adv-x="606" d="M378 79 C396 13 445 -5 488 -5 C527 -5 562 11 562 17 L562 408 C562 480 526 501 475 501 L455 501 C405 501 370 478 370 408 L370 182 C355 159 328 143 296 143 C255 143 231 171 231 216 L231 408 C231 480 195 501 143 501 L124 501 C74 501 39 478 39 408 L39 182 C39 80 86 -14 215 -14 C295 -14 343 26 378 79 L378 79 Z M303 634 C277 576 240 541 199 541 C162 541 137 566 137 599 C137 668 241 738 303 754 C365 738 468 668 468 599 C468 566 444 541 407 541 C366 541 328 576 303 634 L303 634 Z " />
<glyph glyph-name="udieresis" unicode="&#xfc;" horiz-adv-x="606" d="M378 79 C396 13 445 -5 488 -5 C527 -5 562 11 562 17 L562 408 C562 480 526 501 475 501 L455 501 C405 501 370 478 370 408 L370 182 C355 159 328 143 296 143 C255 143 231 171 231 216 L231 408 C231 480 195 501 143 501 L124 501 C74 501 39 478 39 408 L39 182 C39 80 86 -14 215 -14 C295 -14 343 26 378 79 L378 79 Z M419 540 C470 540 505 573 505 629 C505 685 470 717 416 717 C363 717 328 684 328 629 C328 572 363 540 419 540 L419 540 Z M192 540 C245 540 280 573 280 629 C280 685 245 717 189 717 C138 717 103 684 103 629 C103 572 138 540 192 540 L192 540 Z " />
<glyph glyph-name="yacute" unicode="&#xfd;" horiz-adv-x="570" d="M243 -188 C284 -188 320 -167 345 -103 L563 447 C567 458 513 503 458 503 C420 503 380 482 360 415 L290 199 L215 415 C195 483 155 503 115 503 C59 502 3 457 7 447 L172 72 C181 52 199 41 221 36 L140 -135 C135 -145 187 -188 243 -188 L243 -188 Z M210 564 C219 547 315 526 401 574 C437 594 458 632 458 667 C458 709 420 741 372 741 C354 741 336 735 318 725 C251 686 201 581 210 564 L210 564 Z " />
<glyph glyph-name="thorn" unicode="&#xfe;" horiz-adv-x="632" d="M236 301 C253 335 285 357 328 357 C387 357 425 314 425 246 C425 179 386 135 327 135 C279 135 242 162 236 208 L236 301 Z M236 51 C268 13 321 -14 380 -14 C518 -14 607 86 607 245 C607 404 517 506 381 506 C323 506 272 477 236 430 L236 558 C236 675 173 704 118 704 C79 704 44 689 44 682 L44 -101 C44 -172 80 -193 131 -193 L151 -193 C200 -193 236 -170 236 -101 C236 -101 236 52 236 51 L236 51 Z " />
<glyph glyph-name="ydieresis" unicode="&#xff;" horiz-adv-x="570" d="M243 -188 C284 -188 320 -167 345 -103 L563 447 C567 458 513 503 458 503 C420 503 380 482 360 415 L290 199 L215 415 C195 483 155 503 115 503 C59 502 3 457 7 447 L172 72 C181 52 199 41 221 36 L140 -135 C135 -145 187 -188 243 -188 L243 -188 Z M404 540 C455 540 490 573 490 629 C490 685 455 717 401 717 C348 717 313 684 313 629 C313 572 348 540 404 540 L404 540 Z M177 540 C230 540 265 573 265 629 C265 685 230 717 174 717 C123 717 88 684 88 629 C88 572 123 540 177 540 L177 540 Z " />
<glyph glyph-name="dotlessi" unicode="&#x131;" horiz-adv-x="286" d="M135 -5 L155 -5 C204 -5 239 19 239 88 L239 408 C239 480 205 501 153 501 L133 501 C84 501 47 478 47 408 L47 88 C47 17 83 -5 135 -5 L135 -5 Z " />
<glyph glyph-name="Lslash" unicode="&#x141;" horiz-adv-x="585" d="M285 257 L351 277 C433 302 449 332 449 372 C449 412 424 450 414 447 L285 408 L285 559 C285 621 255 652 197 652 L169 652 C114 652 84 621 84 559 L84 346 C16 321 6 294 6 257 C6 217 33 179 41 182 L84 195 L84 110 C84 37 121 0 187 0 L479 0 C541 0 572 30 572 87 L572 91 C572 146 541 174 479 174 L285 174 L285 257 Z " />
<glyph glyph-name="lslash" unicode="&#x142;" horiz-adv-x="371" d="M88 348 C16 323 5 296 5 259 C5 219 32 181 41 183 L88 197 L88 84 C88 13 124 -9 176 -9 L196 -9 C245 -9 280 15 280 84 L280 256 C352 281 367 310 367 348 C367 387 341 426 332 423 L280 407 L280 558 C280 675 217 704 162 704 C123 704 88 689 88 682 L88 348 Z " />
<glyph glyph-name="OE" unicode="&#x152;" horiz-adv-x="1029" d="M366 -14 C404 -14 439 -10 472 0 L910 0 C974 0 1003 33 1003 88 L1003 93 C1003 145 974 172 910 172 L666 172 C684 191 696 217 698 247 L824 247 C889 247 916 276 916 328 L916 332 C916 381 889 409 824 409 L697 409 C695 436 683 458 667 474 C668 474 906 474 906 474 C969 474 999 502 999 557 L999 563 C999 615 969 647 906 647 L472 647 C439 657 404 661 367 661 C168 661 25 520 25 324 C25 126 167 -14 366 -14 L366 -14 Z M367 165 C280 165 223 228 223 324 C223 422 279 484 366 484 C453 484 510 419 510 324 C510 228 453 165 367 165 L367 165 Z " />
<glyph glyph-name="oe" unicode="&#x153;" horiz-adv-x="942" d="M568 296 C574 345 613 381 663 381 C716 381 748 347 750 296 L568 296 Z M293 133 C229 133 185 180 185 247 C185 313 230 360 293 360 C356 360 401 313 401 246 C401 181 355 133 293 133 L293 133 Z M475 60 C519 11 587 -14 677 -14 C817 -14 894 36 894 102 C894 175 806 184 806 182 C787 148 745 119 685 119 C625 119 583 145 571 197 L884 197 C913 197 922 218 923 247 L923 259 C923 402 816 506 665 506 C587 506 522 479 478 429 C436 478 372 506 295 506 C131 506 22 402 22 247 C22 88 127 -14 292 -14 C369 -14 432 13 475 60 L475 60 Z " />
<glyph glyph-name="Scaron" unicode="&#x160;" horiz-adv-x="588" d="M277 -14 C472 -14 569 65 569 206 C569 325 472 380 345 408 C277 423 225 420 225 457 C225 490 254 508 312 508 C373 508 440 478 483 438 C487 434 554 482 554 538 C554 602 480 661 310 661 C132 661 34 578 34 446 C34 311 143 266 251 244 C315 230 367 230 367 190 C367 157 338 139 277 139 C208 139 127 176 85 214 C79 219 19 167 19 119 C19 51 87 -14 277 -14 L277 -14 Z M305 805 C330 863 369 898 409 898 C446 898 470 873 470 840 C470 770 367 701 305 683 C243 701 140 770 140 840 C140 873 164 898 201 898 C241 898 280 863 305 805 L305 805 Z " />
<glyph glyph-name="scaron" unicode="&#x161;" horiz-adv-x="492" d="M235 -10 C382 -10 468 52 468 157 C468 275 349 300 286 314 C235 326 200 326 200 349 C200 370 222 376 259 376 C311 376 367 351 403 315 C407 312 456 347 456 392 C456 462 387 505 244 505 C111 505 25 439 25 337 C25 216 139 193 201 179 C249 169 281 167 281 143 C281 123 260 118 220 118 C153 118 96 144 61 176 C58 179 13 144 13 102 C13 32 81 -10 235 -10 L235 -10 Z M242 650 C267 708 306 743 346 743 C383 743 407 718 407 685 C407 615 304 546 242 528 C180 546 77 615 77 685 C77 718 101 743 138 743 C178 743 217 708 242 650 L242 650 Z " />
<glyph glyph-name="Ydieresis" unicode="&#x178;" horiz-adv-x="639" d="M421 253 L643 575 C649 583 611 651 519 651 C486 651 454 632 424 580 L321 410 L221 581 C194 630 161 650 127 650 C25 650 -10 585 -4 575 C-4 575 220 255 220 254 L220 88 C220 27 250 -5 305 -5 L334 -5 C391 -5 421 27 421 88 L421 253 Z M434 695 C485 695 520 728 520 784 C520 840 485 872 431 872 C378 872 343 839 343 784 C343 727 378 695 434 695 L434 695 Z M207 695 C260 695 295 728 295 784 C295 840 260 872 204 872 C153 872 118 839 118 784 C118 727 153 695 207 695 L207 695 Z " />
<glyph glyph-name="Zcaron" unicode="&#x17d;" horiz-adv-x="621" d="M132 0 L508 0 C567 0 597 24 597 79 L597 87 C597 144 567 166 508 166 L287 166 L538 445 C570 479 591 501 591 559 L591 569 C591 608 562 647 489 647 L127 647 C69 647 38 623 38 568 L38 560 C38 503 69 481 127 481 L329 481 L83 203 C51 167 31 146 31 88 L31 79 C31 40 59 0 132 0 L132 0 Z M301 805 C326 863 365 898 405 898 C442 898 466 873 466 840 C466 770 363 701 301 683 C239 701 136 770 136 840 C136 873 160 898 197 898 C237 898 276 863 301 805 L301 805 Z " />
<glyph glyph-name="zcaron" unicode="&#x17e;" horiz-adv-x="508" d="M91 1 L415 1 C463 1 487 25 487 69 L487 77 C487 123 463 145 415 145 L257 145 L442 343 C467 369 477 380 477 425 L477 432 C477 463 455 496 407 496 L101 496 C53 496 28 471 28 427 L28 419 C28 373 53 352 101 352 L236 352 L57 154 C33 129 23 117 23 72 C23 87 23 79 23 64 C23 33 43 1 91 1 L91 1 Z M247 650 C272 708 311 743 351 743 C388 743 412 718 412 685 C412 615 309 546 247 528 C185 546 82 615 82 685 C82 718 106 743 143 743 C183 743 222 708 247 650 L247 650 Z " />
<glyph glyph-name="florin" unicode="&#x192;" horiz-adv-x="496" d="M108 276 L61 11 C60 4 93 -19 145 -19 C189 -19 252 2 272 114 L301 276 L355 276 C407 276 433 298 433 341 L433 351 C433 397 407 420 355 420 L320 420 L326 453 C333 491 347 504 378 504 C405 504 426 490 438 475 C439 472 490 505 490 559 C490 623 438 658 335 658 C240 658 167 613 143 475 L133 420 L102 420 C51 420 25 398 25 355 L25 345 C25 299 51 276 102 276 L108 276 Z " />
<glyph glyph-name="circumflex" unicode="&#x2c6;" horiz-adv-x="500" d="M250 634 C224 576 187 541 146 541 C109 541 84 566 84 599 C84 668 188 738 250 754 C312 738 415 668 415 599 C415 566 391 541 354 541 C313 541 275 576 250 634 L250 634 Z " />
<glyph glyph-name="caron" unicode="&#x2c7;" horiz-adv-x="500" d="M250 650 C275 708 314 743 354 743 C391 743 415 718 415 685 C415 615 312 546 250 528 C188 546 85 615 85 685 C85 718 109 743 146 743 C186 743 225 708 250 650 L250 650 Z " />
<glyph glyph-name="breve" unicode="&#x2d8;" horiz-adv-x="500" d="M250 540 C339 540 433 602 433 670 C433 703 407 731 368 731 C331 731 280 692 250 639 C220 692 169 731 132 731 C93 731 67 703 67 670 C67 603 160 540 250 540 L250 540 Z " />
<glyph glyph-name="dotaccent" unicode="&#x2d9;" horiz-adv-x="500" d="M249 541 C309 541 346 579 346 632 C346 684 309 723 251 723 C192 723 154 684 154 632 C154 579 190 541 249 541 L249 541 Z " />
<glyph glyph-name="ring" unicode="&#x2da;" horiz-adv-x="500" d="M249 540 C328 540 381 594 381 667 C381 738 329 793 251 793 C172 793 119 738 119 667 C119 594 170 540 249 540 L249 540 Z M250 619 C224 619 204 639 204 667 C204 694 224 715 250 715 C276 715 296 694 296 667 C296 640 276 619 250 619 L250 619 Z " />
<glyph glyph-name="ogonek" unicode="&#x2db;" horiz-adv-x="500" d="M282 -207 L303 -207 C351 -207 379 -190 379 -159 C379 -155 379 -149 379 -153 C379 -128 360 -113 333 -88 L242 0 L136 0 L196 -154 C209 -190 221 -207 282 -207 L282 -207 Z " />
<glyph glyph-name="tilde" unicode="&#x2dc;" horiz-adv-x="499" d="M129 542 C161 542 183 568 194 602 C236 560 279 540 328 540 C382 540 431 582 431 651 C431 685 406 714 369 714 C338 714 316 688 304 655 C263 696 219 716 170 716 C117 716 68 674 68 605 C68 571 92 542 129 542 L129 542 Z " />
<glyph glyph-name="hungarumlaut" unicode="&#x2dd;" horiz-adv-x="500" d="M282 567 C292 550 387 529 473 577 C509 597 530 635 530 670 C530 712 492 744 444 744 C426 744 408 738 390 728 C323 689 273 584 282 567 L282 567 Z M35 567 C44 550 140 529 226 577 C261 597 283 635 283 670 C283 712 245 744 197 744 C179 744 161 738 143 728 C76 689 25 584 35 567 L35 567 Z " />
<glyph glyph-name="pi" unicode="&#x3c0;" horiz-adv-x="739" d="M370 -14 C569 -14 706 128 706 324 C706 521 569 661 370 661 C171 661 33 519 33 324 C33 126 169 -14 370 -14 L370 -14 Z M370 53 C211 53 103 167 103 324 C103 481 210 594 369 594 C527 594 636 480 636 324 C636 166 529 53 370 53 L370 53 Z M342 317 L342 405 L377 405 C410 405 428 388 428 361 C428 333 411 317 381 317 L342 317 Z M343 232 L386 232 C486 232 539 276 539 361 C539 447 484 491 380 491 L286 491 C247 491 226 468 226 426 L226 187 C226 152 244 134 275 134 L292 134 C325 134 343 153 343 187 L343 232 Z " />
<glyph glyph-name="endash" unicode="&#x2013;" horiz-adv-x="576" d="M106 166 L463 166 C514 166 539 201 539 239 L539 255 C539 291 514 327 463 327 L106 327 C55 327 30 291 30 255 L30 239 C30 201 55 166 106 166 L106 166 Z " />
<glyph glyph-name="emdash" unicode="&#x2014;" horiz-adv-x="738" d="M106 166 L632 166 C684 166 708 201 708 239 L708 255 C708 291 684 327 632 327 L106 327 C55 327 30 291 30 255 L30 239 C30 201 55 166 106 166 L106 166 Z " />
<glyph glyph-name="quoteleft" unicode="&#x2018;" horiz-adv-x="256" d="M95 373 L117 373 C178 373 190 398 202 451 L238 597 C249 651 175 677 139 641 L64 552 C34 519 21 492 21 459 L21 451 C21 397 48 373 95 373 L95 373 Z " />
<glyph glyph-name="quoteright" unicode="&#x2019;" horiz-adv-x="256" d="M116 390 L192 479 C221 509 235 538 235 572 L235 579 C235 634 208 658 161 658 L140 658 C79 658 65 632 54 579 L19 433 C8 380 81 354 116 390 L116 390 Z " />
<glyph glyph-name="quotesinglbase" unicode="&#x201a;" horiz-adv-x="256" d="M114 -96 L190 -7 C219 23 233 52 233 86 L233 93 C233 148 206 172 159 172 L138 172 C77 172 63 146 52 93 L17 -53 C6 -106 79 -132 114 -96 L114 -96 Z " />
<glyph glyph-name="quotedblleft" unicode="&#x201c;" horiz-adv-x="489" d="M328 373 L349 373 C410 373 424 398 435 451 L470 597 C480 650 408 677 373 641 L297 552 C268 522 254 493 254 459 L254 451 C254 397 281 373 328 373 L328 373 Z M95 373 L117 373 C178 373 190 398 202 451 L238 597 C249 650 175 677 139 641 L64 552 C35 521 21 493 21 459 L21 451 C21 397 48 373 95 373 L95 373 Z " />
<glyph glyph-name="quotedblright" unicode="&#x201d;" horiz-adv-x="489" d="M349 390 L425 479 C453 510 468 538 468 572 L468 579 C468 634 441 658 394 658 L372 658 C311 658 299 632 287 579 L251 433 C239 380 314 353 349 390 L349 390 Z M116 390 L192 479 C221 509 235 538 235 572 L235 579 C235 634 208 658 161 658 L140 658 C79 658 65 632 53 579 L19 433 C8 380 81 354 116 390 L116 390 Z " />
<glyph glyph-name="quotedblbase" unicode="&#x201e;" horiz-adv-x="489" d="M347 -96 L423 -7 C451 24 466 52 466 86 L466 93 C466 148 439 172 392 172 L370 172 C309 172 297 146 285 93 L249 -53 C237 -106 312 -133 347 -96 L347 -96 Z M114 -96 L190 -7 C219 23 233 52 233 86 L233 93 C233 148 206 172 159 172 L138 172 C77 172 63 146 51 93 L17 -53 C6 -106 79 -132 114 -96 L114 -96 Z " />
<glyph glyph-name="dagger" unicode="&#x2020;" horiz-adv-x="540" d="M219 450 L89 486 C36 501 17 463 17 398 C17 339 41 294 89 308 L222 344 C188 309 182 273 184 218 L198 -110 C201 -153 223 -155 252 -155 L289 -155 C318 -155 340 -153 343 -110 L357 218 C359 273 353 309 319 344 L451 308 C499 294 523 339 523 398 C523 454 498 500 451 486 L322 451 L354 589 C367 638 341 661 270 661 C201 661 174 638 186 589 L219 450 Z " />
<glyph glyph-name="daggerdbl" unicode="&#x2021;" horiz-adv-x="540" d="M219 466 L89 501 C36 516 17 478 17 413 C17 354 41 309 89 323 C89 323 223 360 223 359 C189 324 182 289 184 233 L187 166 L89 193 C41 207 17 162 17 103 C17 38 36 0 89 15 L192 43 L198 -110 C201 -153 223 -155 252 -155 L289 -155 C318 -155 340 -153 343 -110 L349 43 L451 15 C498 1 523 47 523 103 C523 162 499 207 451 193 L354 166 L357 233 C359 288 353 324 318 359 L451 323 C499 309 523 354 523 413 C523 469 498 515 451 501 L322 466 L354 589 C367 638 341 661 270 661 C201 661 174 638 186 589 L219 466 Z " />
<glyph glyph-name="bullet" unicode="&#x2022;" horiz-adv-x="363" d="M182 101 C262 101 327 166 327 247 C327 331 264 396 182 396 C99 396 36 331 36 247 C36 163 98 101 182 101 L182 101 Z " />
<glyph glyph-name="ellipsis" unicode="&#x2026;" horiz-adv-x="776" d="M633 -8 L656 -8 C713 -8 739 18 739 73 L739 89 C739 144 714 170 656 170 L633 170 C578 170 552 144 552 89 L552 73 C552 18 579 -8 633 -8 L633 -8 Z M375 -8 L398 -8 C454 -8 481 18 481 73 L481 89 C481 144 455 170 398 170 L375 170 C320 170 293 144 293 89 L293 73 C293 18 321 -8 375 -8 L375 -8 Z M116 -8 L139 -8 C196 -8 222 18 222 73 L222 89 C222 144 197 170 139 170 L116 170 C61 170 35 144 35 89 L35 73 C35 18 62 -8 116 -8 L116 -8 Z " />
<glyph glyph-name="perthousand" unicode="&#x2030;" horiz-adv-x="1124" d="M180 335 C285 335 353 396 353 493 L353 500 C353 597 285 657 180 657 C75 657 5 596 5 499 L5 492 C5 395 74 335 180 335 L180 335 Z M148 -13 L653 546 C670 565 677 581 677 595 C677 639 600 666 593 658 L88 99 C71 79 64 65 64 50 C64 7 142 -21 148 -13 L148 -13 Z M945 -12 C1050 -12 1118 48 1118 145 L1118 152 C1118 250 1050 310 945 310 C840 310 770 249 770 152 L770 145 C770 48 839 -12 945 -12 L945 -12 Z M564 -12 C669 -12 737 48 737 145 L737 152 C737 250 669 310 564 310 C458 310 389 249 389 152 L389 145 C389 48 458 -12 564 -12 L564 -12 Z M180 430 C151 430 130 449 130 488 L130 504 C130 545 150 563 180 563 C208 563 230 544 230 504 L230 488 C230 448 208 430 180 430 L180 430 Z M945 83 C916 83 895 101 895 141 L895 156 C895 197 915 216 945 216 C973 216 995 196 995 156 L995 141 C995 101 973 83 945 83 L945 83 Z M564 83 C535 83 514 101 514 141 L514 156 C514 197 534 216 564 216 C592 216 613 196 613 156 L613 141 C613 101 592 83 564 83 L564 83 Z " />
<glyph glyph-name="guilsinglleft" unicode="&#x2039;" horiz-adv-x="323" d="M173 247 C217 223 296 175 296 128 L296 123 C296 84 272 55 226 55 L223 55 C139 55 25 227 25 247 C25 267 139 439 223 439 L226 439 C272 439 296 410 296 370 L296 366 C296 319 217 269 173 247 L173 247 Z " />
<glyph glyph-name="guilsinglright" unicode="&#x203a;" horiz-adv-x="323" d="M150 247 C105 223 27 175 27 128 L27 123 C27 84 50 55 97 55 L99 55 C183 55 297 227 297 247 C297 267 183 439 99 439 L97 439 C50 439 27 410 27 370 L27 366 C27 319 105 269 150 247 L150 247 Z " />
<glyph glyph-name="fraction" unicode="&#x2044;" horiz-adv-x="723" d="M144 -10 L639 557 C655 576 661 591 661 604 C661 651 580 671 568 658 L73 92 C56 73 51 59 51 44 C51 -2 132 -22 144 -10 L144 -10 Z " />
<glyph glyph-name="Euro" unicode="&#x20ac;" horiz-adv-x="634" d="M94 338 L94 308 L78 308 C35 308 15 286 15 261 L15 247 C15 222 35 199 78 199 L104 199 C136 63 244 -14 394 -14 C554 -14 617 60 617 123 C617 188 533 221 527 215 C492 171 461 148 397 148 C353 148 318 165 298 199 L415 199 C459 199 478 222 478 247 L478 261 C478 286 459 308 415 308 L280 308 L280 338 L415 338 C459 338 478 360 478 386 L478 400 C478 424 459 447 415 447 L297 447 C317 482 352 498 396 498 C459 498 490 477 526 434 C532 428 616 461 616 525 C616 604 532 661 392 661 C244 661 136 582 104 447 L78 447 C35 447 15 424 15 400 L15 386 C15 360 35 338 78 338 L94 338 Z " />
<glyph glyph-name="trademark" unicode="&#x2122;" horiz-adv-x="700" d="M375 324 L393 324 C423 324 433 341 433 373 L433 494 L462 409 C466 396 464 388 503 388 C542 388 543 397 546 409 L574 498 L574 373 C574 341 586 324 615 324 L632 324 C662 324 673 341 673 373 L673 602 C673 635 660 652 630 652 L598 652 C575 652 564 647 555 625 L504 504 L453 625 C444 645 435 652 408 652 L376 652 C346 652 334 635 334 602 L334 373 C334 341 346 324 375 324 L375 324 Z M105 556 L105 373 C105 341 120 324 148 324 L163 324 C194 324 210 341 210 373 L210 556 L257 556 C290 556 306 572 306 602 L306 603 C306 633 290 647 257 647 L56 647 C24 647 7 633 7 603 L7 602 C7 572 24 556 56 556 L105 556 Z " />
<glyph glyph-name="Omega" unicode="&#x2126;" horiz-adv-x="606" d="M370 106 L370 57 C370 -12 332 -40 261 -40 C181 -40 151 -15 114 26 C109 31 46 -2 46 -56 C46 -127 118 -195 276 -195 C472 -195 562 -111 562 61 L562 479 C562 486 527 501 488 501 C433 501 370 472 370 355 L370 217 C354 194 327 178 296 178 C253 178 231 207 231 252 L231 408 C231 480 195 501 143 501 L124 501 C74 501 39 478 39 408 L39 221 C39 118 86 25 215 25 C289 25 336 59 370 106 L370 106 Z " />
<glyph glyph-name="partialdiff" unicode="&#x2202;" horiz-adv-x="629" d="M394 254 C394 204 354 172 300 172 C242 172 204 209 204 266 C204 321 243 360 302 360 C342 360 375 342 394 314 L394 254 Z M407 434 C378 477 319 506 248 506 C113 506 22 409 22 268 C22 117 108 28 244 28 C308 28 359 56 393 102 L393 59 C393 -9 356 -41 279 -41 C203 -41 159 -15 127 26 C122 31 57 -1 57 -56 C57 -128 133 -195 293 -195 C493 -195 585 -113 585 66 L585 479 C585 486 550 501 511 501 C471 501 428 486 407 434 L407 434 Z " />
<glyph glyph-name="Delta" unicode="&#x2206;" horiz-adv-x="563" d="M189 296 C195 345 234 381 284 381 C337 381 369 347 371 296 L189 296 Z M192 197 L505 197 C534 197 543 218 544 247 L544 259 C544 402 438 506 286 506 C132 506 22 394 22 242 C22 82 128 -14 298 -14 C438 -14 515 36 515 102 C515 175 427 184 427 182 C408 148 366 119 307 119 C246 119 204 145 192 197 L192 197 Z " />
<glyph glyph-name="product" unicode="&#x220f;" horiz-adv-x="678" d="M444 98 C458 16 512 -5 559 -5 C598 -5 633 11 633 17 L633 563 C633 625 603 656 545 656 L516 656 C461 656 432 625 432 563 L432 201 C412 173 375 150 332 150 C270 150 243 180 243 252 C243 245 243 563 243 563 C243 624 214 656 155 656 L131 656 C74 656 42 623 42 563 L42 243 C42 68 110 -10 263 -10 C346 -10 410 33 444 98 L444 98 Z " />
<glyph glyph-name="summation" unicode="&#x2211;" horiz-adv-x="628" d="M334 282 C290 282 238 282 199 282 L374 607 C379 616 331 659 275 659 C236 659 195 640 165 576 L48 348 C24 300 14 280 14 248 L14 223 C14 175 52 141 120 141 L334 141 L334 84 C334 23 355 -9 410 -9 L427 -9 C484 -9 508 23 508 84 L508 141 L532 141 C594 141 617 160 617 213 L617 218 C617 267 594 286 532 286 L508 286 L508 361 C508 421 487 453 431 453 L414 453 C358 453 334 421 334 361 L334 282 Z " />
<glyph glyph-name="radical" unicode="&#x221a;" horiz-adv-x="728" d="M364 343 C383 418 429 495 534 495 L542 495 C639 495 707 424 707 324 L707 318 C707 150 484 81 364 -10 C244 81 21 150 21 318 L21 324 C21 424 88 495 185 495 L193 495 C298 495 344 418 364 343 L364 343 Z " />
<glyph glyph-name="infinity" unicode="&#x221e;" horiz-adv-x="513" d="M158 475 L158 172 L118 172 C58 172 26 143 26 86 L26 82 C26 27 58 0 118 0 L395 0 C457 0 488 27 488 82 L488 86 C488 143 457 172 395 172 L359 172 L359 475 L395 475 C457 475 488 504 488 561 L488 565 C488 620 457 647 395 647 L118 647 C58 647 26 620 26 565 L26 561 C26 504 58 475 118 475 L158 475 Z " />
<glyph glyph-name="integral" unicode="&#x222b;" horiz-adv-x="649" d="M225 228 L225 84 C225 23 253 -9 308 -9 L337 -9 C394 -9 426 23 426 84 L426 229 C553 259 617 352 617 513 L617 563 C617 625 587 656 530 656 L505 656 C449 656 416 625 416 563 L416 506 C416 422 388 383 325 383 C263 383 233 424 233 506 L233 563 C233 625 202 656 145 656 L120 656 C65 656 32 625 32 563 L32 512 C32 351 96 258 225 228 L225 228 Z " />
<glyph glyph-name="lessequal" unicode="&#x2264;" horiz-adv-x="286" d="M145 552 C207 552 246 587 246 643 C246 699 206 733 142 733 C80 733 41 698 41 643 C41 587 81 552 145 552 L145 552 Z M135 -193 L155 -193 C204 -193 239 -170 239 -101 L239 408 C239 480 205 501 153 501 L133 501 C84 501 47 478 47 408 L47 -101 C47 -172 83 -193 135 -193 L135 -193 Z " />
<glyph glyph-name="fi" unicode="&#xfb01;" horiz-adv-x="702" d="M550 -5 L570 -5 C619 -5 655 19 655 88 L655 408 C655 480 620 501 569 501 L549 501 C500 501 463 478 463 408 L463 88 C463 17 499 -5 550 -5 L550 -5 Z M101 351 L101 88 C101 19 138 -5 187 -5 L207 -5 C259 -5 293 17 293 88 L293 351 L327 351 C379 351 405 374 405 416 L405 427 C405 472 379 496 327 496 L285 496 L285 512 C285 552 302 567 334 567 C360 567 381 557 395 543 C398 541 432 576 432 618 C432 666 390 709 290 709 C181 709 101 664 101 509 L101 496 L81 496 C29 496 3 473 3 430 L3 420 C3 374 29 351 81 351 L101 351 Z M560 552 C622 552 661 587 661 643 C661 699 622 733 558 733 C496 733 457 698 457 643 C457 587 496 552 560 552 L560 552 Z " />
<glyph glyph-name="fl" unicode="&#xfb02;" horiz-adv-x="702" d="M550 -5 L570 -5 C619 -5 655 19 655 88 L655 558 C655 675 592 704 537 704 C498 704 463 689 463 682 L463 88 C463 17 499 -5 550 -5 L550 -5 Z M101 351 L101 88 C101 19 138 -5 187 -5 L207 -5 C259 -5 293 17 293 88 L293 351 L327 351 C379 351 405 374 405 416 L405 427 C405 472 379 496 327 496 L285 496 L285 512 C285 552 302 567 334 567 C360 567 381 557 395 543 C398 541 432 576 432 618 C432 666 390 709 290 709 C181 709 101 664 101 509 L101 496 L81 496 C29 496 3 473 3 430 L3 420 C3 374 29 351 81 351 L101 351 Z " />
</font>
</svg>
