<?xml version="1.0" encoding="UTF-8"?>
<svg xmlns="http://www.w3.org/2000/svg" xmlns:xlink="http://www.w3.org/1999/xlink" version="1.2" >
<font id="Omnes-Light">
<font-face  font-family="Omnes" units-per-em="1000" ascent="800" descent="-200" font-style="normal" font-weight="300" font-stretch="normal" cap-height="700" x-height="500" underline-position="-123" underline-thickness="20" />
<missing-glyph  horiz-adv-x="500" d="" />
<glyph glyph-name="NULL" d="" />
<glyph glyph-name="CR" unicode="&#xd;" horiz-adv-x="250" d="" />
<glyph glyph-name="space" unicode="&#x20;" horiz-adv-x="176" d="" />
<glyph glyph-name="exclam" unicode="&#x21;" horiz-adv-x="232" d="M113 173 L119 173 C129 173 130 179 131 193 L146 621 C147 643 138 650 125 650 L107 650 C94 650 85 643 86 621 L102 193 C102 179 104 173 113 173 L113 173 Z M112 -5 L120 -5 C142 -5 154 8 154 30 L154 37 C154 59 142 72 120 72 L112 72 C90 72 78 59 78 37 L78 30 C78 8 90 -5 112 -5 L112 -5 Z " />
<glyph glyph-name="quotedbl" unicode="&#x22;" horiz-adv-x="331" d="M229 410 L237 410 C246 410 248 417 249 430 L263 610 C266 641 255 650 233 650 C211 650 200 641 203 610 L216 430 C218 417 220 410 229 410 L229 410 Z M94 410 L101 410 C110 410 113 417 114 430 L128 610 C131 641 120 650 98 650 C76 650 65 641 68 610 L81 430 C83 417 85 410 94 410 L94 410 Z " />
<glyph glyph-name="numbersign" unicode="&#x23;" horiz-adv-x="643" d="M125 -3 C130 -3 134 -2 135 -1 L191 184 L367 184 L328 57 C314 13 329 -3 347 -3 C352 -3 356 -2 357 -1 L413 184 L531 184 C545 184 554 190 554 204 L554 208 C554 221 545 227 531 227 L426 227 L485 420 L605 420 C619 420 628 426 628 440 L628 444 C628 457 619 463 605 463 L498 463 L537 590 C551 634 536 650 517 650 C513 650 509 649 508 648 L451 463 L276 463 L315 590 C329 634 314 650 296 650 C291 650 287 649 286 648 L230 463 L112 463 C97 463 89 457 89 443 L89 439 C89 426 97 420 112 420 L217 420 C217 420 158 227 157 227 L38 227 C23 227 15 221 15 207 L15 203 C15 190 23 184 38 184 L145 184 L106 57 C92 13 107 -3 125 -3 L125 -3 Z M202 226 L262 421 L440 421 L381 226 L202 226 Z " />
<glyph glyph-name="dollar" unicode="&#x24;" horiz-adv-x="535" d="M265 -99 L270 -99 C282 -99 289 -93 289 -76 L289 -9 C408 -3 493 70 493 168 C493 290 390 326 289 350 L289 611 C372 604 426 560 448 512 C450 510 478 521 478 542 C478 556 467 577 450 593 C420 624 365 651 291 656 L291 720 C291 737 284 743 272 743 L267 743 C254 743 247 737 247 720 L247 655 C139 647 57 577 57 483 C57 368 151 333 248 309 L248 37 C149 45 93 98 71 150 C68 152 41 141 41 120 C41 105 50 83 72 60 C106 27 164 -2 245 -8 L245 -76 C245 -93 252 -99 265 -99 L265 -99 Z M250 359 C167 381 107 406 107 483 C107 554 167 605 250 610 L250 359 Z M287 37 L287 299 C371 278 444 251 444 166 C444 93 380 40 287 37 L287 37 Z " />
<glyph glyph-name="percent" unicode="&#x25;" horiz-adv-x="708" d="M184 358 C265 358 328 425 328 504 L328 512 C328 591 266 656 185 656 C104 656 41 590 41 510 L41 503 C41 423 103 358 184 358 L184 358 Z M102 -6 L603 595 C619 613 626 626 626 636 C626 654 605 659 602 657 L101 56 C84 37 79 29 79 15 C79 -2 100 -8 102 -6 L102 -6 Z M523 -5 C604 -5 667 62 667 141 L667 149 C667 228 605 293 523 293 C443 293 380 226 380 147 L380 140 C380 60 441 -5 523 -5 L523 -5 Z M185 397 C127 397 85 443 85 502 L85 512 C85 572 126 618 184 618 C242 618 285 572 285 512 L285 502 C285 443 243 397 185 397 L185 397 Z M524 34 C466 34 423 80 423 139 L423 149 C423 209 465 255 523 255 C581 255 623 208 623 149 L623 139 C623 80 581 34 524 34 L524 34 Z " />
<glyph glyph-name="ampersand" unicode="&#x26;" horiz-adv-x="641" d="M245 -10 C339 -10 419 36 479 109 L583 13 C599 -2 610 -3 620 -3 C644 -3 650 15 647 18 L506 147 C547 209 578 291 595 374 C595 376 586 386 573 386 C558 386 546 377 540 349 C528 291 504 228 473 176 L282 355 C383 382 448 429 448 515 C448 593 386 657 298 657 C204 657 141 590 141 507 C141 453 168 409 203 370 C101 341 26 281 26 177 C26 61 115 -10 245 -10 L245 -10 Z M252 384 C213 421 189 461 189 508 C189 567 228 616 297 616 C361 616 402 569 402 514 C402 441 345 407 252 384 L252 384 Z M248 32 C146 32 78 89 78 179 C78 272 146 316 231 342 L448 139 C399 75 332 32 248 32 L248 32 Z " />
<glyph glyph-name="quotesingle" unicode="&#x27;" horiz-adv-x="196" d="M94 410 L101 410 C110 410 113 417 114 430 L128 610 C131 641 120 650 98 650 C76 650 65 641 68 610 L81 430 C83 417 85 410 94 410 L94 410 Z " />
<glyph glyph-name="parenleft" unicode="&#x28;" horiz-adv-x="351" d="M319 -195 C333 -195 341 -191 341 -178 C341 -171 336 -160 334 -159 C197 -130 107 32 107 229 C107 420 197 585 334 614 C336 615 341 626 341 633 C341 646 333 650 319 650 C287 650 236 630 185 579 C113 507 57 377 57 228 C57 74 110 -51 185 -126 C235 -176 287 -195 319 -195 L319 -195 Z " />
<glyph glyph-name="parenright" unicode="&#x29;" horiz-adv-x="351" d="M32 -195 C64 -195 116 -176 166 -126 C241 -51 294 74 294 228 C294 377 238 507 166 579 C115 630 64 650 32 650 C18 650 10 646 10 633 C10 626 15 615 17 614 C154 585 244 420 244 229 C244 32 154 -130 17 -159 C15 -160 10 -171 10 -178 C10 -191 18 -195 32 -195 L32 -195 Z " />
<glyph glyph-name="asterisk" unicode="&#x2a;" horiz-adv-x="377" d="M90 372 C99 363 109 360 119 374 L190 463 L260 374 C270 360 280 363 290 372 C293 375 295 383 288 394 L224 487 L330 526 C340 530 344 534 344 540 C344 557 335 563 319 559 L210 527 L207 640 C206 656 201 659 190 659 C179 659 173 656 173 640 L170 527 L60 559 C44 563 36 557 36 540 C36 534 39 530 49 526 L156 487 L91 394 C85 383 86 375 90 372 L90 372 Z " />
<glyph glyph-name="plus" unicode="&#x2b;" horiz-adv-x="520" d="M258 38 L262 38 C275 38 283 43 283 61 L283 245 L453 245 C471 245 477 252 477 264 L477 269 C477 281 471 288 453 288 L283 288 L283 460 C283 477 275 483 262 483 L258 483 C245 483 237 477 237 460 L237 288 L67 288 C49 288 43 281 43 269 L43 264 C43 252 49 245 67 245 L237 245 L237 61 C237 43 245 38 258 38 L258 38 Z " />
<glyph glyph-name="comma" unicode="&#x2c;" horiz-adv-x="191" d="M41 -129 L119 13 C129 30 130 41 130 49 L130 52 C130 69 120 78 108 78 L104 78 C86 78 82 69 75 51 L16 -118 C10 -133 37 -137 41 -129 L41 -129 Z " />
<glyph glyph-name="hyphen" unicode="&#x2d;" horiz-adv-x="351" d="M65 226 L286 226 C301 226 309 232 309 245 L309 250 C309 264 301 270 286 270 L65 270 C50 270 42 264 42 250 L42 245 C42 232 50 226 65 226 L65 226 Z " />
<glyph glyph-name="period" unicode="&#x2e;" horiz-adv-x="191" d="M91 -5 L99 -5 C121 -5 134 8 134 30 L134 37 C134 59 121 72 99 72 L91 72 C70 72 57 59 57 37 L57 30 C57 8 70 -5 91 -5 L91 -5 Z " />
<glyph glyph-name="slash" unicode="&#x2f;" horiz-adv-x="317" d="M43 -193 C47 -193 52 -192 52 -191 L292 594 C307 642 289 650 267 650 C263 650 258 649 258 648 L18 -137 C3 -185 21 -193 43 -193 L43 -193 Z " />
<glyph glyph-name="zero" unicode="0" horiz-adv-x="625" d="M311 -10 C467 -10 566 108 566 293 L566 356 C566 540 467 657 312 657 C157 657 59 540 59 354 L59 291 C59 106 156 -10 311 -10 L311 -10 Z M312 33 C187 33 109 133 109 294 L109 354 C109 515 186 615 311 615 C437 615 516 514 516 353 L516 293 C516 132 439 33 312 33 L312 33 Z " />
<glyph glyph-name="one" unicode="1" horiz-adv-x="336" d="M192 -3 L199 -3 C213 -3 221 4 221 20 L221 626 C221 642 213 650 198 650 L177 650 C175 606 139 571 94 571 C67 571 48 581 37 596 C35 597 21 586 21 569 C21 558 25 549 33 541 C46 528 65 521 90 521 C126 521 155 538 171 564 L171 20 C171 4 178 -3 192 -3 L192 -3 Z " />
<glyph glyph-name="two" unicode="2" horiz-adv-x="514" d="M77 0 C73 0 460 0 460 0 C476 0 484 7 484 21 L484 25 C484 38 476 45 460 45 L92 45 L92 62 C92 174 179 223 278 272 C384 323 470 368 470 477 C470 584 394 658 264 658 C186 658 129 628 92 591 C58 558 44 516 44 497 C44 469 77 467 78 471 C98 545 151 612 261 612 C364 612 421 556 421 478 C421 391 340 354 247 307 C142 254 43 196 43 55 L43 32 C43 11 55 0 77 0 L77 0 Z " />
<glyph glyph-name="three" unicode="3" horiz-adv-x="521" d="M243 -10 C387 -10 476 63 476 177 C476 264 421 323 335 345 C409 363 455 413 455 488 C455 592 377 657 244 657 C165 657 102 625 66 589 C48 571 37 550 37 538 C37 517 64 507 66 510 C92 568 159 615 244 615 C345 615 405 564 405 488 C405 411 348 363 250 363 L174 363 C160 363 151 358 151 343 L151 340 C151 329 158 320 175 320 L243 320 C359 320 425 268 425 176 C425 90 355 33 244 33 C143 33 69 86 46 158 C44 160 17 155 17 129 C17 113 29 85 57 57 C91 22 156 -10 243 -10 L243 -10 Z " />
<glyph glyph-name="four" unicode="4" horiz-adv-x="567" d="M394 -3 L401 -3 C415 -3 422 4 422 20 L422 193 L520 193 C535 193 543 200 543 213 L543 217 C543 231 535 238 520 238 L422 238 L422 619 C422 640 412 652 383 652 C361 652 354 644 337 622 L58 275 C45 259 37 248 37 234 L37 219 C37 205 50 193 73 193 C68 193 373 193 373 193 L373 20 C373 8 382 -3 394 -3 L394 -3 Z M82 237 L375 604 L375 237 L82 237 Z " />
<glyph glyph-name="five" unicode="5" horiz-adv-x="523" d="M254 -10 C398 -10 489 69 489 199 C489 319 399 398 266 398 C211 398 157 385 110 359 L110 602 L432 602 C446 602 455 609 455 622 L455 626 C455 640 446 647 432 647 L92 647 C75 647 62 634 62 617 L62 338 C62 318 72 305 95 302 C142 336 198 352 265 352 C370 352 439 291 439 197 C439 97 367 35 256 35 C163 35 94 79 64 141 C61 144 34 135 34 114 C34 99 46 78 65 59 C104 20 171 -10 254 -10 L254 -10 Z " />
<glyph glyph-name="six" unicode="6" horiz-adv-x="573" d="M303 32 C193 32 120 109 110 248 C142 307 220 355 307 355 C417 355 481 297 481 201 L481 196 C481 100 408 32 303 32 L303 32 Z M108 299 L108 358 C108 523 185 615 310 615 C394 615 447 572 475 521 C477 519 502 531 502 548 C502 560 494 580 475 600 C444 630 388 657 310 657 C156 657 59 546 59 355 L59 282 C59 100 151 -10 306 -10 C436 -10 530 79 530 201 L530 205 C530 320 443 397 312 397 C219 397 147 351 108 299 L108 299 Z " />
<glyph glyph-name="seven" unicode="7" horiz-adv-x="503" d="M147 -3 C157 -3 167 1 174 16 L467 584 C476 601 481 612 481 620 L481 625 C481 637 475 647 452 647 C455 647 50 647 50 647 C35 647 27 638 27 624 L27 620 C27 607 35 598 50 598 L424 598 L120 17 C118 14 130 -3 147 -3 L147 -3 Z " />
<glyph glyph-name="eight" unicode="8" horiz-adv-x="566" d="M283 -10 C427 -10 522 66 522 171 C522 249 472 315 373 336 C459 358 501 415 501 485 C501 588 419 657 283 657 C150 657 64 585 64 484 C64 414 106 356 193 336 C95 313 43 247 43 171 C43 63 135 -10 283 -10 L283 -10 Z M283 357 C177 357 114 407 114 483 C114 563 172 615 282 615 C390 615 451 560 451 483 C451 405 390 357 283 357 L283 357 Z M283 32 C163 32 93 91 93 173 C93 257 161 314 283 314 C402 314 472 256 472 173 C472 87 407 32 283 32 L283 32 Z " />
<glyph glyph-name="nine" unicode="9" horiz-adv-x="573" d="M266 282 C157 282 92 340 92 437 L92 443 C92 540 166 615 270 615 C383 615 456 534 465 390 C432 331 355 282 266 282 L266 282 Z M466 339 L466 289 C466 116 394 32 262 32 C175 32 119 76 93 130 C90 132 65 120 65 102 C65 89 73 69 94 47 C126 15 184 -10 262 -10 C423 -10 515 93 515 292 L515 365 C515 554 416 657 268 657 C138 657 44 561 44 439 L44 433 C44 317 130 240 262 240 C356 240 430 287 466 339 L466 339 Z " />
<glyph glyph-name="colon" unicode="&#x3a;" horiz-adv-x="215" d="M103 349 L111 349 C133 349 146 361 146 383 L146 391 C146 412 133 426 111 426 L103 426 C82 426 69 412 69 391 L69 383 C69 361 82 349 103 349 L103 349 Z M103 -5 L111 -5 C133 -5 146 8 146 30 L146 37 C146 59 133 72 111 72 L103 72 C82 72 69 59 69 37 L69 30 C69 8 82 -5 103 -5 L103 -5 Z " />
<glyph glyph-name="semicolon" unicode="&#x3b;" horiz-adv-x="215" d="M103 349 L111 349 C133 349 146 361 146 383 L146 391 C146 412 133 426 111 426 L103 426 C82 426 69 412 69 391 L69 383 C69 361 82 349 103 349 L103 349 Z M53 -129 L131 13 C141 30 142 41 142 49 L142 52 C142 69 132 78 120 78 L116 78 C98 78 94 69 87 51 L28 -118 C22 -133 49 -137 53 -129 L53 -129 Z " />
<glyph glyph-name="less" unicode="&#x3c;" horiz-adv-x="460" d="M389 53 C393 52 405 61 406 76 C407 87 401 99 375 113 L94 266 L375 420 C401 434 407 446 406 457 C405 470 392 480 389 479 L62 298 C52 292 47 287 47 266 C47 245 52 240 62 234 L389 53 Z " />
<glyph glyph-name="equal" unicode="&#x3d;" horiz-adv-x="520" d="M77 349 L443 349 C461 349 466 357 466 369 L466 374 C466 387 461 394 443 394 L77 394 C59 394 54 387 54 374 L54 369 C54 357 59 349 77 349 L77 349 Z M77 128 L443 128 C461 128 466 135 466 148 L466 153 C466 165 461 173 443 173 L77 173 C59 173 54 165 54 153 L54 148 C54 135 59 128 77 128 L77 128 Z " />
<glyph glyph-name="greater" unicode="&#x3e;" horiz-adv-x="460" d="M70 53 L397 234 C408 240 413 245 413 266 C413 287 408 292 397 298 L70 479 C68 480 55 470 54 457 C52 446 59 434 84 420 L366 266 L84 113 C59 99 53 87 54 76 C55 61 67 52 70 53 L70 53 Z " />
<glyph glyph-name="question" unicode="&#x3f;" horiz-adv-x="458" d="M202 172 C214 172 223 176 223 186 C223 280 276 315 329 351 C379 384 428 420 428 498 C428 590 354 657 239 657 C167 657 117 632 83 598 C49 564 36 520 36 501 C36 474 70 469 72 472 C83 542 129 613 238 613 C324 613 378 566 378 494 C378 436 338 408 294 379 C241 344 184 303 181 189 C181 177 189 172 202 172 L202 172 Z M198 -3 L212 -3 C234 -3 242 5 242 26 L242 41 C242 62 234 70 212 70 L198 70 C176 70 169 62 169 41 L169 26 C169 5 177 -3 198 -3 L198 -3 Z " />
<glyph glyph-name="at" unicode="&#x40;" horiz-adv-x="735" d="M382 -10 C474 -10 556 24 600 59 C603 63 593 83 579 83 C569 83 562 80 554 74 C515 48 451 25 382 25 C206 25 84 150 84 323 C84 497 202 622 372 622 C544 622 655 517 655 356 C655 270 630 204 568 204 C522 204 502 237 502 297 L502 457 C502 459 495 463 485 463 C469 463 455 452 455 428 C455 428 455 409 455 407 C436 440 398 466 350 466 C271 466 214 405 214 317 C214 230 272 168 348 168 C403 168 441 198 460 244 C468 197 506 167 559 167 C647 167 693 238 693 356 C693 540 567 657 372 657 C181 657 46 518 46 323 C46 124 181 -10 382 -10 L382 -10 Z M359 210 C303 210 263 255 263 317 C263 381 302 425 360 425 C407 425 439 396 455 356 L455 304 C455 251 413 210 359 210 L359 210 Z " />
<glyph glyph-name="A" unicode="A" horiz-adv-x="597" d="M15 12 C13 5 55 -22 72 21 L153 224 L442 224 L523 21 C538 -21 584 4 581 12 L336 633 C331 645 322 651 298 651 C275 651 266 645 261 633 L15 12 Z M169 268 L298 595 L426 268 L169 268 Z " />
<glyph glyph-name="B" unicode="B" horiz-adv-x="595" d="M108 0 L320 0 C476 0 553 57 553 177 C553 261 503 319 399 337 C480 358 523 407 523 482 C523 588 451 647 313 647 C311 647 108 647 108 647 C91 647 79 634 79 617 L79 30 C79 13 91 0 108 0 L108 0 Z M128 353 L128 602 C128 602 311 602 313 602 C419 602 471 560 471 479 C471 402 414 353 316 353 L128 353 Z M128 45 L128 309 C128 309 324 309 320 309 C440 309 501 267 501 179 C501 83 444 45 319 45 L128 45 Z " />
<glyph glyph-name="C" unicode="C" horiz-adv-x="657" d="M368 -10 C466 -10 539 27 577 66 C607 95 621 128 621 143 C621 168 590 175 588 172 C564 100 489 33 370 33 C209 33 100 156 100 323 C100 492 209 614 367 614 C466 614 547 562 581 490 C583 488 610 494 610 520 C610 533 598 559 576 581 C538 619 470 657 369 657 C179 657 48 517 48 322 C48 128 176 -10 368 -10 L368 -10 Z " />
<glyph glyph-name="D" unicode="D" horiz-adv-x="662" d="M108 0 L256 0 C480 0 614 123 614 325 C614 526 483 647 261 647 L108 647 C91 647 79 634 79 617 L79 30 C79 13 91 0 108 0 L108 0 Z M128 44 L128 603 L261 603 C451 603 562 497 562 324 C562 148 452 44 259 44 L128 44 Z " />
<glyph glyph-name="E" unicode="E" horiz-adv-x="564" d="M108 0 L505 0 C520 0 528 7 528 21 L528 26 C528 39 520 45 505 45 L128 45 L128 310 L413 310 C428 310 436 317 436 331 L436 334 C436 347 428 354 413 354 L128 354 L128 602 L496 602 C511 602 519 608 519 622 L519 627 C519 640 511 647 496 647 L108 647 C91 647 79 634 79 617 L79 30 C79 13 91 0 108 0 L108 0 Z " />
<glyph glyph-name="F" unicode="F" horiz-adv-x="524" d="M100 -3 L107 -3 C121 -3 128 4 128 20 L128 289 L388 289 C403 289 411 295 411 309 L411 312 C411 326 403 333 388 333 L128 333 L128 602 L477 602 C492 602 500 608 500 622 L500 627 C500 640 492 647 477 647 L108 647 C91 647 79 634 79 617 L79 20 C79 4 86 -3 100 -3 L100 -3 Z " />
<glyph glyph-name="G" unicode="G" horiz-adv-x="694" d="M353 -10 C467 -10 555 43 590 126 L590 46 C590 6 601 -3 618 -3 C627 -3 634 1 634 2 L634 280 C634 302 619 318 597 318 L390 318 C371 318 362 310 362 296 L362 293 C362 280 371 273 390 273 L590 273 L590 229 C580 116 486 33 359 33 C197 33 100 156 100 323 C100 492 208 614 365 614 C465 614 543 561 576 495 C578 493 606 496 606 524 C606 535 595 559 571 583 C534 620 465 657 366 657 C178 657 48 517 48 322 C48 131 166 -10 353 -10 L353 -10 Z " />
<glyph glyph-name="H" unicode="H" horiz-adv-x="671" d="M100 -3 L107 -3 C121 -3 128 4 128 20 L128 301 L543 301 L543 20 C543 4 550 -3 564 -3 L571 -3 C586 -3 593 4 593 20 L593 627 C593 642 586 650 571 650 L564 650 C550 650 543 642 543 627 L543 347 L128 347 L128 627 C128 642 121 650 107 650 L100 650 C86 650 79 642 79 627 L79 20 C79 4 86 -3 100 -3 L100 -3 Z " />
<glyph glyph-name="I" unicode="I" horiz-adv-x="227" d="M110 -3 L117 -3 C131 -3 138 4 138 20 L138 627 C138 642 131 650 117 650 L110 650 C96 650 89 642 89 627 L89 20 C89 4 96 -3 110 -3 L110 -3 Z " />
<glyph glyph-name="J" unicode="J" horiz-adv-x="436" d="M185 -10 C309 -10 368 59 368 203 L368 627 C368 642 361 650 347 650 L340 650 C325 650 318 642 318 627 L318 203 C318 84 278 33 185 33 C122 33 74 69 54 118 C52 121 24 108 24 88 C24 58 82 -10 185 -10 L185 -10 Z " />
<glyph glyph-name="K" unicode="K" horiz-adv-x="532" d="M100 -3 L107 -3 C121 -3 128 4 128 20 L128 325 L444 9 C469 -17 502 2 499 23 L184 332 L490 624 C493 642 468 666 436 635 L128 337 L128 627 C128 642 121 650 107 650 L100 650 C86 650 79 642 79 627 L79 20 C79 4 86 -3 100 -3 L100 -3 Z " />
<glyph glyph-name="L" unicode="L" horiz-adv-x="500" d="M108 0 L446 0 C461 0 469 8 469 21 L469 25 C469 39 461 46 446 46 L128 46 L128 627 C128 643 121 650 107 650 L100 650 C86 650 79 643 79 627 L79 30 C79 13 91 0 108 0 L108 0 Z " />
<glyph glyph-name="M" unicode="M" horiz-adv-x="735" d="M98 -3 L106 -3 C120 -3 126 4 126 20 L126 593 L324 206 C332 187 342 175 367 175 C391 175 402 187 410 206 L608 593 L608 20 C608 4 615 -3 629 -3 L635 -3 C650 -3 656 4 656 20 L656 618 C656 637 642 650 620 650 L610 650 C585 650 578 639 567 613 L368 221 L169 613 C158 639 151 650 126 650 L114 650 C93 650 79 637 79 618 L79 20 C79 4 84 -3 98 -3 L98 -3 Z " />
<glyph glyph-name="N" unicode="N" horiz-adv-x="673" d="M98 -3 L105 -3 C120 -3 126 4 126 20 L126 585 L531 17 C541 3 546 -3 565 -3 L569 -3 C585 -3 595 11 595 30 L595 627 C595 643 589 650 575 650 L568 650 C553 650 548 643 548 627 L548 77 L158 623 C146 640 137 650 119 650 L106 650 C88 650 79 635 79 616 L79 20 C79 4 84 -3 98 -3 L98 -3 Z " />
<glyph glyph-name="O" unicode="O" horiz-adv-x="735" d="M366 -10 C557 -10 686 130 686 324 C686 518 558 657 368 657 C179 657 48 516 48 322 C48 128 176 -10 366 -10 L366 -10 Z M368 33 C209 33 100 156 100 323 C100 491 208 614 367 614 C526 614 635 489 635 323 C635 155 527 33 368 33 L368 33 Z " />
<glyph glyph-name="P" unicode="P" horiz-adv-x="546" d="M100 -3 L107 -3 C121 -3 128 7 128 20 L128 256 L269 256 C429 256 511 327 511 453 C511 576 427 647 274 647 L108 647 C91 647 79 634 79 617 L79 20 C79 4 86 -3 100 -3 L100 -3 Z M128 300 L128 602 L274 602 C397 602 460 549 460 451 C460 354 397 300 273 300 L128 300 Z " />
<glyph glyph-name="Q" unicode="Q" horiz-adv-x="735" d="M366 -10 C446 -10 515 16 569 61 L624 5 C633 -4 641 -9 650 -9 C671 -9 681 11 679 14 L602 91 C655 151 686 232 686 324 C686 518 558 657 368 657 C179 657 48 516 48 322 C48 128 176 -10 366 -10 L366 -10 Z M368 33 C209 33 100 156 100 323 C100 491 208 614 367 614 C526 614 635 489 635 323 C635 243 611 174 569 123 L423 272 C412 283 399 284 388 273 C380 265 379 251 391 239 L537 91 C493 54 435 33 368 33 L368 33 Z " />
<glyph glyph-name="R" unicode="R" horiz-adv-x="560" d="M128 320 L128 602 L285 602 C404 602 464 553 464 461 C464 375 407 320 288 320 L128 320 Z M273 277 L294 277 C434 277 515 344 515 463 C515 583 435 647 283 647 L108 647 C91 647 79 634 79 617 L79 20 C79 4 86 -3 100 -3 L106 -3 C120 -3 128 7 128 20 L128 277 L209 277 L452 15 C463 2 474 -3 483 -3 C503 -3 516 17 513 21 L273 277 Z " />
<glyph glyph-name="S" unicode="S" horiz-adv-x="535" d="M273 -10 C405 -10 492 61 492 168 C492 293 386 328 282 352 C181 375 106 395 106 484 C106 563 174 614 268 614 C363 614 423 565 447 512 C450 510 477 521 477 543 C477 556 467 576 449 595 C416 627 355 657 267 657 C148 657 57 585 57 483 C57 360 157 330 257 306 C355 283 443 259 443 165 C443 84 378 33 272 33 C159 33 96 91 70 149 C67 151 40 141 40 119 C40 105 49 82 72 60 C109 22 177 -10 273 -10 L273 -10 Z " />
<glyph glyph-name="T" unicode="T" horiz-adv-x="569" d="M281 -3 L288 -3 C302 -3 309 4 309 20 L309 602 L523 602 C538 602 546 609 546 622 L546 626 C546 640 538 647 523 647 L46 647 C31 647 22 640 22 626 L22 622 C22 609 31 602 46 602 L260 602 L260 20 C260 4 267 -3 281 -3 L281 -3 Z " />
<glyph glyph-name="U" unicode="U" horiz-adv-x="631" d="M314 -10 C476 -10 562 81 562 254 L562 627 C562 643 556 650 543 650 L534 650 C519 650 513 643 513 627 L513 256 C513 108 449 35 316 35 C184 35 118 110 118 255 L118 627 C118 642 111 650 97 650 L90 650 C76 650 69 642 69 627 L69 252 C69 80 153 -10 314 -10 L314 -10 Z " />
<glyph glyph-name="V" unicode="V" horiz-adv-x="593" d="M297 -4 C318 -4 325 2 330 14 L577 635 C580 643 536 669 520 626 L297 52 L75 626 C59 669 14 643 16 635 L263 14 C268 2 275 -4 297 -4 L297 -4 Z " />
<glyph glyph-name="W" unicode="W" horiz-adv-x="882" d="M245 -5 C270 -5 275 2 280 17 L443 497 L600 17 C605 2 612 -5 637 -5 C664 -5 673 0 676 16 L831 639 C832 646 787 669 776 617 L638 46 L482 518 C475 537 469 547 443 547 C417 547 408 536 402 518 L245 45 L110 617 C98 669 50 646 51 639 L206 16 C209 0 218 -5 245 -5 L245 -5 Z " />
<glyph glyph-name="X" unicode="X" horiz-adv-x="568" d="M48 -3 C56 -3 64 1 73 13 L283 295 L489 14 C496 4 507 -1 517 -1 C536 -1 546 18 543 23 L313 328 L540 629 C543 633 532 652 515 652 C507 652 499 648 490 636 C490 636 285 364 285 363 L86 635 C79 645 68 650 58 650 C39 650 29 631 32 627 L255 329 L23 20 C20 16 31 -3 48 -3 L48 -3 Z " />
<glyph glyph-name="Y" unicode="Y" horiz-adv-x="538" d="M265 -3 L272 -3 C286 -3 294 4 294 20 L294 277 L529 629 C531 638 498 669 474 632 L269 322 L64 633 C42 667 6 641 8 629 L244 277 L244 20 C244 4 251 -3 265 -3 L265 -3 Z " />
<glyph glyph-name="Z" unicode="Z" horiz-adv-x="585" d="M87 0 L518 0 C533 0 542 7 542 21 L542 25 C542 38 533 45 518 45 L100 45 L499 559 C517 582 528 598 528 613 L528 620 C528 635 517 647 488 647 L74 647 C59 647 51 640 51 626 L51 622 C51 609 59 602 74 602 L473 602 L76 90 C51 60 46 50 46 35 L46 28 C46 12 58 0 87 0 L87 0 Z " />
<glyph glyph-name="bracketleft" unicode="&#x5b;" horiz-adv-x="322" d="M114 -193 L272 -193 C290 -193 295 -186 295 -174 L295 -169 C295 -156 290 -149 272 -149 L130 -149 L130 604 L272 604 C290 604 295 610 295 623 L295 628 C295 640 290 647 272 647 L114 647 C96 647 84 634 84 617 L84 -163 C84 -180 96 -193 114 -193 L114 -193 Z " />
<glyph glyph-name="backslash" unicode="&#x5c;" horiz-adv-x="317" d="M274 -193 C295 -193 313 -185 298 -137 L58 648 C58 649 53 650 49 650 C27 650 10 642 24 594 L264 -191 C265 -192 269 -193 274 -193 L274 -193 Z " />
<glyph glyph-name="bracketright" unicode="&#x5d;" horiz-adv-x="322" d="M50 -193 L208 -193 C226 -193 238 -180 238 -163 L238 617 C238 634 226 647 208 647 L50 647 C33 647 27 640 27 628 L27 623 C27 610 33 604 50 604 L193 604 L193 -149 L50 -149 C33 -149 27 -156 27 -169 L27 -174 C27 -186 33 -193 50 -193 L50 -193 Z " />
<glyph glyph-name="asciicircum" unicode="&#x5e;" horiz-adv-x="500" d="M146 450 C159 450 176 467 209 512 C225 534 235 547 249 566 C264 546 275 532 289 513 C327 464 341 450 354 450 C363 450 369 457 369 467 C369 483 350 508 317 546 C282 586 252 609 250 609 C248 609 219 587 181 544 C148 506 130 483 130 467 C130 457 137 450 146 450 L146 450 Z " />
<glyph glyph-name="underscore" unicode="&#x5f;" horiz-adv-x="452" d="M36 -45 L416 -45 C431 -45 439 -38 439 -25 L439 -21 C439 -7 431 0 416 0 L36 0 C21 0 13 -7 13 -21 L13 -25 C13 -38 21 -45 36 -45 L36 -45 Z " />
<glyph glyph-name="grave" unicode="&#x60;" horiz-adv-x="500" d="M319 546 C322 551 275 607 205 659 C183 676 171 681 160 681 C149 681 139 673 139 661 C139 648 147 637 177 615 C249 563 315 542 319 546 L319 546 Z " />
<glyph glyph-name="a" unicode="a" horiz-adv-x="501" d="M201 -9 C288 -9 358 33 389 94 L389 45 C389 6 403 -3 419 -3 C428 -3 436 1 436 2 L436 300 C436 414 365 483 247 483 C166 483 113 453 83 423 C66 407 56 387 56 377 C56 352 82 349 83 349 C109 400 162 439 244 439 C335 439 389 388 389 299 L389 275 L379 275 C141 271 37 227 37 120 C37 41 100 -9 201 -9 L201 -9 Z M205 30 C132 30 86 64 86 120 C86 200 170 233 376 237 L389 237 L389 190 C389 100 308 30 205 30 L205 30 Z " />
<glyph glyph-name="b" unicode="b" horiz-adv-x="566" d="M301 -10 C433 -10 529 91 529 238 C529 384 430 483 304 483 C216 483 155 440 117 376 L117 631 C117 669 102 678 85 678 C76 678 69 674 69 673 L69 20 C69 3 78 -3 91 -3 L96 -3 C108 -3 116 3 116 20 L116 96 C140 42 205 -10 301 -10 L301 -10 Z M297 32 C196 32 116 108 116 203 L116 312 C146 389 208 441 299 441 C403 441 481 355 481 238 C481 116 407 32 297 32 L297 32 Z " />
<glyph glyph-name="c" unicode="c" horiz-adv-x="512" d="M278 -10 C356 -10 409 18 440 50 C467 77 478 104 478 118 C478 140 449 144 447 142 C425 85 376 32 278 32 C164 32 85 121 85 237 C85 353 165 441 278 441 C376 441 425 388 447 331 C449 329 478 333 478 355 C478 369 467 396 442 422 C410 454 357 483 278 483 C137 483 37 378 37 237 C37 96 137 -10 278 -10 L278 -10 Z " />
<glyph glyph-name="d" unicode="d" horiz-adv-x="566" d="M262 -10 C353 -10 414 33 449 96 L449 20 C449 3 457 -3 470 -3 L475 -3 C488 -3 497 3 497 20 L497 631 C497 669 482 678 465 678 C456 678 449 674 449 673 L449 381 C422 435 357 483 265 483 C134 483 37 382 37 237 C37 89 134 -10 262 -10 L262 -10 Z M267 32 C161 32 85 118 85 238 C85 357 161 441 268 441 C360 441 420 390 449 313 L449 202 C449 108 368 32 267 32 L267 32 Z " />
<glyph glyph-name="e" unicode="e" horiz-adv-x="525" d="M87 271 C101 370 175 441 273 441 C370 441 436 372 440 271 L87 271 Z M84 230 L469 230 C484 230 490 233 490 247 L490 252 C490 390 403 483 273 483 C137 483 37 376 37 235 C37 93 134 -10 279 -10 C358 -10 417 20 446 49 C467 70 476 90 476 100 C476 123 451 130 448 128 C424 81 378 32 279 32 C166 32 86 114 84 230 L84 230 Z " />
<glyph glyph-name="f" unicode="f" horiz-adv-x="311" d="M133 -3 L138 -3 C151 -3 159 3 159 20 L159 430 L263 430 C281 430 287 437 287 449 L287 454 C287 466 281 473 263 473 L158 473 L158 521 C158 608 187 646 243 646 C274 646 305 632 320 614 C322 613 334 621 334 637 C334 646 330 655 323 662 C307 677 282 688 243 688 C159 688 112 632 112 524 L112 473 L33 473 C15 473 10 466 10 454 L10 449 C10 437 15 430 33 430 L112 430 L112 20 C112 3 120 -3 133 -3 L133 -3 Z " />
<glyph glyph-name="g" unicode="g" horiz-adv-x="451" d="M220 -210 C369 -210 457 -160 457 -72 C457 4 379 37 306 54 C223 73 172 79 172 115 C172 127 176 138 189 146 C200 145 210 144 221 144 C330 144 411 219 411 314 C411 355 394 393 368 421 L445 506 C446 520 411 547 385 506 L341 446 C309 469 267 483 223 483 C115 483 35 406 35 310 C35 238 82 178 153 155 C137 144 126 127 126 107 C126 82 141 67 162 57 C74 41 0 -9 0 -82 C0 -167 74 -210 220 -210 L220 -210 Z M222 182 C141 182 84 236 84 312 C84 389 141 443 222 443 C304 443 361 388 361 312 C361 236 303 182 222 182 L222 182 Z M221 -171 C108 -171 47 -139 47 -82 C47 -19 131 22 224 29 C246 23 269 19 291 13 C352 -1 409 -23 409 -74 C409 -137 338 -171 221 -171 L221 -171 Z " />
<glyph glyph-name="h" unicode="h" horiz-adv-x="541" d="M90 -3 L96 -3 C108 -3 117 2 117 20 L117 272 C117 372 187 438 282 438 C376 438 428 374 428 269 L428 20 C428 2 437 -3 449 -3 L455 -3 C467 -3 476 2 476 20 L476 272 C476 399 412 483 285 483 C207 483 145 441 117 380 L117 631 C117 669 102 678 85 678 C76 678 69 674 69 673 L69 20 C69 2 78 -3 90 -3 L90 -3 Z " />
<glyph glyph-name="i" unicode="i" horiz-adv-x="195" d="M97 601 C120 601 131 612 131 634 C131 656 121 667 99 667 C76 667 65 656 65 634 C65 612 76 601 97 601 L97 601 Z M95 -3 L100 -3 C113 -3 122 2 122 20 L122 453 C122 471 113 476 100 476 L95 476 C82 476 74 471 74 453 L74 20 C74 2 82 -3 95 -3 L95 -3 Z " />
<glyph glyph-name="j" unicode="j" horiz-adv-x="195" d="M97 601 C120 601 131 612 131 634 C131 656 121 667 99 667 C76 667 65 656 65 634 C65 612 76 601 97 601 L97 601 Z M0 -190 C80 -190 122 -141 122 -53 L122 453 C122 471 113 476 100 476 L95 476 C82 476 74 471 74 453 L74 -50 C74 -116 51 -148 0 -148 C-31 -148 -55 -134 -69 -120 C-70 -119 -83 -132 -83 -147 C-83 -154 -79 -161 -73 -167 C-60 -180 -34 -190 0 -190 L0 -190 Z " />
<glyph glyph-name="k" unicode="k" horiz-adv-x="429" d="M90 -3 L96 -3 C108 -3 117 2 117 20 L117 244 L361 16 C402 -25 419 12 418 22 L170 251 L389 453 C392 463 373 497 333 457 L117 255 L117 631 C117 669 102 678 85 678 C76 678 69 674 69 673 L69 20 C69 2 78 -3 90 -3 L90 -3 Z " />
<glyph glyph-name="l" unicode="l" horiz-adv-x="195" d="M95 -3 L100 -3 C113 -3 122 3 122 20 L122 631 C122 669 107 678 90 678 C81 678 74 674 74 673 L74 20 C74 3 82 -3 95 -3 L95 -3 Z " />
<glyph glyph-name="m" unicode="m" horiz-adv-x="856" d="M90 -3 L96 -3 C108 -3 117 2 117 20 L117 329 C144 397 206 438 269 438 C360 438 406 381 406 287 L406 20 C406 2 415 -3 427 -3 L433 -3 C445 -3 454 2 454 20 L454 328 C479 398 542 438 606 438 C695 438 743 380 743 276 L743 20 C743 2 752 -3 764 -3 L770 -3 C782 -3 791 2 791 20 L791 279 C791 410 726 483 609 483 C528 483 466 438 437 372 C415 439 358 483 274 483 C206 483 147 445 116 387 L116 428 C116 467 102 476 85 476 C76 476 69 472 69 471 L69 20 C69 2 78 -3 90 -3 L90 -3 Z " />
<glyph glyph-name="n" unicode="n" horiz-adv-x="541" d="M90 -3 L96 -3 C108 -3 117 2 117 20 L117 328 C146 394 205 438 284 438 C377 438 428 373 428 269 L428 20 C428 2 437 -3 449 -3 L455 -3 C467 -3 476 2 476 20 L476 272 C476 399 412 483 286 483 C207 483 147 441 116 385 L116 428 C116 467 102 476 85 476 C76 476 69 472 69 471 L69 20 C69 2 78 -3 90 -3 L90 -3 Z " />
<glyph glyph-name="o" unicode="o" horiz-adv-x="557" d="M279 -10 C419 -10 520 95 520 235 C520 377 419 483 279 483 C137 483 37 378 37 237 C37 96 137 -10 279 -10 L279 -10 Z M279 32 C167 32 85 121 85 237 C85 353 167 441 279 441 C391 441 472 351 472 235 C472 119 390 32 279 32 L279 32 Z " />
<glyph glyph-name="p" unicode="p" horiz-adv-x="566" d="M91 -193 L96 -193 C108 -193 117 -187 117 -170 L117 96 C141 42 206 -10 301 -10 C433 -10 529 91 529 238 C529 384 430 483 304 483 C215 483 154 440 116 376 L116 428 C116 467 102 476 85 476 C76 476 69 472 69 471 L69 -170 C69 -187 78 -193 91 -193 L91 -193 Z M297 32 C196 32 116 108 116 203 L116 312 C146 389 208 441 299 441 C403 441 481 355 481 238 C481 116 407 32 297 32 L297 32 Z " />
<glyph glyph-name="q" unicode="q" horiz-adv-x="566" d="M470 -193 L475 -193 C488 -193 497 -187 497 -170 L497 471 C497 472 489 476 480 476 C464 476 449 467 449 428 L449 380 C423 434 358 483 265 483 C134 483 37 382 37 237 C37 89 134 -10 262 -10 C352 -10 414 33 449 95 L449 -170 C449 -187 457 -193 470 -193 L470 -193 Z M267 32 C161 32 85 118 85 238 C85 357 161 441 268 441 C360 441 420 389 449 311 L449 203 C449 109 368 32 267 32 L267 32 Z " />
<glyph glyph-name="r" unicode="r" horiz-adv-x="328" d="M91 -3 L96 -3 C108 -3 117 3 117 20 L117 225 C117 353 157 437 242 437 C266 437 286 429 299 418 C301 417 313 425 313 443 C313 467 284 483 246 483 C182 483 136 448 116 368 L116 428 C116 467 102 476 85 476 C76 476 69 472 69 471 L69 20 C69 3 78 -3 91 -3 L91 -3 Z " />
<glyph glyph-name="s" unicode="s" horiz-adv-x="443" d="M222 -10 C336 -10 407 47 407 129 C407 223 314 243 233 260 C147 279 91 293 91 353 C91 405 140 443 222 443 C289 443 343 412 367 371 C369 368 393 377 393 396 C393 406 386 420 375 431 C347 459 296 483 222 483 C116 483 45 427 45 346 C45 253 136 234 213 218 C301 199 360 186 360 122 C360 69 310 30 224 30 C139 30 86 65 57 110 C55 111 31 104 31 84 C31 74 37 62 54 45 C83 16 138 -10 222 -10 L222 -10 Z " />
<glyph glyph-name="t" unicode="t" horiz-adv-x="332" d="M222 -10 C260 -10 286 2 301 18 C313 29 317 40 317 48 C317 67 303 73 301 72 C284 47 259 31 224 31 C168 31 145 64 145 142 L145 430 L282 430 C300 430 306 437 306 449 L306 454 C306 466 300 473 282 473 L145 473 L145 565 C145 583 137 589 125 589 L119 589 C107 589 98 583 98 565 L98 473 L40 473 C22 473 17 466 17 454 L17 449 C17 437 22 430 40 430 L98 430 L98 137 C98 37 138 -10 222 -10 L222 -10 Z " />
<glyph glyph-name="u" unicode="u" horiz-adv-x="541" d="M254 -10 C334 -10 393 32 425 88 L425 45 C425 6 439 -3 455 -3 C464 -3 472 1 472 2 L472 453 C472 471 463 476 451 476 L445 476 C433 476 424 471 424 453 L424 145 C395 79 336 35 257 35 C164 35 113 100 113 204 L113 453 C113 471 104 476 92 476 L86 476 C74 476 65 471 65 453 L65 201 C65 74 129 -10 254 -10 L254 -10 Z " />
<glyph glyph-name="v" unicode="v" horiz-adv-x="461" d="M230 -4 C254 -4 260 2 265 15 L446 462 C446 471 409 497 389 444 L231 43 L74 444 C54 496 15 471 15 462 L197 14 C202 1 205 -4 230 -4 L230 -4 Z " />
<glyph glyph-name="w" unicode="w" horiz-adv-x="664" d="M182 -4 C206 -4 211 2 215 14 L334 353 L450 14 C455 2 459 -4 483 -4 C510 -4 515 2 519 14 L636 463 C636 467 594 501 580 441 L484 44 L371 379 C366 394 358 400 334 400 C309 400 301 394 297 379 L183 44 L86 441 C72 501 29 468 29 463 L147 14 C150 2 155 -4 182 -4 L182 -4 Z " />
<glyph glyph-name="x" unicode="x" horiz-adv-x="455" d="M49 -3 C63 -3 73 6 85 22 L225 208 L368 21 C379 6 387 -3 404 -3 C423 -3 430 15 428 18 L257 237 L430 455 C431 457 424 476 405 476 C394 476 383 469 369 451 L229 266 L87 452 C76 467 68 476 51 476 C32 476 25 458 27 455 L198 237 L24 18 C22 16 30 -3 49 -3 L49 -3 Z " />
<glyph glyph-name="y" unicode="y" horiz-adv-x="458" d="M167 -193 C180 -193 192 -187 201 -161 L445 463 C445 471 406 497 386 442 L239 54 L73 445 C52 496 14 473 14 462 L196 45 C202 30 209 26 226 26 L142 -180 C141 -183 154 -193 167 -193 L167 -193 Z " />
<glyph glyph-name="z" unicode="z" horiz-adv-x="460" d="M61 0 L401 0 C419 0 426 6 426 18 L426 23 C426 35 419 41 401 41 L97 41 L399 416 C412 433 418 441 418 448 L418 452 C418 464 412 473 394 473 L63 473 C45 473 38 467 38 455 L38 450 C38 438 45 432 63 432 L355 432 L56 61 C42 44 37 37 37 28 L37 21 C37 9 43 0 61 0 L61 0 Z " />
<glyph glyph-name="braceleft" unicode="&#x7b;" horiz-adv-x="393" d="M354 -196 C366 -196 373 -188 373 -176 C373 -169 368 -158 366 -157 C237 -121 187 -16 182 163 L68 228 L182 293 C187 471 237 576 366 612 C368 613 373 625 373 631 C373 644 366 652 354 652 C323 652 276 630 231 586 C181 535 139 443 134 318 L59 274 C34 260 26 255 26 228 C26 201 34 196 59 182 L134 138 C139 12 181 -79 231 -130 C276 -175 323 -196 354 -196 L354 -196 Z " />
<glyph glyph-name="bar" unicode="&#x7c;" horiz-adv-x="229" d="M112 -193 L117 -193 C130 -193 139 -188 139 -170 L139 627 C139 645 130 650 117 650 L112 650 C99 650 91 645 91 627 L91 -170 C91 -188 99 -193 112 -193 L112 -193 Z " />
<glyph glyph-name="braceright" unicode="&#x7d;" horiz-adv-x="393" d="M39 -196 C69 -196 117 -175 161 -130 C212 -79 254 12 259 138 L334 182 C359 195 367 201 367 228 C367 255 359 260 334 274 L259 318 C254 443 212 535 161 586 C117 630 69 652 39 652 C26 652 20 644 20 631 C20 625 24 613 27 612 C155 576 206 471 211 293 L325 228 L211 163 C206 -16 155 -121 27 -157 C24 -158 20 -169 20 -176 C20 -188 26 -196 39 -196 L39 -196 Z " />
<glyph glyph-name="asciitilde" unicode="&#x7e;" horiz-adv-x="499" d="M310 166 C357 166 381 206 384 265 C379 269 373 272 367 272 C355 272 350 264 346 249 C340 222 331 207 312 207 C296 207 285 216 265 236 C245 258 222 277 188 277 C142 277 118 238 114 179 C120 175 125 172 132 172 C144 172 149 179 153 195 C159 222 167 237 187 237 C202 237 213 228 233 208 C254 186 277 166 310 166 L310 166 Z " />
<glyph glyph-name="nbspace" unicode="&#xa0;" horiz-adv-x="170" d="" />
<glyph glyph-name="exclamdown" unicode="&#xa1;" horiz-adv-x="232" d="M113 575 L120 575 C142 575 154 588 154 610 L154 617 C154 639 142 652 120 652 L113 652 C90 652 78 639 78 617 L78 610 C78 588 90 575 113 575 L113 575 Z M107 -3 L125 -3 C138 -3 148 4 146 26 L131 454 C130 468 128 474 119 474 L113 474 C104 474 102 468 101 454 L86 26 C85 4 94 -3 107 -3 L107 -3 Z " />
<glyph glyph-name="cent" unicode="&#xa2;" horiz-adv-x="530" d="M283 -98 L287 -98 C300 -98 307 -93 307 -75 L307 32 C376 35 428 62 459 93 C483 118 495 143 495 157 C495 179 470 186 467 183 C443 122 389 78 305 75 L305 488 C388 483 435 443 462 387 C464 384 489 395 489 416 C489 426 478 449 458 469 C427 501 377 527 307 531 L307 634 C307 652 300 657 287 657 L283 657 C271 657 263 652 263 634 L263 530 C137 518 45 417 45 281 C45 138 132 45 263 33 L263 -75 C263 -93 271 -98 283 -98 L283 -98 Z M265 77 C165 88 93 165 93 281 C93 402 165 479 265 488 L265 77 Z " />
<glyph glyph-name="sterling" unicode="&#xa3;" horiz-adv-x="560" d="M46 0 L494 0 C509 0 517 7 517 20 L517 24 C517 38 509 45 494 45 L157 45 L198 268 L389 268 C404 268 412 274 412 287 L412 293 C412 307 404 312 389 312 L206 312 L233 460 C253 566 288 616 373 616 C442 616 484 572 493 503 C496 501 528 502 528 531 C528 556 516 589 492 614 C467 640 427 659 373 659 C264 659 208 589 185 463 L157 312 L59 312 C44 312 36 307 36 293 L36 287 C36 274 44 268 59 268 L149 268 L108 45 L46 45 C31 45 23 38 23 25 L23 20 C23 7 31 0 46 0 L46 0 Z " />
<glyph glyph-name="currency" unicode="&#xa4;" horiz-adv-x="624" d="M387 -10 C459 -10 514 18 548 53 C572 77 585 104 585 123 C585 147 557 154 555 151 C531 87 482 32 385 32 C281 32 209 109 187 226 L417 226 C435 226 441 232 441 245 L441 249 C441 262 435 268 417 268 L181 268 C180 279 180 289 180 300 L180 347 C180 360 180 372 181 384 L417 384 C435 384 441 390 441 403 L441 407 C441 420 435 426 417 426 L187 426 C209 542 280 615 380 615 C476 615 525 562 550 503 C553 501 579 508 579 530 C579 547 569 572 546 595 C514 628 461 657 382 657 C253 657 163 568 139 426 L59 426 C42 426 36 420 36 407 L36 403 C36 390 42 384 59 384 L133 384 C132 371 132 359 132 347 L132 302 C132 290 132 279 133 268 L59 268 C42 268 36 262 36 249 L36 245 C36 232 42 226 59 226 L138 226 C161 78 251 -10 387 -10 L387 -10 Z " />
<glyph glyph-name="yen" unicode="&#xa5;" horiz-adv-x="552" d="M273 -3 L278 -3 C293 -3 299 4 299 20 L299 123 L471 123 C489 123 495 130 495 142 L495 147 C495 159 489 166 471 166 L299 166 L299 265 L471 265 C489 265 495 271 495 284 L495 288 C495 301 489 307 471 307 L314 307 L518 629 C522 636 485 672 462 632 L276 325 L92 633 C72 670 30 636 34 629 L238 307 L80 307 C63 307 57 301 57 288 L57 284 C57 271 63 265 80 265 L253 265 L253 166 L80 166 C63 166 57 159 57 147 L57 142 C57 130 63 123 80 123 L253 123 L253 20 C253 4 259 -3 273 -3 L273 -3 Z " />
<glyph glyph-name="section" unicode="&#xa7;" horiz-adv-x="501" d="M246 -157 C367 -157 450 -97 450 -8 C450 68 406 101 348 120 C419 139 465 184 465 247 C465 348 364 374 268 395 C170 418 103 440 103 511 C103 573 170 613 253 613 C339 613 390 573 419 521 C421 519 446 530 446 550 C446 561 437 581 419 599 C389 629 337 657 253 657 C142 657 55 595 55 505 C55 433 98 399 157 378 C84 360 37 316 37 253 C37 151 137 125 233 103 C333 80 402 66 402 -11 C402 -73 341 -113 245 -113 C145 -113 89 -71 60 -11 C58 -9 33 -20 33 -41 C33 -54 41 -74 64 -97 C95 -128 154 -157 246 -157 L246 -157 Z M293 136 C280 139 266 142 253 145 C161 165 83 184 83 257 C83 306 136 354 210 362 C222 359 235 357 248 354 C340 333 419 314 419 242 C419 191 364 143 293 136 L293 136 Z " />
<glyph glyph-name="dieresis" unicode="&#xa8;" horiz-adv-x="500" d="M330 545 C352 545 367 559 367 583 C367 607 352 620 329 620 C306 620 292 607 292 583 C292 559 306 545 330 545 L330 545 Z M171 545 C193 545 208 559 208 583 C208 607 194 620 170 620 C148 620 133 607 133 583 C133 559 148 545 171 545 L171 545 Z " />
<glyph glyph-name="copyright" unicode="&#xa9;" horiz-adv-x="749" d="M374 -10 C561 -10 701 133 701 325 C701 519 566 657 375 657 C188 657 48 514 48 322 C48 128 183 -10 374 -10 L374 -10 Z M375 25 C209 25 89 151 89 323 C89 499 206 622 374 622 C540 622 661 496 661 324 C661 148 543 25 375 25 L375 25 Z M383 145 C435 145 473 164 493 184 C511 204 519 222 519 231 C519 249 495 257 493 254 C479 220 446 186 385 186 C308 186 254 244 254 323 C254 399 310 459 381 459 C436 459 473 432 489 396 C491 394 514 403 514 419 C514 430 507 445 493 459 C473 480 434 500 382 500 C284 500 209 423 209 322 C209 219 280 145 383 145 L383 145 Z " />
<glyph glyph-name="ordfeminine" unicode="&#xaa;" horiz-adv-x="416" d="M174 262 C236 262 290 294 314 340 L314 309 C314 274 327 267 342 267 C351 267 358 270 358 272 L358 503 C358 596 306 657 202 657 C138 657 98 634 74 611 C59 595 51 580 51 571 C51 550 75 546 76 547 C97 586 137 617 199 617 C275 617 313 573 313 503 L313 493 C93 483 35 441 35 365 C35 300 89 262 174 262 L174 262 Z M200 -5 L206 -5 C227 -5 238 6 238 27 L238 33 C238 53 227 65 206 65 L200 65 C179 65 168 53 168 33 L168 27 C168 6 179 -5 200 -5 L200 -5 Z M180 299 C119 299 80 324 80 367 C80 419 122 452 314 460 L314 409 C314 350 254 299 180 299 L180 299 Z " />
<glyph glyph-name="guillemotleft" unicode="&#xab;" horiz-adv-x="488" d="M419 83 C430 83 437 91 437 100 C437 115 412 137 353 183 C326 205 302 222 275 241 C301 260 325 277 351 298 C412 344 437 368 437 383 C437 392 430 400 419 400 C400 400 370 378 318 333 C263 285 230 247 230 242 C230 236 264 197 319 149 C371 105 400 83 419 83 L419 83 Z M220 94 C229 94 236 101 236 111 C236 122 217 141 164 183 C137 204 113 222 86 241 C112 260 135 277 160 297 C215 340 236 361 236 372 C236 382 229 389 220 389 C203 389 177 370 128 328 C75 283 43 247 43 242 C43 236 75 200 128 155 C177 113 203 94 220 94 L220 94 Z " />
<glyph glyph-name="logicalnot" unicode="&#xac;" horiz-adv-x="700" d="M368 -10 C541 -10 651 109 651 278 L651 287 C651 303 646 310 630 310 L364 310 C349 310 341 303 341 289 L341 286 C341 273 349 265 364 265 L600 265 C596 119 500 33 366 33 C207 33 100 156 100 323 C100 492 206 614 367 614 C469 614 546 560 579 494 C581 492 609 495 609 523 C609 534 598 558 574 583 C537 620 468 657 369 657 C177 657 48 517 48 322 C48 128 173 -10 368 -10 L368 -10 Z " />
<glyph glyph-name="registered" unicode="&#xae;" horiz-adv-x="749" d="M374 -10 C561 -10 701 133 701 325 C701 519 566 657 375 657 C188 657 48 514 48 322 C48 128 183 -10 374 -10 L374 -10 Z M375 25 C209 25 89 151 89 323 C89 499 206 622 374 622 C540 622 661 496 661 324 C661 148 543 25 375 25 L375 25 Z M301 328 L301 461 L381 461 C439 461 469 439 469 395 C469 353 440 328 384 328 L301 328 Z M394 294 C473 295 513 335 513 395 C513 464 467 499 383 499 L282 499 C267 499 257 489 257 472 L257 176 C257 161 264 153 276 153 L282 153 C295 153 302 161 302 174 L302 291 L345 291 L455 169 C465 157 477 153 486 153 C502 153 512 168 510 171 L394 294 Z " />
<glyph glyph-name="macron" unicode="&#xaf;" horiz-adv-x="500" d="M148 566 L352 566 C371 566 381 573 381 588 L381 591 C381 605 371 612 352 612 L148 612 C130 612 119 605 119 591 L119 588 C119 573 129 566 148 566 L148 566 Z " />
<glyph glyph-name="degree" unicode="&#xb0;" horiz-adv-x="382" d="M189 370 C269 370 331 431 331 511 L331 519 C331 599 273 659 192 659 C112 659 51 598 51 518 L51 510 C51 429 109 370 189 370 L189 370 Z M191 409 C135 409 92 454 92 511 L92 519 C92 576 134 620 190 620 C246 620 290 575 290 518 L290 510 C290 453 247 409 191 409 L191 409 Z " />
<glyph glyph-name="plusminus" unicode="&#xb1;" horiz-adv-x="370" d="M58 0 L326 0 C341 0 349 6 349 19 L349 23 C349 37 341 43 326 43 L220 43 L220 626 C220 642 212 650 198 650 L176 650 C174 606 137 571 93 571 C67 571 48 581 36 596 C35 597 20 586 20 569 C20 558 24 549 33 541 C45 528 65 521 89 521 C126 521 157 539 172 567 L172 43 L58 43 C44 43 35 37 35 23 L35 19 C35 6 44 0 58 0 L58 0 Z " />
<glyph glyph-name="acute" unicode="&#xb4;" horiz-adv-x="500" d="M181 546 C185 542 252 563 323 615 C353 637 362 648 362 661 C362 673 352 681 340 681 C329 681 318 676 295 659 C226 607 178 551 181 546 L181 546 Z " />
<glyph glyph-name="mu" unicode="&#xb5;" horiz-adv-x="566" d="M262 -10 C352 -10 414 33 449 95 L449 20 C449 3 457 -3 470 -3 L475 -3 C488 -3 497 3 497 20 L497 471 C497 472 489 476 480 476 C464 476 449 467 449 428 L449 381 C423 435 357 483 265 483 C134 483 37 382 37 237 C37 89 134 -10 262 -10 L262 -10 Z M267 32 C161 32 85 118 85 238 C85 357 161 441 268 441 C360 441 420 390 449 313 L449 202 C449 108 368 32 267 32 L267 32 Z " />
<glyph glyph-name="paragraph" unicode="&#xb6;" horiz-adv-x="583" d="M476 -3 L483 -3 C498 -3 505 4 505 20 L505 627 C505 642 498 650 483 650 L476 650 C463 650 455 642 455 627 L455 20 C455 4 463 -3 476 -3 L476 -3 Z M375 -3 L382 -3 C396 -3 403 4 403 20 L403 618 C403 635 391 648 373 648 L260 648 C111 648 35 586 35 473 C35 360 116 304 265 304 L354 304 L354 20 C354 7 361 -3 375 -3 L375 -3 Z " />
<glyph glyph-name="periodcentered" unicode="&#xb7;" horiz-adv-x="206" d="M99 210 L106 210 C129 210 141 223 141 244 L141 252 C141 273 129 287 106 287 L99 287 C77 287 65 273 65 252 L65 244 C65 223 77 210 99 210 L99 210 Z " />
<glyph glyph-name="cedilla" unicode="&#xb8;" horiz-adv-x="500" d="M194 -213 L271 -104 C282 -90 290 -81 290 -73 L290 -70 C290 -56 278 -48 265 -48 L261 -48 C242 -48 238 -58 231 -74 L169 -201 C162 -216 188 -220 194 -213 L194 -213 Z " />
<glyph glyph-name="ordmasculine" unicode="&#xba;" horiz-adv-x="464" d="M232 261 C340 261 424 349 424 460 C424 571 343 657 233 657 C124 657 40 569 40 458 C40 347 122 261 232 261 L232 261 Z M228 -5 L234 -5 C255 -5 266 6 266 27 L266 33 C266 53 255 65 234 65 L228 65 C208 65 197 53 197 33 L197 27 C197 6 208 -5 228 -5 L228 -5 Z M232 301 C148 301 85 371 85 459 C85 548 147 617 233 617 C317 617 380 548 380 459 C380 370 318 301 232 301 L232 301 Z " />
<glyph glyph-name="guillemotright" unicode="&#xbb;" horiz-adv-x="488" d="M268 95 C285 95 311 114 360 155 C413 201 445 236 445 242 C445 247 413 283 360 329 C311 370 285 389 268 389 C259 389 252 383 252 373 C252 362 271 343 324 301 C351 280 375 262 402 242 C376 224 353 207 328 187 C274 144 252 123 252 111 C252 102 259 95 268 95 L268 95 Z M69 83 C88 83 118 105 170 150 C225 199 258 236 258 242 C258 248 224 286 169 335 C117 379 88 400 69 400 C58 400 51 392 51 383 C51 369 76 346 135 300 C162 279 186 262 213 242 C187 224 164 206 137 185 C76 139 51 115 51 101 C51 91 58 83 69 83 L69 83 Z " />
<glyph glyph-name="questiondown" unicode="&#xbf;" horiz-adv-x="458" d="M246 577 L260 577 C282 577 289 585 289 606 L289 621 C289 642 281 650 260 650 L246 650 C224 650 216 642 216 621 L216 606 C216 585 224 577 246 577 L246 577 Z M220 -10 C291 -10 341 15 375 49 C409 83 422 127 422 146 C422 173 388 178 386 175 C375 105 329 34 222 34 C129 34 80 85 80 152 C80 211 120 239 164 268 C216 303 274 345 277 458 C277 470 269 475 256 475 C244 475 235 471 235 461 C235 367 182 332 129 296 C80 263 30 227 30 148 C30 62 100 -10 220 -10 L220 -10 Z " />
<glyph glyph-name="Agrave" unicode="&#xc0;" horiz-adv-x="597" d="M15 12 C13 5 55 -22 72 21 L153 224 L442 224 L523 21 C538 -21 584 4 581 12 L336 633 C331 645 322 651 298 651 C275 651 266 645 261 633 L15 12 Z M169 268 L298 595 L426 268 L169 268 Z M339 718 C342 723 295 779 225 831 C203 848 191 853 180 853 C169 853 159 845 159 833 C159 820 167 809 197 787 C269 735 335 714 339 718 L339 718 Z " />
<glyph glyph-name="Aacute" unicode="&#xc1;" horiz-adv-x="597" d="M15 12 C13 5 55 -22 72 21 L153 224 L442 224 L523 21 C538 -21 584 4 581 12 L336 633 C331 645 322 651 298 651 C275 651 266 645 261 633 L15 12 Z M169 268 L298 595 L426 268 L169 268 Z M248 721 C252 717 319 738 390 790 C420 812 429 823 429 836 C429 848 419 856 407 856 C396 856 385 851 362 834 C293 782 245 726 248 721 L248 721 Z " />
<glyph glyph-name="Acircumflex" unicode="&#xc2;" horiz-adv-x="597" d="M15 12 C13 5 55 -22 72 21 L153 224 L442 224 L523 21 C538 -21 584 4 581 12 L336 633 C331 645 322 651 298 651 C275 651 266 645 261 633 L15 12 Z M169 268 L298 595 L426 268 L169 268 Z M194 711 C207 711 224 728 257 773 C273 795 283 808 297 827 C312 807 323 793 337 774 C375 725 389 711 402 711 C411 711 417 718 417 728 C417 744 398 769 365 807 C330 847 300 870 298 870 C296 870 267 848 229 805 C196 767 178 744 178 728 C178 718 185 711 194 711 L194 711 Z " />
<glyph glyph-name="Atilde" unicode="&#xc3;" horiz-adv-x="597" d="M15 12 C13 5 55 -22 72 21 L153 224 L442 224 L523 21 C538 -21 584 4 581 12 L336 633 C331 645 322 651 298 651 C275 651 266 645 261 633 L15 12 Z M169 268 L298 595 L426 268 L169 268 Z M363 716 C410 716 434 756 437 815 C432 819 426 822 420 822 C408 822 403 814 399 799 C393 772 384 757 365 757 C349 757 338 766 318 786 C298 808 275 827 241 827 C195 827 171 788 167 729 C173 725 178 722 185 722 C197 722 202 729 206 745 C212 772 220 787 240 787 C255 787 266 778 286 758 C307 736 330 716 363 716 L363 716 Z " />
<glyph glyph-name="Adieresis" unicode="&#xc4;" horiz-adv-x="597" d="M15 12 C13 5 55 -22 72 21 L153 224 L442 224 L523 21 C538 -21 584 4 581 12 L336 633 C331 645 322 651 298 651 C275 651 266 645 261 633 L15 12 Z M169 268 L298 595 L426 268 L169 268 Z M379 717 C401 717 416 731 416 755 C416 779 401 792 378 792 C355 792 341 779 341 755 C341 731 355 717 379 717 L379 717 Z M220 717 C242 717 257 731 257 755 C257 779 243 792 219 792 C197 792 182 779 182 755 C182 731 197 717 220 717 L220 717 Z " />
<glyph glyph-name="Aring" unicode="&#xc5;" horiz-adv-x="597" d="M15 12 C13 5 55 -22 72 21 L153 224 L442 224 L523 21 C538 -21 584 4 581 12 L338 624 C379 638 406 675 406 722 C406 784 362 831 299 831 C236 831 191 783 191 722 C191 675 217 638 257 624 L15 12 Z M298 647 C257 647 227 680 227 722 C227 765 257 798 298 798 C339 798 369 765 369 722 C369 679 339 647 298 647 L298 647 Z M169 268 L298 597 L426 268 L169 268 Z " />
<glyph glyph-name="AE" unicode="&#xc6;" horiz-adv-x="844" d="M560 0 L785 0 C800 0 808 7 808 21 L808 26 C808 39 800 45 785 45 L567 45 L463 309 L701 309 C716 309 725 316 725 330 L725 334 C725 348 716 355 701 355 L444 355 C444 355 347 602 346 602 L772 602 C787 602 795 608 795 622 L795 627 C795 640 787 647 772 647 L290 647 C273 647 263 637 257 624 L15 12 C13 5 55 -22 72 21 L152 224 L443 224 L518 28 C526 9 535 0 560 0 L560 0 Z M169 268 L298 595 L426 268 L169 268 Z " />
<glyph glyph-name="Ccedilla" unicode="&#xc7;" horiz-adv-x="657" d="M368 -10 C466 -10 539 27 577 66 C607 95 621 128 621 143 C621 168 590 175 588 172 C564 100 489 33 370 33 C209 33 100 156 100 323 C100 492 209 614 367 614 C466 614 547 562 581 490 C583 488 610 494 610 520 C610 533 598 559 576 581 C538 619 470 657 369 657 C179 657 48 517 48 322 C48 128 176 -10 368 -10 L368 -10 Z M293 -213 L370 -104 C381 -90 389 -81 389 -73 L389 -70 C389 -56 377 -48 364 -48 L360 -48 C341 -48 337 -58 330 -74 L268 -201 C261 -216 287 -220 293 -213 L293 -213 Z " />
<glyph glyph-name="Egrave" unicode="&#xc8;" horiz-adv-x="564" d="M108 0 L505 0 C520 0 528 7 528 21 L528 26 C528 39 520 45 505 45 L128 45 L128 310 L413 310 C428 310 436 317 436 331 L436 334 C436 347 428 354 413 354 L128 354 L128 602 L496 602 C511 602 519 608 519 622 L519 627 C519 640 511 647 496 647 L108 647 C91 647 79 634 79 617 L79 30 C79 13 91 0 108 0 L108 0 Z M367 721 C370 726 323 782 253 834 C231 851 219 856 208 856 C197 856 187 848 187 836 C187 823 195 812 225 790 C297 738 363 717 367 721 L367 721 Z " />
<glyph glyph-name="Eacute" unicode="&#xc9;" horiz-adv-x="564" d="M108 0 L505 0 C520 0 528 7 528 21 L528 26 C528 39 520 45 505 45 L128 45 L128 310 L413 310 C428 310 436 317 436 331 L436 334 C436 347 428 354 413 354 L128 354 L128 602 L496 602 C511 602 519 608 519 622 L519 627 C519 640 511 647 496 647 L108 647 C91 647 79 634 79 617 L79 30 C79 13 91 0 108 0 L108 0 Z M231 721 C235 717 302 738 373 790 C403 812 412 823 412 836 C412 848 402 856 390 856 C379 856 368 851 345 834 C276 782 228 726 231 721 L231 721 Z " />
<glyph glyph-name="Ecircumflex" unicode="&#xca;" horiz-adv-x="564" d="M108 0 L505 0 C520 0 528 7 528 21 L528 26 C528 39 520 45 505 45 L128 45 L128 310 L413 310 C428 310 436 317 436 331 L436 334 C436 347 428 354 413 354 L128 354 L128 602 L496 602 C511 602 519 608 519 622 L519 627 C519 640 511 647 496 647 L108 647 C91 647 79 634 79 617 L79 30 C79 13 91 0 108 0 L108 0 Z M198 719 C211 719 228 736 261 781 C277 803 287 816 301 835 C316 815 327 801 341 782 C379 733 393 719 406 719 C415 719 421 726 421 736 C421 752 402 777 369 815 C334 855 304 878 302 878 C300 878 271 856 233 813 C200 775 182 752 182 736 C182 726 189 719 198 719 L198 719 Z " />
<glyph glyph-name="Edieresis" unicode="&#xcb;" horiz-adv-x="564" d="M108 0 L505 0 C520 0 528 7 528 21 L528 26 C528 39 520 45 505 45 L128 45 L128 310 L413 310 C428 310 436 317 436 331 L436 334 C436 347 428 354 413 354 L128 354 L128 602 L496 602 C511 602 519 608 519 622 L519 627 C519 640 511 647 496 647 L108 647 C91 647 79 634 79 617 L79 30 C79 13 91 0 108 0 L108 0 Z M381 720 C403 720 418 734 418 758 C418 782 403 795 380 795 C357 795 343 782 343 758 C343 734 357 720 381 720 L381 720 Z M222 720 C244 720 259 734 259 758 C259 782 245 795 221 795 C199 795 184 782 184 758 C184 734 199 720 222 720 L222 720 Z " />
<glyph glyph-name="Igrave" unicode="&#xcc;" horiz-adv-x="227" d="M110 -3 L117 -3 C131 -3 138 4 138 20 L138 627 C138 642 131 650 117 650 L110 650 C96 650 89 642 89 627 L89 20 C89 4 96 -3 110 -3 L110 -3 Z M160 718 C163 723 116 779 46 831 C24 848 12 853 1 853 C-10 853 -20 845 -20 833 C-20 820 -12 809 18 787 C90 735 156 714 160 718 L160 718 Z " />
<glyph glyph-name="Iacute" unicode="&#xcd;" horiz-adv-x="227" d="M110 -3 L117 -3 C131 -3 138 4 138 20 L138 627 C138 642 131 650 117 650 L110 650 C96 650 89 642 89 627 L89 20 C89 4 96 -3 110 -3 L110 -3 Z M67 718 C71 714 138 735 209 787 C239 809 248 820 248 833 C248 845 238 853 226 853 C215 853 204 848 181 831 C112 779 64 723 67 718 L67 718 Z " />
<glyph glyph-name="Icircumflex" unicode="&#xce;" horiz-adv-x="227" d="M110 -3 L117 -3 C131 -3 138 4 138 20 L138 627 C138 642 131 650 117 650 L110 650 C96 650 89 642 89 627 L89 20 C89 4 96 -3 110 -3 L110 -3 Z M9 716 C22 716 39 733 72 778 C88 800 98 813 112 832 C127 812 138 798 152 779 C190 730 204 716 217 716 C226 716 232 723 232 733 C232 749 213 774 180 812 C145 852 115 875 113 875 C111 875 82 853 44 810 C11 772 -7 749 -7 733 C-7 723 0 716 9 716 L9 716 Z " />
<glyph glyph-name="Idieresis" unicode="&#xcf;" horiz-adv-x="227" d="M110 -3 L117 -3 C131 -3 138 4 138 20 L138 627 C138 642 131 650 117 650 L110 650 C96 650 89 642 89 627 L89 20 C89 4 96 -3 110 -3 L110 -3 Z M193 720 C215 720 230 734 230 758 C230 782 215 795 192 795 C169 795 155 782 155 758 C155 734 169 720 193 720 L193 720 Z M34 720 C56 720 71 734 71 758 C71 782 57 795 33 795 C11 795 -4 782 -4 758 C-4 734 11 720 34 720 L34 720 Z " />
<glyph glyph-name="Eth" unicode="&#xd0;" horiz-adv-x="711" d="M151 0 L302 0 C525 0 663 124 663 325 C663 525 528 647 307 647 L151 647 C134 647 121 634 121 617 L121 346 L45 346 C27 346 22 338 22 326 L22 321 C22 309 27 302 45 302 L121 302 L121 30 C121 13 134 0 151 0 L151 0 Z M171 45 L171 302 L398 302 C415 302 421 309 421 321 L421 326 C421 338 415 346 398 346 L171 346 L171 602 L311 602 C502 602 612 496 612 324 C612 149 502 45 308 45 L171 45 Z " />
<glyph glyph-name="Ntilde" unicode="&#xd1;" horiz-adv-x="673" d="M98 -3 L105 -3 C120 -3 126 4 126 20 L126 585 L531 17 C541 3 546 -3 565 -3 L569 -3 C585 -3 595 11 595 30 L595 627 C595 643 589 650 575 650 L568 650 C553 650 548 643 548 627 L548 77 L158 623 C146 640 137 650 119 650 L106 650 C88 650 79 635 79 616 L79 20 C79 4 84 -3 98 -3 L98 -3 Z M402 713 C449 713 473 753 476 812 C471 816 465 819 459 819 C447 819 442 811 438 796 C432 769 423 754 404 754 C388 754 377 763 357 783 C337 805 314 824 280 824 C234 824 210 785 206 726 C212 722 217 719 224 719 C236 719 241 726 245 742 C251 769 259 784 279 784 C294 784 305 775 325 755 C346 733 369 713 402 713 L402 713 Z " />
<glyph glyph-name="Ograve" unicode="&#xd2;" horiz-adv-x="735" d="M366 -10 C557 -10 686 130 686 324 C686 518 558 657 368 657 C179 657 48 516 48 322 C48 128 176 -10 366 -10 L366 -10 Z M368 33 C209 33 100 156 100 323 C100 491 208 614 367 614 C526 614 635 489 635 323 C635 155 527 33 368 33 L368 33 Z M410 721 C413 726 366 782 296 834 C274 851 262 856 251 856 C240 856 230 848 230 836 C230 823 238 812 268 790 C340 738 406 717 410 721 L410 721 Z " />
<glyph glyph-name="Oacute" unicode="&#xd3;" horiz-adv-x="735" d="M366 -10 C557 -10 686 130 686 324 C686 518 558 657 368 657 C179 657 48 516 48 322 C48 128 176 -10 366 -10 L366 -10 Z M368 33 C209 33 100 156 100 323 C100 491 208 614 367 614 C526 614 635 489 635 323 C635 155 527 33 368 33 L368 33 Z M321 721 C325 717 392 738 463 790 C493 812 502 823 502 836 C502 848 492 856 480 856 C469 856 458 851 435 834 C366 782 318 726 321 721 L321 721 Z " />
<glyph glyph-name="Ocircumflex" unicode="&#xd4;" horiz-adv-x="735" d="M366 -10 C557 -10 686 130 686 324 C686 518 558 657 368 657 C179 657 48 516 48 322 C48 128 176 -10 366 -10 L366 -10 Z M368 33 C209 33 100 156 100 323 C100 491 208 614 367 614 C526 614 635 489 635 323 C635 155 527 33 368 33 L368 33 Z M261 719 C274 719 291 736 324 781 C340 803 350 816 364 835 C379 815 390 801 404 782 C442 733 456 719 469 719 C478 719 484 726 484 736 C484 752 465 777 432 815 C397 855 367 878 365 878 C363 878 334 856 296 813 C263 775 245 752 245 736 C245 726 252 719 261 719 L261 719 Z " />
<glyph glyph-name="Otilde" unicode="&#xd5;" horiz-adv-x="735" d="M366 -10 C557 -10 686 130 686 324 C686 518 558 657 368 657 C179 657 48 516 48 322 C48 128 176 -10 366 -10 L366 -10 Z M368 33 C209 33 100 156 100 323 C100 491 208 614 367 614 C526 614 635 489 635 323 C635 155 527 33 368 33 L368 33 Z M426 718 C473 718 497 758 500 817 C495 821 489 824 483 824 C471 824 466 816 462 801 C456 774 447 759 428 759 C412 759 401 768 381 788 C361 810 338 829 304 829 C258 829 234 790 230 731 C236 727 241 724 248 724 C260 724 265 731 269 747 C275 774 283 789 303 789 C318 789 329 780 349 760 C370 738 393 718 426 718 L426 718 Z " />
<glyph glyph-name="Odieresis" unicode="&#xd6;" horiz-adv-x="735" d="M366 -10 C557 -10 686 130 686 324 C686 518 558 657 368 657 C179 657 48 516 48 322 C48 128 176 -10 366 -10 L366 -10 Z M368 33 C209 33 100 156 100 323 C100 491 208 614 367 614 C526 614 635 489 635 323 C635 155 527 33 368 33 L368 33 Z M445 720 C467 720 482 734 482 758 C482 782 467 795 444 795 C421 795 407 782 407 758 C407 734 421 720 445 720 L445 720 Z M286 720 C308 720 323 734 323 758 C323 782 309 795 285 795 C263 795 248 782 248 758 C248 734 263 720 286 720 L286 720 Z " />
<glyph glyph-name="multiply" unicode="&#xd7;" horiz-adv-x="520" d="M98 91 C106 83 116 80 130 94 L262 234 L394 94 C407 80 418 83 426 91 L429 94 C437 102 439 113 427 125 L292 265 L427 403 C439 415 437 426 429 434 L426 437 C418 445 407 448 394 434 L262 295 L130 434 C116 448 106 445 98 437 L95 434 C87 426 84 415 96 403 L232 265 L96 125 C84 113 87 102 95 94 L98 91 Z " />
<glyph glyph-name="Oslash" unicode="&#xd8;" horiz-adv-x="735" d="M71 -39 C71 -39 160 62 160 61 C213 16 283 -10 364 -10 C555 -10 682 137 682 324 C682 416 652 498 598 557 L650 617 C665 633 668 644 668 654 C668 672 647 683 644 680 L565 589 C513 632 445 657 366 657 C176 657 48 509 48 322 C48 233 77 154 127 95 L65 24 C50 8 46 -4 46 -13 C46 -31 68 -42 71 -39 L71 -39 Z M162 130 C121 181 98 248 98 323 C98 486 203 612 365 612 C432 612 489 590 532 554 L162 130 Z M366 35 C297 35 237 58 192 97 C193 97 563 522 563 522 C608 471 632 401 632 323 C632 160 528 35 366 35 L366 35 Z " />
<glyph glyph-name="Ugrave" unicode="&#xd9;" horiz-adv-x="631" d="M314 -10 C476 -10 562 81 562 254 L562 627 C562 643 556 650 543 650 L534 650 C519 650 513 643 513 627 L513 256 C513 108 449 35 316 35 C184 35 118 110 118 255 L118 627 C118 642 111 650 97 650 L90 650 C76 650 69 642 69 627 L69 252 C69 80 153 -10 314 -10 L314 -10 Z M368 709 C371 714 324 770 254 822 C232 839 220 844 209 844 C198 844 188 836 188 824 C188 811 196 800 226 778 C298 726 364 705 368 709 L368 709 Z " />
<glyph glyph-name="Uacute" unicode="&#xda;" horiz-adv-x="631" d="M314 -10 C476 -10 562 81 562 254 L562 627 C562 643 556 650 543 650 L534 650 C519 650 513 643 513 627 L513 256 C513 108 449 35 316 35 C184 35 118 110 118 255 L118 627 C118 642 111 650 97 650 L90 650 C76 650 69 642 69 627 L69 252 C69 80 153 -10 314 -10 L314 -10 Z M264 709 C268 705 335 726 406 778 C436 800 445 811 445 824 C445 836 435 844 423 844 C412 844 401 839 378 822 C309 770 261 714 264 709 L264 709 Z " />
<glyph glyph-name="Ucircumflex" unicode="&#xdb;" horiz-adv-x="631" d="M314 -10 C476 -10 562 81 562 254 L562 627 C562 643 556 650 543 650 L534 650 C519 650 513 643 513 627 L513 256 C513 108 449 35 316 35 C184 35 118 110 118 255 L118 627 C118 642 111 650 97 650 L90 650 C76 650 69 642 69 627 L69 252 C69 80 153 -10 314 -10 L314 -10 Z M209 714 C222 714 239 731 272 776 C288 798 298 811 312 830 C327 810 338 796 352 777 C390 728 404 714 417 714 C426 714 432 721 432 731 C432 747 413 772 380 810 C345 850 315 873 313 873 C311 873 282 851 244 808 C211 770 193 747 193 731 C193 721 200 714 209 714 L209 714 Z " />
<glyph glyph-name="Udieresis" unicode="&#xdc;" horiz-adv-x="631" d="M314 -10 C476 -10 562 81 562 254 L562 627 C562 643 556 650 543 650 L534 650 C519 650 513 643 513 627 L513 256 C513 108 449 35 316 35 C184 35 118 110 118 255 L118 627 C118 642 111 650 97 650 L90 650 C76 650 69 642 69 627 L69 252 C69 80 153 -10 314 -10 L314 -10 Z M393 717 C415 717 430 731 430 755 C430 779 415 792 392 792 C369 792 355 779 355 755 C355 731 369 717 393 717 L393 717 Z M234 717 C256 717 271 731 271 755 C271 779 257 792 233 792 C211 792 196 779 196 755 C196 731 211 717 234 717 L234 717 Z " />
<glyph glyph-name="Yacute" unicode="&#xdd;" horiz-adv-x="538" d="M265 -3 L272 -3 C286 -3 294 4 294 20 L294 277 L529 629 C531 638 498 669 474 632 L269 322 L64 633 C42 667 6 641 8 629 L244 277 L244 20 C244 4 251 -3 265 -3 L265 -3 Z M213 708 C217 704 284 725 355 777 C385 799 394 810 394 823 C394 835 384 843 372 843 C361 843 350 838 327 821 C258 769 210 713 213 708 L213 708 Z " />
<glyph glyph-name="Thorn" unicode="&#xde;" horiz-adv-x="552" d="M100 -3 L107 -3 C121 -3 128 4 128 20 L128 133 L270 133 C430 133 511 204 511 328 C511 449 427 521 275 521 L128 521 L128 627 C128 642 121 650 107 650 L100 650 C86 650 79 642 79 627 L79 20 C79 4 86 -3 100 -3 L100 -3 Z M128 177 L128 476 L275 476 C398 476 460 422 460 326 C460 231 398 177 274 177 L128 177 Z " />
<glyph glyph-name="germandbls" unicode="&#xdf;" horiz-adv-x="514" d="M304 -10 C402 -10 479 65 479 167 C479 266 426 340 274 375 C389 383 442 437 442 527 C442 618 371 685 263 685 C144 685 69 611 69 462 C69 466 69 20 69 20 C69 3 78 -3 91 -3 L96 -3 C108 -3 117 3 117 20 C117 20 117 465 117 462 C117 586 171 642 262 642 C345 642 395 593 395 524 C395 442 339 408 231 406 C227 403 218 391 218 376 C218 356 228 344 260 336 C388 306 431 245 431 167 C431 89 376 32 305 32 C242 32 207 59 186 90 C184 92 166 80 166 62 C166 54 172 41 185 28 C206 7 246 -10 304 -10 L304 -10 Z " />
<glyph glyph-name="agrave" unicode="&#xe0;" horiz-adv-x="501" d="M201 -9 C288 -9 358 33 389 94 L389 45 C389 6 403 -3 419 -3 C428 -3 436 1 436 2 L436 300 C436 414 365 483 247 483 C166 483 113 453 83 423 C66 407 56 387 56 377 C56 352 82 349 83 349 C109 400 162 439 244 439 C335 439 389 388 389 299 L389 275 L379 275 C141 271 37 227 37 120 C37 41 100 -9 201 -9 L201 -9 Z M205 30 C132 30 86 64 86 120 C86 200 170 233 376 237 L389 237 L389 190 C389 100 308 30 205 30 L205 30 Z M315 546 C318 551 271 607 201 659 C179 676 167 681 156 681 C145 681 135 673 135 661 C135 648 143 637 173 615 C245 563 311 542 315 546 L315 546 Z " />
<glyph glyph-name="aacute" unicode="&#xe1;" horiz-adv-x="501" d="M201 -9 C288 -9 358 33 389 94 L389 45 C389 6 403 -3 419 -3 C428 -3 436 1 436 2 L436 300 C436 414 365 483 247 483 C166 483 113 453 83 423 C66 407 56 387 56 377 C56 352 82 349 83 349 C109 400 162 439 244 439 C335 439 389 388 389 299 L389 275 L379 275 C141 271 37 227 37 120 C37 41 100 -9 201 -9 L201 -9 Z M205 30 C132 30 86 64 86 120 C86 200 170 233 376 237 L389 237 L389 190 C389 100 308 30 205 30 L205 30 Z M182 546 C186 542 253 563 324 615 C354 637 363 648 363 661 C363 673 353 681 341 681 C330 681 319 676 296 659 C227 607 179 551 182 546 L182 546 Z " />
<glyph glyph-name="acircumflex" unicode="&#xe2;" horiz-adv-x="501" d="M201 -9 C288 -9 358 33 389 94 L389 45 C389 6 403 -3 419 -3 C428 -3 436 1 436 2 L436 300 C436 414 365 483 247 483 C166 483 113 453 83 423 C66 407 56 387 56 377 C56 352 82 349 83 349 C109 400 162 439 244 439 C335 439 389 388 389 299 L389 275 L379 275 C141 271 37 227 37 120 C37 41 100 -9 201 -9 L201 -9 Z M205 30 C132 30 86 64 86 120 C86 200 170 233 376 237 L389 237 L389 190 C389 100 308 30 205 30 L205 30 Z M143 544 C156 544 173 561 206 606 C222 628 232 641 246 660 C261 640 272 626 286 607 C324 558 338 544 351 544 C360 544 366 551 366 561 C366 577 347 602 314 640 C279 680 249 703 247 703 C245 703 216 681 178 638 C145 600 127 577 127 561 C127 551 134 544 143 544 L143 544 Z " />
<glyph glyph-name="atilde" unicode="&#xe3;" horiz-adv-x="501" d="M201 -9 C288 -9 358 33 389 94 L389 45 C389 6 403 -3 419 -3 C428 -3 436 1 436 2 L436 300 C436 414 365 483 247 483 C166 483 113 453 83 423 C66 407 56 387 56 377 C56 352 82 349 83 349 C109 400 162 439 244 439 C335 439 389 388 389 299 L389 275 L379 275 C141 271 37 227 37 120 C37 41 100 -9 201 -9 L201 -9 Z M205 30 C132 30 86 64 86 120 C86 200 170 233 376 237 L389 237 L389 190 C389 100 308 30 205 30 L205 30 Z M307 543 C354 543 378 583 381 642 C376 646 370 649 364 649 C352 649 347 641 343 626 C337 599 328 584 309 584 C293 584 282 593 262 613 C242 635 219 654 185 654 C139 654 115 615 111 556 C117 552 122 549 129 549 C141 549 146 556 150 572 C156 599 164 614 184 614 C199 614 210 605 230 585 C251 563 274 543 307 543 L307 543 Z " />
<glyph glyph-name="adieresis" unicode="&#xe4;" horiz-adv-x="501" d="M201 -9 C288 -9 358 33 389 94 L389 45 C389 6 403 -3 419 -3 C428 -3 436 1 436 2 L436 300 C436 414 365 483 247 483 C166 483 113 453 83 423 C66 407 56 387 56 377 C56 352 82 349 83 349 C109 400 162 439 244 439 C335 439 389 388 389 299 L389 275 L379 275 C141 271 37 227 37 120 C37 41 100 -9 201 -9 L201 -9 Z M205 30 C132 30 86 64 86 120 C86 200 170 233 376 237 L389 237 L389 190 C389 100 308 30 205 30 L205 30 Z M328 545 C350 545 365 559 365 583 C365 607 350 620 327 620 C304 620 290 607 290 583 C290 559 304 545 328 545 L328 545 Z M169 545 C191 545 206 559 206 583 C206 607 192 620 168 620 C146 620 131 607 131 583 C131 559 146 545 169 545 L169 545 Z " />
<glyph glyph-name="aring" unicode="&#xe5;" horiz-adv-x="501" d="M201 -9 C288 -9 358 33 389 94 L389 45 C389 6 403 -3 419 -3 C428 -3 436 1 436 2 L436 300 C436 414 365 483 247 483 C166 483 113 453 83 423 C66 407 56 387 56 377 C56 352 82 349 83 349 C109 400 162 439 244 439 C335 439 389 388 389 299 L389 275 L379 275 C141 271 37 227 37 120 C37 41 100 -9 201 -9 L201 -9 Z M205 30 C132 30 86 64 86 120 C86 200 170 233 376 237 L389 237 L389 190 C389 100 308 30 205 30 L205 30 Z M249 543 C311 543 357 591 357 652 C357 714 313 761 250 761 C188 761 142 714 142 652 C142 590 186 543 249 543 L249 543 Z M249 577 C208 577 178 610 178 652 C178 695 208 728 249 728 C290 728 320 695 320 652 C320 609 290 577 249 577 L249 577 Z " />
<glyph glyph-name="ae" unicode="&#xe6;" horiz-adv-x="867" d="M205 30 C132 30 86 64 86 120 C86 201 170 234 377 238 L389 238 C389 238 389 176 389 190 C389 96 308 30 205 30 L205 30 Z M432 270 C446 370 520 441 616 441 C711 441 777 372 782 270 L432 270 Z M430 229 L811 229 C826 229 832 232 832 247 L832 251 C832 389 744 483 616 483 C525 483 453 433 420 354 C402 436 341 483 247 483 C167 483 113 453 83 423 C66 407 56 387 56 377 C56 352 82 349 83 349 C109 400 162 439 244 439 C335 439 389 388 389 297 C389 292 389 278 389 276 L379 276 C141 272 37 227 37 120 C37 41 100 -10 201 -10 C301 -10 384 46 410 131 C441 45 517 -10 623 -10 C701 -10 758 20 788 49 C809 70 818 90 818 100 C818 123 792 130 790 128 C766 81 719 32 623 32 C511 32 433 113 430 229 L430 229 Z " />
<glyph glyph-name="ccedilla" unicode="&#xe7;" horiz-adv-x="512" d="M295 -10 C373 -10 426 18 457 50 C484 77 495 104 495 118 C495 140 466 144 464 142 C442 85 393 32 295 32 C181 32 102 121 102 237 C102 353 182 441 295 441 C393 441 442 388 464 331 C466 329 495 333 495 355 C495 369 484 396 459 422 C427 454 374 483 295 483 C154 483 54 378 54 237 C54 96 154 -10 295 -10 L295 -10 Z M198 -213 L275 -104 C286 -90 294 -81 294 -73 L294 -70 C294 -56 282 -48 269 -48 L265 -48 C246 -48 242 -58 235 -74 L173 -201 C166 -216 192 -220 198 -213 L198 -213 Z " />
<glyph glyph-name="egrave" unicode="&#xe8;" horiz-adv-x="525" d="M87 271 C101 370 175 441 273 441 C370 441 436 372 440 271 L87 271 Z M84 230 L469 230 C484 230 490 233 490 247 L490 252 C490 390 403 483 273 483 C137 483 37 376 37 235 C37 93 134 -10 279 -10 C358 -10 417 20 446 49 C467 70 476 90 476 100 C476 123 451 130 448 128 C424 81 378 32 279 32 C166 32 86 114 84 230 L84 230 Z M322 546 C325 551 278 607 208 659 C186 676 174 681 163 681 C152 681 142 673 142 661 C142 648 150 637 180 615 C252 563 318 542 322 546 L322 546 Z " />
<glyph glyph-name="eacute" unicode="&#xe9;" horiz-adv-x="525" d="M87 271 C101 370 175 441 273 441 C370 441 436 372 440 271 L87 271 Z M84 230 L469 230 C484 230 490 233 490 247 L490 252 C490 390 403 483 273 483 C137 483 37 376 37 235 C37 93 134 -10 279 -10 C358 -10 417 20 446 49 C467 70 476 90 476 100 C476 123 451 130 448 128 C424 81 378 32 279 32 C166 32 86 114 84 230 L84 230 Z M213 546 C217 542 284 563 355 615 C385 637 394 648 394 661 C394 673 384 681 372 681 C361 681 350 676 327 659 C258 607 210 551 213 546 L213 546 Z " />
<glyph glyph-name="ecircumflex" unicode="&#xea;" horiz-adv-x="525" d="M87 271 C101 370 175 441 273 441 C370 441 436 372 440 271 L87 271 Z M84 230 L469 230 C484 230 490 233 490 247 L490 252 C490 390 403 483 273 483 C137 483 37 376 37 235 C37 93 134 -10 279 -10 C358 -10 417 20 446 49 C467 70 476 90 476 100 C476 123 451 130 448 128 C424 81 378 32 279 32 C166 32 86 114 84 230 L84 230 Z M166 544 C179 544 196 561 229 606 C245 628 255 641 269 660 C284 640 295 626 309 607 C347 558 361 544 374 544 C383 544 389 551 389 561 C389 577 370 602 337 640 C302 680 272 703 270 703 C268 703 239 681 201 638 C168 600 150 577 150 561 C150 551 157 544 166 544 L166 544 Z " />
<glyph glyph-name="edieresis" unicode="&#xeb;" horiz-adv-x="525" d="M87 271 C101 370 175 441 273 441 C370 441 436 372 440 271 L87 271 Z M84 230 L469 230 C484 230 490 233 490 247 L490 252 C490 390 403 483 273 483 C137 483 37 376 37 235 C37 93 134 -10 279 -10 C358 -10 417 20 446 49 C467 70 476 90 476 100 C476 123 451 130 448 128 C424 81 378 32 279 32 C166 32 86 114 84 230 L84 230 Z M350 545 C372 545 387 559 387 583 C387 607 372 620 349 620 C326 620 312 607 312 583 C312 559 326 545 350 545 L350 545 Z M191 545 C213 545 228 559 228 583 C228 607 214 620 190 620 C168 620 153 607 153 583 C153 559 168 545 191 545 L191 545 Z " />
<glyph glyph-name="igrave" unicode="&#xec;" horiz-adv-x="195" d="M95 -3 L100 -3 C113 -3 122 2 122 20 L122 453 C122 471 113 476 100 476 L95 476 C82 476 74 471 74 453 L74 20 C74 2 82 -3 95 -3 L95 -3 Z M150 546 C153 551 106 607 36 659 C14 676 2 681 -9 681 C-20 681 -30 673 -30 661 C-30 648 -22 637 8 615 C80 563 146 542 150 546 L150 546 Z " />
<glyph glyph-name="iacute" unicode="&#xed;" horiz-adv-x="195" d="M95 -3 L100 -3 C113 -3 122 2 122 20 L122 453 C122 471 113 476 100 476 L95 476 C82 476 74 471 74 453 L74 20 C74 2 82 -3 95 -3 L95 -3 Z M52 546 C56 542 123 563 194 615 C224 637 233 648 233 661 C233 673 223 681 211 681 C200 681 189 676 166 659 C97 607 49 551 52 546 L52 546 Z " />
<glyph glyph-name="icircumflex" unicode="&#xee;" horiz-adv-x="195" d="M95 -3 L100 -3 C113 -3 122 2 122 20 L122 453 C122 471 113 476 100 476 L95 476 C82 476 74 471 74 453 L74 20 C74 2 82 -3 95 -3 L95 -3 Z M-3 541 C10 541 27 558 60 603 C76 625 86 638 100 657 C115 637 126 623 140 604 C178 555 192 541 205 541 C214 541 220 548 220 558 C220 574 201 599 168 637 C133 677 103 700 101 700 C99 700 70 678 32 635 C-1 597 -19 574 -19 558 C-19 548 -12 541 -3 541 L-3 541 Z " />
<glyph glyph-name="idieresis" unicode="&#xef;" horiz-adv-x="195" d="M95 -3 L100 -3 C113 -3 122 2 122 20 L122 453 C122 471 113 476 100 476 L95 476 C82 476 74 471 74 453 L74 20 C74 2 82 -3 95 -3 L95 -3 Z M181 545 C203 545 218 559 218 583 C218 607 203 620 180 620 C157 620 143 607 143 583 C143 559 157 545 181 545 L181 545 Z M22 545 C44 545 59 559 59 583 C59 607 45 620 21 620 C-1 620 -16 607 -16 583 C-16 559 -1 545 22 545 L22 545 Z " />
<glyph glyph-name="eth" unicode="&#xf0;" horiz-adv-x="553" d="M270 -10 C416 -10 509 94 509 272 C509 424 446 529 368 593 L469 649 C484 658 486 667 480 677 L478 680 C472 691 464 694 448 685 L334 619 C259 669 177 686 132 686 C93 686 91 646 96 646 C162 644 228 626 285 594 L173 532 C158 523 156 514 163 504 L164 500 C170 490 179 487 193 495 L324 571 C398 517 450 434 460 327 C430 378 358 425 273 425 C136 425 42 343 42 210 C42 73 134 -10 270 -10 L270 -10 Z M270 32 C162 32 91 97 91 211 C91 322 159 384 276 384 C362 384 437 328 460 275 C459 132 400 32 270 32 L270 32 Z " />
<glyph glyph-name="ntilde" unicode="&#xf1;" horiz-adv-x="541" d="M90 -3 L96 -3 C108 -3 117 2 117 20 L117 328 C146 394 205 438 284 438 C377 438 428 373 428 269 L428 20 C428 2 437 -3 449 -3 L455 -3 C467 -3 476 2 476 20 L476 272 C476 399 412 483 286 483 C207 483 147 441 116 385 L116 428 C116 467 102 476 85 476 C76 476 69 472 69 471 L69 20 C69 2 78 -3 90 -3 L90 -3 Z M328 543 C375 543 399 583 402 642 C397 646 391 649 385 649 C373 649 368 641 364 626 C358 599 349 584 330 584 C314 584 303 593 283 613 C263 635 240 654 206 654 C160 654 136 615 132 556 C138 552 143 549 150 549 C162 549 167 556 171 572 C177 599 185 614 205 614 C220 614 231 605 251 585 C272 563 295 543 328 543 L328 543 Z " />
<glyph glyph-name="ograve" unicode="&#xf2;" horiz-adv-x="557" d="M279 -10 C419 -10 520 95 520 235 C520 377 419 483 279 483 C137 483 37 378 37 237 C37 96 137 -10 279 -10 L279 -10 Z M279 32 C167 32 85 121 85 237 C85 353 167 441 279 441 C391 441 472 351 472 235 C472 119 390 32 279 32 L279 32 Z M326 546 C329 551 282 607 212 659 C190 676 178 681 167 681 C156 681 146 673 146 661 C146 648 154 637 184 615 C256 563 322 542 326 546 L326 546 Z " />
<glyph glyph-name="oacute" unicode="&#xf3;" horiz-adv-x="557" d="M279 -10 C419 -10 520 95 520 235 C520 377 419 483 279 483 C137 483 37 378 37 237 C37 96 137 -10 279 -10 L279 -10 Z M279 32 C167 32 85 121 85 237 C85 353 167 441 279 441 C391 441 472 351 472 235 C472 119 390 32 279 32 L279 32 Z M233 546 C237 542 304 563 375 615 C405 637 414 648 414 661 C414 673 404 681 392 681 C381 681 370 676 347 659 C278 607 230 551 233 546 L233 546 Z " />
<glyph glyph-name="ocircumflex" unicode="&#xf4;" horiz-adv-x="557" d="M279 -10 C419 -10 520 95 520 235 C520 377 419 483 279 483 C137 483 37 378 37 237 C37 96 137 -10 279 -10 L279 -10 Z M279 32 C167 32 85 121 85 237 C85 353 167 441 279 441 C391 441 472 351 472 235 C472 119 390 32 279 32 L279 32 Z M175 544 C188 544 205 561 238 606 C254 628 264 641 278 660 C293 640 304 626 318 607 C356 558 370 544 383 544 C392 544 398 551 398 561 C398 577 379 602 346 640 C311 680 281 703 279 703 C277 703 248 681 210 638 C177 600 159 577 159 561 C159 551 166 544 175 544 L175 544 Z " />
<glyph glyph-name="otilde" unicode="&#xf5;" horiz-adv-x="557" d="M279 -10 C419 -10 520 95 520 235 C520 377 419 483 279 483 C137 483 37 378 37 237 C37 96 137 -10 279 -10 L279 -10 Z M279 32 C167 32 85 121 85 237 C85 353 167 441 279 441 C391 441 472 351 472 235 C472 119 390 32 279 32 L279 32 Z M340 543 C387 543 411 583 414 642 C409 646 403 649 397 649 C385 649 380 641 376 626 C370 599 361 584 342 584 C326 584 315 593 295 613 C275 635 252 654 218 654 C172 654 148 615 144 556 C150 552 155 549 162 549 C174 549 179 556 183 572 C189 599 197 614 217 614 C232 614 243 605 263 585 C284 563 307 543 340 543 L340 543 Z " />
<glyph glyph-name="odieresis" unicode="&#xf6;" horiz-adv-x="557" d="M279 -10 C419 -10 520 95 520 235 C520 377 419 483 279 483 C137 483 37 378 37 237 C37 96 137 -10 279 -10 L279 -10 Z M279 32 C167 32 85 121 85 237 C85 353 167 441 279 441 C391 441 472 351 472 235 C472 119 390 32 279 32 L279 32 Z M359 545 C381 545 396 559 396 583 C396 607 381 620 358 620 C335 620 321 607 321 583 C321 559 335 545 359 545 L359 545 Z M200 545 C222 545 237 559 237 583 C237 607 223 620 199 620 C177 620 162 607 162 583 C162 559 177 545 200 545 L200 545 Z " />
<glyph glyph-name="oslash" unicode="&#xf8;" horiz-adv-x="557" d="M63 -32 L131 42 C171 9 223 -10 281 -10 C416 -10 520 99 520 237 C520 301 498 359 460 403 L501 448 C514 463 518 473 518 482 C518 496 499 506 496 504 L431 431 C391 464 339 483 282 483 C146 483 42 373 42 236 C42 172 65 114 102 71 L58 23 C45 9 41 -2 41 -10 C41 -25 61 -34 63 -32 L63 -32 Z M135 105 C107 140 91 186 91 236 C91 351 170 440 281 440 C327 440 368 423 400 396 L135 105 Z M282 33 C235 33 194 50 161 77 L426 369 C455 333 472 287 472 236 C472 121 392 33 282 33 L282 33 Z " />
<glyph glyph-name="ugrave" unicode="&#xf9;" horiz-adv-x="541" d="M254 -10 C334 -10 393 32 425 88 L425 45 C425 6 439 -3 455 -3 C464 -3 472 1 472 2 L472 453 C472 471 463 476 451 476 L445 476 C433 476 424 471 424 453 L424 145 C395 79 336 35 257 35 C164 35 113 100 113 204 L113 453 C113 471 104 476 92 476 L86 476 C74 476 65 471 65 453 L65 201 C65 74 129 -10 254 -10 L254 -10 Z M321 543 C324 548 277 604 207 656 C185 673 173 678 162 678 C151 678 141 670 141 658 C141 645 149 634 179 612 C251 560 317 539 321 543 L321 543 Z " />
<glyph glyph-name="uacute" unicode="&#xfa;" horiz-adv-x="541" d="M254 -10 C334 -10 393 32 425 88 L425 45 C425 6 439 -3 455 -3 C464 -3 472 1 472 2 L472 453 C472 471 463 476 451 476 L445 476 C433 476 424 471 424 453 L424 145 C395 79 336 35 257 35 C164 35 113 100 113 204 L113 453 C113 471 104 476 92 476 L86 476 C74 476 65 471 65 453 L65 201 C65 74 129 -10 254 -10 L254 -10 Z M229 543 C233 539 300 560 371 612 C401 634 410 645 410 658 C410 670 400 678 388 678 C377 678 366 673 343 656 C274 604 226 548 229 543 L229 543 Z " />
<glyph glyph-name="ucircumflex" unicode="&#xfb;" horiz-adv-x="541" d="M254 -10 C334 -10 393 32 425 88 L425 45 C425 6 439 -3 455 -3 C464 -3 472 1 472 2 L472 453 C472 471 463 476 451 476 L445 476 C433 476 424 471 424 453 L424 145 C395 79 336 35 257 35 C164 35 113 100 113 204 L113 453 C113 471 104 476 92 476 L86 476 C74 476 65 471 65 453 L65 201 C65 74 129 -10 254 -10 L254 -10 Z M168 541 C181 541 198 558 231 603 C247 625 257 638 271 657 C286 637 297 623 311 604 C349 555 363 541 376 541 C385 541 391 548 391 558 C391 574 372 599 339 637 C304 677 274 700 272 700 C270 700 241 678 203 635 C170 597 152 574 152 558 C152 548 159 541 168 541 L168 541 Z " />
<glyph glyph-name="udieresis" unicode="&#xfc;" horiz-adv-x="541" d="M254 -10 C334 -10 393 32 425 88 L425 45 C425 6 439 -3 455 -3 C464 -3 472 1 472 2 L472 453 C472 471 463 476 451 476 L445 476 C433 476 424 471 424 453 L424 145 C395 79 336 35 257 35 C164 35 113 100 113 204 L113 453 C113 471 104 476 92 476 L86 476 C74 476 65 471 65 453 L65 201 C65 74 129 -10 254 -10 L254 -10 Z M353 542 C375 542 390 556 390 580 C390 604 375 617 352 617 C329 617 315 604 315 580 C315 556 329 542 353 542 L353 542 Z M194 542 C216 542 231 556 231 580 C231 604 217 617 193 617 C171 617 156 604 156 580 C156 556 171 542 194 542 L194 542 Z " />
<glyph glyph-name="yacute" unicode="&#xfd;" horiz-adv-x="458" d="M167 -193 C180 -193 192 -187 201 -161 L445 463 C445 471 406 497 386 442 L239 54 L73 445 C52 496 14 473 14 462 L196 45 C202 30 209 26 226 26 L142 -180 C141 -183 154 -193 167 -193 L167 -193 Z M185 533 C189 529 256 550 327 602 C357 624 366 635 366 648 C366 660 356 668 344 668 C333 668 322 663 299 646 C230 594 182 538 185 533 L185 533 Z " />
<glyph glyph-name="thorn" unicode="&#xfe;" horiz-adv-x="573" d="M91 -193 L96 -193 C108 -193 117 -187 117 -170 L117 96 C141 42 206 -10 301 -10 C433 -10 529 91 529 238 C529 384 430 483 304 483 C215 483 154 440 117 376 L117 631 C117 669 102 678 85 678 C76 678 69 674 69 673 L69 -170 C69 -187 78 -193 91 -193 L91 -193 Z M297 32 C196 32 116 108 116 203 L116 312 C146 389 208 441 299 441 C403 441 481 355 481 238 C481 116 407 32 297 32 L297 32 Z " />
<glyph glyph-name="ydieresis" unicode="&#xff;" horiz-adv-x="458" d="M167 -193 C180 -193 192 -187 201 -161 L445 463 C445 471 406 497 386 442 L239 54 L73 445 C52 496 14 473 14 462 L196 45 C202 30 209 26 226 26 L142 -180 C141 -183 154 -193 167 -193 L167 -193 Z M311 545 C333 545 348 559 348 583 C348 607 333 620 310 620 C287 620 273 607 273 583 C273 559 287 545 311 545 L311 545 Z M152 545 C174 545 189 559 189 583 C189 607 175 620 151 620 C129 620 114 607 114 583 C114 559 129 545 152 545 L152 545 Z " />
<glyph glyph-name="dotlessi" unicode="&#x131;" horiz-adv-x="195" d="M95 -3 L100 -3 C113 -3 122 2 122 20 L122 453 C122 471 113 476 100 476 L95 476 C82 476 74 471 74 453 L74 20 C74 2 82 -3 95 -3 L95 -3 Z " />
<glyph glyph-name="Lslash" unicode="&#x141;" horiz-adv-x="527" d="M150 0 L486 0 C501 0 509 7 509 20 L509 24 C509 38 501 45 486 45 L170 45 L170 261 C170 262 353 321 353 321 C380 329 389 340 389 352 C389 364 382 375 379 374 L170 307 L170 627 C170 643 162 650 148 650 L141 650 C127 650 120 643 120 627 C120 627 120 292 120 291 L58 271 C31 263 22 252 22 240 C22 228 30 217 33 218 L120 246 L120 30 C120 13 132 0 150 0 L150 0 Z " />
<glyph glyph-name="lslash" unicode="&#x142;" horiz-adv-x="316" d="M153 -3 L158 -3 C171 -3 179 3 179 20 L179 271 C179 272 263 298 263 298 C290 306 298 317 298 328 C298 337 290 351 288 351 L179 316 L179 631 C179 669 164 678 148 678 C139 678 131 674 131 673 L131 302 L55 278 C27 270 20 259 20 248 C20 239 28 225 30 225 L131 257 L131 20 C131 3 140 -3 153 -3 L153 -3 Z " />
<glyph glyph-name="OE" unicode="&#x152;" horiz-adv-x="1017" d="M366 34 C210 34 100 156 100 323 C100 491 209 613 365 613 C521 613 631 489 631 323 C631 155 522 34 366 34 L366 34 Z M446 647 C421 653 394 656 366 656 C180 656 48 516 48 322 C48 128 177 -9 364 -9 C392 -9 419 -6 444 0 L958 0 C973 0 982 7 982 21 L982 26 C982 39 973 45 958 45 L547 45 C628 101 678 195 682 310 L877 310 C892 310 900 317 900 331 L900 334 C900 347 892 354 877 354 L681 354 C673 462 625 549 548 602 L949 602 C964 602 973 608 973 622 L973 627 C973 640 964 647 949 647 L446 647 Z " />
<glyph glyph-name="oe" unicode="&#x153;" horiz-adv-x="951" d="M277 32 C166 32 85 121 85 237 C85 353 167 441 277 441 C386 441 467 351 467 235 C467 119 386 32 277 32 L277 32 Z M517 271 C531 370 604 441 701 441 C796 441 862 372 866 271 L517 271 Z M514 230 L895 230 C910 230 916 233 916 247 L916 252 C916 389 828 483 701 483 C601 483 522 424 491 334 C458 423 378 483 277 483 C138 483 37 378 37 237 C37 96 137 -10 277 -10 C378 -10 457 49 489 136 C521 46 600 -10 707 -10 C785 -10 843 20 872 49 C893 70 902 90 902 100 C902 123 877 130 874 128 C850 81 803 32 707 32 C595 32 516 114 514 230 L514 230 Z " />
<glyph glyph-name="Scaron" unicode="&#x160;" horiz-adv-x="535" d="M273 -10 C405 -10 492 61 492 168 C492 293 386 328 282 352 C181 375 106 395 106 484 C106 563 174 614 268 614 C363 614 423 565 447 512 C450 510 477 521 477 543 C477 556 467 576 449 595 C416 627 355 657 267 657 C148 657 57 585 57 483 C57 360 157 330 257 306 C355 283 443 259 443 165 C443 84 378 33 272 33 C159 33 96 91 70 149 C67 151 40 141 40 119 C40 105 49 82 72 60 C109 22 177 -10 273 -10 L273 -10 Z M269 703 C267 703 237 727 202 767 C169 805 150 829 150 845 C150 855 156 862 165 862 C178 862 192 849 230 800 C244 780 255 766 270 747 C284 766 294 779 310 801 C343 845 360 862 373 862 C382 862 389 855 389 845 C389 830 371 807 338 769 C300 726 271 703 269 703 L269 703 Z " />
<glyph glyph-name="scaron" unicode="&#x161;" horiz-adv-x="443" d="M222 -10 C336 -10 407 47 407 129 C407 223 314 243 233 260 C147 279 91 293 91 353 C91 405 140 443 222 443 C289 443 343 412 367 371 C369 368 393 377 393 396 C393 406 386 420 375 431 C347 459 296 483 222 483 C116 483 45 427 45 346 C45 253 136 234 213 218 C301 199 360 186 360 122 C360 69 310 30 224 30 C139 30 86 65 57 110 C55 111 31 104 31 84 C31 74 37 62 54 45 C83 16 138 -10 222 -10 L222 -10 Z M216 528 C214 528 184 552 149 592 C116 630 97 654 97 670 C97 680 103 687 112 687 C125 687 139 674 177 625 C191 605 202 591 217 572 C231 591 241 604 257 626 C290 670 307 687 320 687 C329 687 336 680 336 670 C336 655 318 632 285 594 C247 551 218 528 216 528 L216 528 Z " />
<glyph glyph-name="Ydieresis" unicode="&#x178;" horiz-adv-x="538" d="M265 -3 L272 -3 C286 -3 294 4 294 20 L294 277 L529 629 C531 638 498 669 474 632 L269 322 L64 633 C42 667 6 641 8 629 L244 277 L244 20 C244 4 251 -3 265 -3 L265 -3 Z M349 720 C371 720 386 734 386 758 C386 782 371 795 348 795 C325 795 311 782 311 758 C311 734 325 720 349 720 L349 720 Z M190 720 C212 720 227 734 227 758 C227 782 213 795 189 795 C167 795 152 782 152 758 C152 734 167 720 190 720 L190 720 Z " />
<glyph glyph-name="Zcaron" unicode="&#x17d;" horiz-adv-x="585" d="M87 0 L518 0 C533 0 542 7 542 21 L542 25 C542 38 533 45 518 45 L100 45 L499 559 C517 582 528 598 528 613 L528 620 C528 635 517 647 488 647 L74 647 C59 647 51 640 51 626 L51 622 C51 609 59 602 74 602 L473 602 L76 90 C51 60 46 50 46 35 L46 28 C46 12 58 0 87 0 L87 0 Z M286 703 C284 703 254 727 219 767 C186 805 167 829 167 845 C167 855 173 862 182 862 C195 862 209 849 247 800 C261 780 272 766 287 747 C301 766 311 779 327 801 C360 845 377 862 390 862 C399 862 406 855 406 845 C406 830 388 807 355 769 C317 726 288 703 286 703 L286 703 Z " />
<glyph glyph-name="zcaron" unicode="&#x17e;" horiz-adv-x="460" d="M61 0 L401 0 C419 0 426 6 426 18 L426 23 C426 35 419 41 401 41 L97 41 L399 416 C412 433 418 441 418 448 L418 452 C418 464 412 473 394 473 L63 473 C45 473 38 467 38 455 L38 450 C38 438 45 432 63 432 L355 432 L56 61 C42 44 37 37 37 28 L37 21 C37 9 43 0 61 0 L61 0 Z M225 528 C223 528 193 552 158 592 C125 630 106 654 106 670 C106 680 112 687 121 687 C134 687 148 674 186 625 C200 605 211 591 226 572 C240 591 250 604 266 626 C299 670 316 687 329 687 C338 687 345 680 345 670 C345 655 327 632 294 594 C256 551 227 528 225 528 L225 528 Z " />
<glyph glyph-name="florin" unicode="&#x192;" horiz-adv-x="375" d="M75 -3 C92 -3 102 11 106 39 L169 387 L304 387 C322 387 328 394 328 406 L328 411 C328 423 322 430 304 430 L176 430 L187 489 C202 576 233 613 284 613 C316 613 343 598 356 578 C357 577 375 590 375 607 C375 615 371 623 362 632 C348 646 322 657 289 657 C212 657 159 603 140 497 L128 430 L46 430 C28 430 22 423 22 411 L22 406 C22 394 28 387 46 387 L121 387 L52 7 C52 4 61 -3 75 -3 L75 -3 Z " />
<glyph glyph-name="circumflex" unicode="&#x2c6;" horiz-adv-x="500" d="M146 544 C159 544 176 561 209 606 C225 628 235 641 249 660 C264 640 275 626 289 607 C327 558 341 544 354 544 C363 544 369 551 369 561 C369 577 350 602 317 640 C282 680 252 703 250 703 C248 703 219 681 181 638 C148 600 130 577 130 561 C130 551 137 544 146 544 L146 544 Z " />
<glyph glyph-name="caron" unicode="&#x2c7;" horiz-adv-x="500" d="M250 528 C248 528 218 552 183 592 C150 630 131 654 131 670 C131 680 137 687 146 687 C159 687 173 674 211 625 C225 605 236 591 251 572 C265 591 275 604 291 626 C324 670 341 687 354 687 C363 687 370 680 370 670 C370 655 352 632 319 594 C281 551 252 528 250 528 L250 528 Z " />
<glyph glyph-name="breve" unicode="&#x2d8;" horiz-adv-x="500" d="M250 545 C292 545 326 562 349 585 C370 607 380 633 380 646 C380 659 374 673 351 673 C334 622 298 588 250 588 C202 588 166 622 149 673 C126 673 120 659 120 646 C120 633 130 607 151 585 C174 562 208 545 250 545 L250 545 Z " />
<glyph glyph-name="dotaccent" unicode="&#x2d9;" horiz-adv-x="500" d="M250 546 C276 546 292 563 292 586 C292 609 276 625 251 625 C225 625 209 609 209 586 C209 563 224 546 250 546 L250 546 Z " />
<glyph glyph-name="ring" unicode="&#x2da;" horiz-adv-x="500" d="M249 543 C311 543 357 591 357 652 C357 714 313 761 250 761 C188 761 142 714 142 652 C142 590 186 543 249 543 L249 543 Z M249 577 C208 577 178 610 178 652 C178 695 208 728 249 728 C290 728 320 695 320 652 C320 609 290 577 249 577 L249 577 Z " />
<glyph glyph-name="ogonek" unicode="&#x2db;" horiz-adv-x="500" d="M295 -186 L299 -186 C312 -186 324 -178 324 -165 L324 -162 C324 -154 317 -146 305 -131 L212 0 L181 0 L265 -160 C274 -175 277 -186 295 -186 L295 -186 Z " />
<glyph glyph-name="tilde" unicode="&#x2dc;" horiz-adv-x="500" d="M310 543 C357 543 381 583 384 642 C379 646 373 649 367 649 C355 649 350 641 346 626 C340 599 331 584 312 584 C296 584 285 593 265 613 C245 635 222 654 188 654 C142 654 118 615 114 556 C120 552 125 549 132 549 C144 549 149 556 153 572 C159 599 167 614 187 614 C202 614 213 605 233 585 C254 563 277 543 310 543 L310 543 Z " />
<glyph glyph-name="hungarumlaut" unicode="&#x2dd;" horiz-adv-x="500" d="M272 546 C276 542 342 563 414 615 C443 637 452 648 452 661 C452 673 442 681 430 681 C420 681 408 676 385 659 C316 607 269 551 272 546 L272 546 Z M109 546 C113 542 179 563 251 615 C281 637 289 648 289 661 C289 673 279 681 268 681 C257 681 245 676 223 659 C153 607 106 551 109 546 L109 546 Z " />
<glyph glyph-name="pi" unicode="&#x3c0;" horiz-adv-x="749" d="M374 -10 C561 -10 701 133 701 325 C701 519 566 657 375 657 C188 657 48 514 48 322 C48 128 183 -10 374 -10 L374 -10 Z M375 25 C209 25 89 151 89 323 C89 499 206 622 374 622 C540 622 661 496 661 324 C661 148 543 25 375 25 L375 25 Z M289 139 L296 139 C309 139 315 147 315 160 L315 264 L391 264 C476 264 522 304 522 375 C522 445 474 485 389 485 L295 485 C281 485 271 474 271 459 L271 160 C271 146 277 139 289 139 L289 139 Z M314 300 L314 448 L389 448 C448 448 479 421 479 374 C479 328 449 300 392 300 L314 300 Z " />
<glyph glyph-name="endash" unicode="&#x2013;" horiz-adv-x="501" d="M65 227 L436 227 C454 227 459 233 459 246 L459 250 C459 263 454 269 436 269 L65 269 C47 269 42 263 42 250 L42 246 C42 233 47 227 65 227 L65 227 Z " />
<glyph glyph-name="emdash" unicode="&#x2014;" horiz-adv-x="664" d="M65 227 L599 227 C617 227 622 233 622 246 L622 250 C622 263 617 269 599 269 L65 269 C47 269 42 263 42 250 L42 246 C42 233 47 227 65 227 L65 227 Z " />
<glyph glyph-name="quoteleft" unicode="&#x2018;" horiz-adv-x="191" d="M67 439 L70 439 C88 439 93 449 100 466 L158 642 C164 658 137 661 133 653 L56 504 C46 487 44 476 44 468 L44 465 C44 449 54 439 67 439 L67 439 Z " />
<glyph glyph-name="quoteright" unicode="&#x2019;" horiz-adv-x="191" d="M59 443 L136 592 C147 609 148 620 148 628 L148 631 C148 647 138 657 125 657 L122 657 C103 657 100 648 93 630 L34 455 C28 439 54 435 59 443 L59 443 Z " />
<glyph glyph-name="quotesinglbase" unicode="&#x201a;" horiz-adv-x="186" d="M42 -134 L119 14 C130 31 131 42 131 50 L131 53 C131 70 121 79 109 79 L105 79 C87 79 83 70 76 52 L17 -123 C11 -139 38 -143 42 -134 L42 -134 Z " />
<glyph glyph-name="quotedblleft" unicode="&#x201c;" horiz-adv-x="330" d="M205 439 L209 439 C227 439 231 449 238 466 L296 642 C302 658 276 661 271 653 L195 504 C184 487 182 476 182 468 L182 465 C182 449 193 439 205 439 L205 439 Z M67 439 L70 439 C88 439 93 449 100 466 L158 642 C164 658 137 661 133 653 L56 504 C46 487 44 476 44 468 L44 465 C44 449 55 439 67 439 L67 439 Z " />
<glyph glyph-name="quotedblright" unicode="&#x201d;" horiz-adv-x="330" d="M197 443 L274 592 C285 609 286 620 286 628 L286 631 C286 647 276 657 264 657 L260 657 C242 657 238 648 231 630 L172 455 C166 439 193 435 197 443 L197 443 Z M58 443 L135 592 C146 609 147 620 147 628 L147 631 C147 647 137 657 125 657 L121 657 C103 657 99 648 92 630 L33 455 C27 439 54 435 58 443 L58 443 Z " />
<glyph glyph-name="quotedblbase" unicode="&#x201e;" horiz-adv-x="325" d="M181 -134 L258 14 C269 31 270 42 270 50 L270 53 C270 70 260 79 247 79 L244 79 C225 79 221 70 215 52 L156 -123 C150 -139 176 -143 181 -134 L181 -134 Z M41 -134 L119 14 C129 31 130 42 130 50 L130 53 C130 70 120 79 108 79 L104 79 C86 79 82 70 75 52 L17 -123 C11 -139 37 -143 41 -134 L41 -134 Z " />
<glyph glyph-name="dagger" unicode="&#x2020;" horiz-adv-x="497" d="M246 -155 L251 -155 C267 -155 271 -145 271 -131 L275 316 C275 336 270 359 263 380 L437 372 C463 370 472 375 472 396 C472 417 463 423 437 421 L265 412 L275 617 C277 643 272 651 249 651 C226 651 221 643 223 617 L233 412 L60 421 C34 423 26 417 26 396 C26 375 34 370 60 372 L234 380 C228 359 223 336 223 316 L227 -131 C227 -145 230 -155 246 -155 L246 -155 Z " />
<glyph glyph-name="daggerdbl" unicode="&#x2021;" horiz-adv-x="497" d="M246 -155 L251 -155 C267 -155 271 -145 271 -131 L273 106 L437 98 C463 95 472 101 472 122 C472 143 463 148 437 146 L273 138 L275 316 C275 336 270 359 263 380 L437 372 C463 370 472 375 472 396 C472 417 463 423 437 421 L265 412 L275 617 C277 643 272 651 249 651 C226 651 221 643 223 617 L233 412 L60 421 C34 423 26 417 26 396 C26 375 34 370 60 372 L234 380 C228 359 223 336 223 316 L224 138 L60 146 C34 148 26 143 26 122 C26 101 34 95 60 98 L224 106 L227 -131 C227 -145 230 -155 246 -155 L246 -155 Z " />
<glyph glyph-name="bullet" unicode="&#x2022;" horiz-adv-x="300" d="M150 160 C199 160 237 199 237 248 C237 297 199 336 150 336 C101 336 63 297 63 248 C63 199 101 160 150 160 L150 160 Z " />
<glyph glyph-name="ellipsis" unicode="&#x2026;" horiz-adv-x="574" d="M474 -5 L482 -5 C504 -5 516 8 516 30 L516 37 C516 59 504 72 482 72 L474 72 C452 72 440 59 440 37 L440 30 C440 8 452 -5 474 -5 L474 -5 Z M283 -5 L290 -5 C313 -5 325 8 325 30 L325 37 C325 59 313 72 290 72 L283 72 C261 72 249 59 249 37 L249 30 C249 8 261 -5 283 -5 L283 -5 Z M91 -5 L99 -5 C121 -5 134 8 134 30 L134 37 C134 59 121 72 99 72 L91 72 C70 72 57 59 57 37 L57 30 C57 8 70 -5 91 -5 L91 -5 Z " />
<glyph glyph-name="perthousand" unicode="&#x2030;" horiz-adv-x="1041" d="M184 358 C265 358 328 425 328 504 L328 512 C328 591 266 656 185 656 C104 656 41 590 41 510 L41 503 C41 423 103 358 184 358 L184 358 Z M102 -6 L603 595 C619 613 626 626 626 636 C626 654 605 659 602 657 L101 56 C84 37 79 29 79 15 C79 -2 100 -8 102 -6 L102 -6 Z M859 -5 C940 -5 1003 62 1003 141 L1003 149 C1003 228 941 293 860 293 C779 293 716 226 716 147 L716 140 C716 60 778 -5 859 -5 L859 -5 Z M523 -5 C604 -5 667 62 667 141 L667 149 C667 228 605 293 523 293 C443 293 380 226 380 147 L380 140 C380 60 441 -5 523 -5 L523 -5 Z M185 397 C127 397 85 443 85 502 L85 512 C85 572 126 618 184 618 C242 618 285 572 285 512 L285 502 C285 443 243 397 185 397 L185 397 Z M860 34 C802 34 760 80 760 139 L760 149 C760 209 801 255 859 255 C917 255 959 208 959 149 L959 139 C959 80 918 34 860 34 L860 34 Z M524 34 C466 34 423 80 423 139 L423 149 C423 209 465 255 523 255 C581 255 623 208 623 149 L623 139 C623 80 581 34 524 34 L524 34 Z " />
<glyph glyph-name="guilsinglleft" unicode="&#x2039;" horiz-adv-x="302" d="M233 83 C244 83 251 91 251 100 C251 115 226 137 167 183 C140 205 116 222 89 241 C115 260 138 278 165 298 C226 344 251 368 251 383 C251 392 244 400 233 400 C214 400 184 379 132 333 C77 285 44 247 44 242 C44 236 78 197 133 149 C185 105 214 83 233 83 L233 83 Z " />
<glyph glyph-name="guilsinglright" unicode="&#x203a;" horiz-adv-x="302" d="M69 83 C88 83 118 105 170 150 C225 199 258 236 258 242 C258 248 224 286 169 335 C117 379 88 400 69 400 C58 400 51 392 51 383 C51 369 76 346 135 300 C162 279 186 262 213 242 C187 224 164 206 137 185 C76 139 51 115 51 101 C51 91 58 83 69 83 L69 83 Z " />
<glyph glyph-name="fraction" unicode="&#x2044;" horiz-adv-x="619" d="M45 -7 L575 597 C591 614 597 627 597 638 C597 656 577 661 574 659 L44 55 C27 36 22 28 22 13 C22 -3 42 -9 45 -7 L45 -7 Z " />
<glyph glyph-name="Euro" unicode="&#x20ac;" horiz-adv-x="624" d="M387 -10 C459 -10 514 18 548 53 C572 77 585 104 585 123 C585 147 557 154 555 151 C531 87 482 32 385 32 C281 32 209 109 187 226 L417 226 C435 226 441 232 441 245 L441 249 C441 262 435 268 417 268 L181 268 C180 279 180 289 180 300 L180 347 C180 360 180 372 181 384 L417 384 C435 384 441 390 441 403 L441 407 C441 420 435 426 417 426 L187 426 C209 542 280 615 380 615 C476 615 525 562 550 503 C553 501 579 508 579 530 C579 547 569 572 546 595 C514 628 461 657 382 657 C253 657 163 568 139 426 L59 426 C42 426 36 420 36 407 L36 403 C36 390 42 384 59 384 L133 384 C132 371 132 359 132 347 L132 302 C132 290 132 279 133 268 L59 268 C42 268 36 262 36 249 L36 245 C36 232 42 226 59 226 L138 226 C161 78 251 -10 387 -10 L387 -10 Z " />
<glyph glyph-name="trademark" unicode="&#x2122;" horiz-adv-x="653" d="M340 342 L347 342 C358 342 361 348 361 361 L361 596 L443 425 C445 418 447 414 464 414 C481 414 483 418 485 425 L566 597 L566 361 C566 348 571 342 582 342 L587 342 C599 342 603 348 603 361 L603 628 C603 642 596 650 584 650 L567 650 C555 650 550 646 544 633 L464 465 L385 633 C380 644 375 650 362 650 L344 650 C331 650 324 642 324 628 L324 361 C324 348 329 342 340 342 L340 342 Z M142 342 L147 342 C159 342 165 348 165 361 L165 612 L254 612 C266 612 272 617 272 628 L272 631 C272 643 266 648 254 648 L35 648 C24 648 17 643 17 631 L17 628 C17 617 24 612 35 612 L125 612 L125 361 C125 348 131 342 142 342 L142 342 Z " />
<glyph glyph-name="Omega" unicode="&#x2126;" horiz-adv-x="541" d="M261 -197 C398 -197 472 -127 472 9 L472 471 C472 472 464 476 455 476 C438 476 424 467 424 428 L424 156 C395 89 335 45 261 45 C161 45 113 114 113 219 L113 453 C113 471 104 476 92 476 L86 476 C74 476 65 471 65 453 L65 213 C65 86 129 1 254 1 C333 1 392 42 424 99 L424 16 C424 -102 371 -153 261 -153 C169 -153 120 -116 91 -50 C89 -47 64 -59 64 -80 C64 -92 74 -116 96 -138 C127 -170 182 -197 261 -197 L261 -197 Z " />
<glyph glyph-name="partialdiff" unicode="&#x2202;" horiz-adv-x="566" d="M276 -197 C415 -197 497 -123 497 26 C497 19 497 471 497 471 C497 472 489 476 480 476 C464 476 449 467 449 428 L449 384 C423 437 358 483 265 483 C137 483 37 382 37 244 C37 101 130 6 262 6 C352 6 414 46 449 107 L449 26 C449 -94 390 -154 277 -154 C176 -154 121 -106 96 -52 C93 -49 68 -57 68 -82 C68 -94 78 -115 97 -134 C132 -168 191 -197 276 -197 L276 -197 Z M267 47 C158 47 85 126 85 245 C85 358 161 441 268 441 C361 441 420 391 449 314 L449 213 C449 119 367 47 267 47 L267 47 Z " />
<glyph glyph-name="Delta" unicode="&#x2206;" horiz-adv-x="525" d="M87 271 C101 370 175 441 273 441 C370 441 436 372 440 271 L87 271 Z M84 230 L469 230 C484 230 490 233 490 247 L490 252 C490 390 403 483 273 483 C137 483 37 376 37 235 C37 93 134 -10 279 -10 C358 -10 417 20 446 49 C467 70 476 90 476 100 C476 123 451 130 448 128 C424 81 378 32 279 32 C166 32 86 114 84 230 L84 230 Z " />
<glyph glyph-name="product" unicode="&#x220f;" horiz-adv-x="635" d="M289 -10 C393 -10 470 46 507 118 L507 52 C507 6 523 -4 539 -4 C549 -4 556 0 556 2 L556 627 C556 642 549 650 534 650 L527 650 C513 650 506 642 506 627 L506 191 C476 103 391 35 292 35 C171 35 118 95 118 237 L118 627 C118 642 111 650 97 650 L90 650 C76 650 69 642 69 627 L69 234 C69 68 138 -10 289 -10 L289 -10 Z " />
<glyph glyph-name="summation" unicode="&#x2211;" horiz-adv-x="559" d="M386 -3 L392 -3 C407 -3 414 4 414 20 L414 193 L512 193 C527 193 535 201 535 214 L535 217 C535 231 527 238 512 238 L414 238 L414 432 C414 447 407 455 392 455 L386 455 C372 455 365 447 365 432 L365 237 L86 237 L343 634 C344 641 315 674 284 627 L68 294 C47 260 37 247 37 228 L37 221 C37 205 46 193 75 193 L365 193 L365 20 C365 4 372 -3 386 -3 L386 -3 Z " />
<glyph glyph-name="radical" unicode="&#x221a;" horiz-adv-x="713" d="M357 -9 C465 81 666 155 666 317 L666 322 C666 413 605 483 516 483 L514 483 C419 483 372 413 357 348 C341 413 295 483 200 483 L198 483 C108 483 48 413 48 322 L48 317 C48 155 248 81 357 -9 L357 -9 Z " />
<glyph glyph-name="infinity" unicode="&#x221e;" horiz-adv-x="383" d="M52 0 L331 0 C346 0 355 5 355 18 L355 22 C355 36 346 41 331 41 L217 41 L217 606 L331 606 C346 606 355 611 355 624 L355 628 C355 642 346 647 331 647 L52 647 C37 647 29 642 29 628 L29 624 C29 611 37 606 52 606 L167 606 L167 41 L52 41 C37 41 29 36 29 22 L29 18 C29 5 37 0 52 0 L52 0 Z " />
<glyph glyph-name="integral" unicode="&#x222b;" horiz-adv-x="563" d="M278 -3 L285 -3 C299 -3 306 4 306 20 L306 268 C444 277 512 367 512 539 L512 627 C512 643 505 650 491 650 L484 650 C470 650 463 643 463 627 L463 538 C463 383 406 310 282 310 C159 310 101 384 101 537 L101 627 C101 642 94 650 79 650 L73 650 C59 650 51 642 51 627 L51 537 C51 367 120 278 257 268 L257 20 C257 4 264 -3 278 -3 L278 -3 Z " />
<glyph glyph-name="lessequal" unicode="&#x2264;" horiz-adv-x="195" d="M97 601 C120 601 131 612 131 634 C131 656 121 667 99 667 C76 667 65 656 65 634 C65 612 76 601 97 601 L97 601 Z M95 -193 L100 -193 C113 -193 122 -187 122 -170 L122 453 C122 471 113 476 100 476 L95 476 C82 476 74 471 74 453 L74 -170 C74 -187 82 -193 95 -193 L95 -193 Z " />
<glyph glyph-name="fi" unicode="&#xfb01;" horiz-adv-x="507" d="M409 601 C431 601 443 612 443 634 C443 656 432 667 410 667 C388 667 376 656 376 634 C376 612 388 601 409 601 L409 601 Z M133 -3 L138 -3 C151 -3 159 3 159 20 L159 430 L263 430 C281 430 287 437 287 449 L287 454 C287 466 281 473 263 473 L158 473 L158 521 C158 608 187 646 243 646 C274 646 305 632 320 614 C322 613 334 621 334 637 C334 646 330 655 323 662 C307 677 282 688 243 688 C159 688 112 632 112 524 L112 473 L33 473 C15 473 10 466 10 454 L10 449 C10 437 15 430 33 430 L112 430 L112 20 C112 3 120 -3 133 -3 L133 -3 Z M406 -3 L412 -3 C424 -3 433 2 433 20 L433 453 C433 471 424 476 412 476 L406 476 C394 476 385 471 385 453 L385 20 C385 2 394 -3 406 -3 L406 -3 Z " />
<glyph glyph-name="fl" unicode="&#xfb02;" horiz-adv-x="507" d="M133 -3 L138 -3 C151 -3 159 3 159 20 L159 430 L263 430 C281 430 287 437 287 449 L287 454 C287 466 281 473 263 473 L158 473 L158 521 C158 608 187 646 243 646 C274 646 305 632 320 614 C322 613 334 621 334 637 C334 646 330 655 323 662 C307 677 282 688 243 688 C159 688 112 632 112 524 L112 473 L33 473 C15 473 10 466 10 454 L10 449 C10 437 15 430 33 430 L112 430 L112 20 C112 3 120 -3 133 -3 L133 -3 Z M407 -3 L412 -3 C424 -3 433 3 433 20 L433 631 C433 669 418 678 401 678 C392 678 385 674 385 673 L385 20 C385 3 394 -3 407 -3 L407 -3 Z " />
</font>
</svg>
