<?xml version="1.0" encoding="UTF-8"?>
<svg width="139px" height="29px" viewBox="0 0 139 29" version="1.1" xmlns="http://www.w3.org/2000/svg" xmlns:xlink="http://www.w3.org/1999/xlink">
    <!-- Generator: Sketch 47 (45396) - http://www.bohemiancoding.com/sketch -->
    <title>Group 16 Copy 2</title>
    <desc>Created with Sketch.</desc>
    <defs>
        <polygon id="path-1" points="137.841667 29 137.841667 0 120.466667 1.88180268e-14 120.466667 29 137.841667 29"></polygon>
    </defs>
    <g id="Page-1" stroke="none" stroke-width="1" fill="none" fill-rule="evenodd">
        <g id="Group-16-Copy-2">
            <g id="Group-15">
                <path d="M23.3580614,21.0039102 C23.2877058,21.0039102 23.2353901,21.0193732 23.1848784,21.0520173 L23.1560145,21.0846614 L23.1469946,21.1104331 C22.2882954,24.2047515 19.3423799,27.5121156 13.6435757,27.5121156 C10.1131675,27.5121156 7.1005043,26.235559 4.93210842,23.8233308 C2.83948012,21.4918538 1.68492658,18.1879258 1.68492658,14.5231945 C1.68492658,10.8687718 2.84489209,7.55797144 4.94834433,5.20072279 C7.11493622,2.77303158 10.0752837,1.48960246 13.5172964,1.48960246 C18.7434552,1.48960246 21.7921982,4.48942473 22.9070639,7.31056342 L22.9251038,7.33289887 C22.9593796,7.37069732 23.0189113,7.39131465 23.0928749,7.39131465 C23.3779053,7.39131465 23.9425541,7.10095385 23.9425541,6.43432668 C23.9425541,5.85016885 23.3400215,4.43100895 22.2161358,3.28331062 C20.7855718,1.78339949 18.1228827,0 13.5587882,0 C9.68201387,0 6.19670535,1.47413946 3.74508306,4.1492387 C1.32954057,6.78653949 0,10.4839149 0,14.5644292 C0,18.7239765 1.2700089,22.3045204 3.67111947,24.9143314 C6.12815374,27.5877125 9.56295053,29 13.602084,29 C18.7254153,29 21.4891279,26.5877718 22.2125278,25.8472658 C23.6539158,24.3782807 24.325,22.6618876 24.325,21.9643344 C24.325,21.2805261 23.6394838,21.0039102 23.3580614,21.0039102" id="Fill-1" fill="#3C3C3C"></path>
                <path d="M29.4535449,14.8907502 L29.4535449,1.56828114 L36.2476155,1.56828114 C41.6697891,1.56828114 44.5371449,3.87053897 44.5371449,8.22863559 C44.5371449,12.5233673 41.6370816,14.8907502 36.3784455,14.8907502 L29.4535449,14.8907502 Z M46.3015318,28.0636077 L34.9520359,16.4132678 L36.5474341,16.4132678 C39.6273886,16.4132678 42.0386568,15.6880918 43.7176408,14.2553411 C45.3893565,12.829631 46.2361169,10.7878733 46.2361169,8.18463219 C46.2361169,2.83029862 42.7673068,0 36.2058227,0 L28.8611761,0 C28.2052093,0 27.8,0.436513717 27.8,1.1405681 L27.8,28.170976 C27.8,28.8556689 28.1924898,29 28.5177475,29 L28.6903703,29 C29.1537263,29 29.4535449,28.6743748 29.4535449,28.170976 L29.4535449,16.4132678 L32.7370126,16.4132678 L44.3518025,28.3821923 C44.7170361,28.8011046 45.045928,29 45.3857224,29 C45.7691267,29 46.0634941,28.7588614 46.2124948,28.533564 C46.3251539,28.3575504 46.3633126,28.1885773 46.3088002,28.0741685 L46.3015318,28.0636077 Z" id="Fill-4" fill="#3C3C3C"></path>
                <path d="M138.241371,1.57315068 C138.730037,1.57315068 139,1.32420091 139,0.875738204 L139,0.697412481 C139,0.273668189 138.704408,0 138.241371,0 L122.622837,0 C122.006023,0 121.625,0.437869102 121.625,1.14410959 L121.625,27.8594216 C121.625,28.5638965 122.006023,29 122.622837,29 L138.222576,29 C138.694156,29 138.984622,28.7157382 138.984622,28.2584475 L138.984622,28.1242618 C138.984622,27.6757991 138.712951,27.4286149 138.222576,27.4286149 L123.181557,27.4286149 L123.181557,14.8645967 L134.46702,14.8645967 C134.957395,14.8645967 135.225649,14.6174125 135.225649,14.1671842 L135.225649,14.0771385 C135.225649,13.6198478 134.935183,13.335586 134.46702,13.335586 L123.181557,13.335586 L123.181557,1.57315068 L138.241371,1.57315068 Z" id="Fill-6" fill="#3C3C3C"></path>
                <path d="M91.5083333,1.62510416 C91.5083333,0.872400257 91.0316341,0.21959756 90.3415387,0.0439092348 C89.6669318,-0.130056656 88.9596271,0.224764863 88.6446958,0.898236775 L79.5030839,20.5047093 L79.5030839,1.62510416 C79.5030839,0.872400257 79.0212218,0.21959756 78.3397311,0.0439092348 C77.6530777,-0.130056656 76.9509358,0.224764863 76.6377254,0.898236775 L64.630755,26.6503558 C64.5550338,26.8105423 64.5137314,26.9793408 64.4913592,27.1446946 L51.3743851,27.1446946 L51.3743851,14.8895727 L62.7428882,14.8895727 C63.2367969,14.8895727 63.5069838,14.6484318 63.5069838,14.209211 L63.5069838,14.1213669 C63.5069838,13.6752563 63.2161456,13.3979444 62.7428882,13.3979444 L51.3743851,13.3979444 L51.3743851,1.92308534 L66.5444358,1.92308534 C67.0366235,1.92308534 67.3068105,1.68022206 67.3068105,1.24272369 L67.3068105,1.0687578 C67.3068105,0.655373503 67.0073676,0.388396146 66.5444358,0.388396146 L50.8150809,0.388396146 C50.193823,0.388396146 49.8083333,0.815559916 49.8083333,1.50453374 L49.8083333,27.566691 C49.8083333,28.2539424 50.193823,28.6793837 50.8150809,28.6793837 L65.088524,28.6793837 L66.5255056,28.6793837 C66.7802041,28.6793837 66.9798327,28.5967069 67.1123447,28.4554673 C67.1398797,28.422741 67.1639728,28.3865699 67.1880659,28.3538436 C67.2431359,28.2746116 67.2947639,28.1936572 67.3343455,28.1023682 L76.4776784,8.49589561 L76.4776784,27.3755008 C76.4776784,28.1316496 76.9612614,28.7844523 77.6410311,28.9566957 C78.3259636,29.1289392 79.0298265,28.7758401 79.3464787,28.1023682 L88.4846488,8.49589561 L88.4846488,21.1833486 C88.4846488,21.407265 88.828836,21.5019989 88.937255,21.2884171 L91.5083333,15.8231322 L91.5083333,1.62510416 Z" id="Fill-9" fill="#3C3C3C"></path>
                <path d="M115.790197,0.0440313723 C115.091257,-0.129924899 114.365775,0.223154661 114.043732,0.898311674 L104.644313,20.5037001 L104.644313,1.62513887 C104.644313,0.872476585 104.147092,0.219709983 103.446382,0.0440313723 C102.742134,-0.129924899 102.02196,0.223154661 101.696378,0.898311674 L89.3561016,26.6490068 C88.9721269,27.451617 89.2835534,28.426461 90.0515029,28.8260437 C90.274456,28.9414405 90.5115648,29 90.7451347,29 C91.3131342,29 91.863439,28.6693109 92.1359372,28.1009389 L101.531817,8.49555041 L101.531817,27.3741117 C101.531817,28.1302186 102.030807,28.7829852 102.733286,28.9552192 C103.433996,29.1274531 104.157709,28.7743735 104.481522,28.1009389 L113.879171,8.49727275 L113.879171,27.3741117 C113.879171,28.2714505 114.574572,28.9982777 115.434534,28.9982777 C116.294496,28.9982777 116.991667,28.2714505 116.991667,27.3741117 L116.991667,1.62513887 C116.991667,0.872476585 116.494446,0.219709983 115.790197,0.0440313723" id="Fill-11" fill="#3C3C3C"></path>
                <path d="M23.3580614,21.0039102 C23.2877058,21.0039102 23.2353901,21.0193732 23.1848784,21.0520173 L23.1560145,21.0846614 L23.1469946,21.1104331 C22.2882954,24.2047515 19.3423799,27.5121156 13.6435757,27.5121156 C10.1131675,27.5121156 7.1005043,26.235559 4.93210842,23.8233308 C2.83948012,21.4918538 1.68492658,18.1879258 1.68492658,14.5231945 C1.68492658,10.8687718 2.84489209,7.55797144 4.94834433,5.20072279 C7.11493622,2.77303158 10.0752837,1.48960246 13.5172964,1.48960246 C18.7434552,1.48960246 21.7921982,4.48942473 22.9070639,7.31056342 L22.9251038,7.33289887 C22.9593796,7.37069732 23.0189113,7.39131465 23.0928749,7.39131465 C23.3779053,7.39131465 23.9425541,7.10095385 23.9425541,6.43432668 C23.9425541,5.85016885 23.3400215,4.43100895 22.2161358,3.28331062 C20.7855718,1.78339949 18.1228827,0 13.5587882,0 C9.68201387,0 6.19670535,1.47413946 3.74508306,4.1492387 C1.32954057,6.78653949 0,10.4839149 0,14.5644292 C0,18.7239765 1.2700089,22.3045204 3.67111947,24.9143314 C6.12815374,27.5877125 9.56295053,29 13.602084,29 C18.7254153,29 21.4891279,26.5877718 22.2125278,25.8472658 C23.6539158,24.3782807 24.325,22.6618876 24.325,21.9643344 C24.325,21.2805261 23.6394838,21.0039102 23.3580614,21.0039102" id="Fill-1" fill="#3C3C3C"></path>
                <path d="M29.4535449,14.8907502 L29.4535449,1.56828114 L36.2476155,1.56828114 C41.6697891,1.56828114 44.5371449,3.87053897 44.5371449,8.22863559 C44.5371449,12.5233673 41.6370816,14.8907502 36.3784455,14.8907502 L29.4535449,14.8907502 Z M46.3015318,28.0636077 L34.9520359,16.4132678 L36.5474341,16.4132678 C39.6273886,16.4132678 42.0386568,15.6880918 43.7176408,14.2553411 C45.3893565,12.829631 46.2361169,10.7878733 46.2361169,8.18463219 C46.2361169,2.83029862 42.7673068,0 36.2058227,0 L28.8611761,0 C28.2052093,0 27.8,0.436513717 27.8,1.1405681 L27.8,28.170976 C27.8,28.8556689 28.1924898,29 28.5177475,29 L28.6903703,29 C29.1537263,29 29.4535449,28.6743748 29.4535449,28.170976 L29.4535449,16.4132678 L32.7370126,16.4132678 L44.3518025,28.3821923 C44.7170361,28.8011046 45.045928,29 45.3857224,29 C45.7691267,29 46.0634941,28.7588614 46.2124948,28.533564 C46.3251539,28.3575504 46.3633126,28.1885773 46.3088002,28.0741685 L46.3015318,28.0636077 Z" id="Fill-4" fill="#3C3C3C"></path>
                <mask id="mask-2" fill="white">
                    <use xlink:href="#path-1"></use>
                </mask>
                <g id="Clip-7"></g>
                <path d="M137.083037,1.57315068 C137.571704,1.57315068 137.841667,1.32420091 137.841667,0.875738204 L137.841667,0.697412481 C137.841667,0.273668189 137.546075,0 137.083037,0 L121.464503,0 C120.84769,0 120.466667,0.437869102 120.466667,1.14410959 L120.466667,27.8594216 C120.466667,28.5638965 120.84769,29 121.464503,29 L137.064243,29 C137.535823,29 137.826289,28.7157382 137.826289,28.2584475 L137.826289,28.1242618 C137.826289,27.6757991 137.554618,27.4286149 137.064243,27.4286149 L122.023223,27.4286149 L122.023223,14.8645967 L133.308687,14.8645967 C133.799062,14.8645967 134.067316,14.6174125 134.067316,14.1671842 L134.067316,14.0771385 C134.067316,13.6198478 133.77685,13.335586 133.308687,13.335586 L122.023223,13.335586 L122.023223,1.57315068 L137.083037,1.57315068 Z" id="Fill-6" fill="#3C3C3C" mask="url(#mask-2)"></path>
                <path d="M91.5083333,1.62510416 C91.5083333,0.872400257 91.0316341,0.21959756 90.3415387,0.0439092348 C89.6669318,-0.130056656 88.9596271,0.224764863 88.6446958,0.898236775 L79.5030839,20.5047093 L79.5030839,1.62510416 C79.5030839,0.872400257 79.0212218,0.21959756 78.3397311,0.0439092348 C77.6530777,-0.130056656 76.9509358,0.224764863 76.6377254,0.898236775 L64.630755,26.6503558 C64.5550338,26.8105423 64.5137314,26.9793408 64.4913592,27.1446946 L51.3743851,27.1446946 L51.3743851,14.8895727 L62.7428882,14.8895727 C63.2367969,14.8895727 63.5069838,14.6484318 63.5069838,14.209211 L63.5069838,14.1213669 C63.5069838,13.6752563 63.2161456,13.3979444 62.7428882,13.3979444 L51.3743851,13.3979444 L51.3743851,1.92308534 L66.5444358,1.92308534 C67.0366235,1.92308534 67.3068105,1.68022206 67.3068105,1.24272369 L67.3068105,1.0687578 C67.3068105,0.655373503 67.0073676,0.388396146 66.5444358,0.388396146 L50.8150809,0.388396146 C50.193823,0.388396146 49.8083333,0.815559916 49.8083333,1.50453374 L49.8083333,27.566691 C49.8083333,28.2539424 50.193823,28.6793837 50.8150809,28.6793837 L65.088524,28.6793837 L66.5255056,28.6793837 C66.7802041,28.6793837 66.9798327,28.5967069 67.1123447,28.4554673 C67.1398797,28.422741 67.1639728,28.3865699 67.1880659,28.3538436 C67.2431359,28.2746116 67.2947639,28.1936572 67.3343455,28.1023682 L76.4776784,8.49589561 L76.4776784,27.3755008 C76.4776784,28.1316496 76.9612614,28.7844523 77.6410311,28.9566957 C78.3259636,29.1289392 79.0298265,28.7758401 79.3464787,28.1023682 L88.4846488,8.49589561 L88.4846488,21.1833486 C88.4846488,21.407265 88.828836,21.5019989 88.937255,21.2884171 L91.5083333,15.8231322 L91.5083333,1.62510416 Z" id="Fill-9" fill="#3C3C3C" mask="url(#mask-2)"></path>
                <path d="M115.790197,0.0440313723 C115.091257,-0.129924899 114.365775,0.223154661 114.043732,0.898311674 L104.644313,20.5037001 L104.644313,1.62513887 C104.644313,0.872476585 104.147092,0.219709983 103.446382,0.0440313723 C102.742134,-0.129924899 102.02196,0.223154661 101.696378,0.898311674 L89.3561016,26.6490068 C88.9721269,27.451617 89.2835534,28.426461 90.0515029,28.8260437 C90.274456,28.9414405 90.5115648,29 90.7451347,29 C91.3131342,29 91.863439,28.6693109 92.1359372,28.1009389 L101.531817,8.49555041 L101.531817,27.3741117 C101.531817,28.1302186 102.030807,28.7829852 102.733286,28.9552192 C103.433996,29.1274531 104.157709,28.7743735 104.481522,28.1009389 L113.879171,8.49727275 L113.879171,27.3741117 C113.879171,28.2714505 114.574572,28.9982777 115.434534,28.9982777 C116.294496,28.9982777 116.991667,28.2714505 116.991667,27.3741117 L116.991667,1.62513887 C116.991667,0.872476585 116.494446,0.219709983 115.790197,0.0440313723" id="Fill-11" fill="#3C3C3C" mask="url(#mask-2)"></path>
            </g>
        </g>
    </g>
</svg>