<?xml version="1.0" encoding="UTF-8"?>
<svg width="25px" height="25px" viewBox="0 0 25 25" version="1.1" xmlns="http://www.w3.org/2000/svg" xmlns:xlink="http://www.w3.org/1999/xlink">
    <!-- Generator: Sketch 51.2 (57519) - http://www.bohemiancoding.com/sketch -->
    <title>+</title>
    <desc>Created with Sketch.</desc>
    <defs></defs>
    <g id="Page-1" stroke="none" stroke-width="1" fill="none" fill-rule="evenodd">
        <path d="M10.9900448,14.1119338 L10.9900448,23.1654118 C10.9900448,24.4141674 11.5623911,24.7783879 12.4469263,24.7783879 L12.7070837,24.7783879 C13.5916189,24.7783879 14.1639652,24.4141674 14.1639652,23.1654118 L14.1639652,14.1119338 L22.5410341,14.1119338 C23.7897897,14.1119338 24.15401,13.6436504 24.15401,12.7591152 L24.15401,12.4469263 C24.15401,11.5623911 23.7897897,11.0941077 22.5410341,11.0941077 L14.1639652,11.0941077 L14.1639652,2.61297598 C14.1639652,1.36422038 13.5916189,1 12.7070837,1 L12.4469263,1 C11.5623911,1 10.9900448,1.36422038 10.9900448,2.61297598 L10.9900448,11.0941077 L2.61297598,11.0941077 C1.36422038,11.0941077 1,11.5623911 1,12.4469263 L1,12.7591152 C1,13.6436504 1.36422038,14.1119338 2.61297598,14.1119338" id="+" fill="#3C3C3C" fill-rule="nonzero" transform="translate(12.577005, 12.889194) rotate(-45.000000) translate(-12.577005, -12.889194) "></path>
    </g>
</svg>