<svg id="Calque_1" data-name="Calque 1" xmlns="http://www.w3.org/2000/svg" viewBox="0 0 206 206"><defs><style>.cls-1{fill:#1f1b1e;}.cls-2{fill:none;stroke:#1f1b1e;stroke-miterlimit:10;}</style></defs><title>logo cremme rond</title><path class="cls-1" d="M56.69,121.58a.34.34,0,0,0-.2.06l0,0v0c-1,3.78-4.44,7.83-11.07,7.83A12.94,12.94,0,0,1,35.23,125a19,19,0,0,1,0-22.77,12.69,12.69,0,0,1,10-4.54,11.21,11.21,0,0,1,10.93,7.12l0,0a.26.26,0,0,0,.2.07,1.13,1.13,0,0,0,1-1.17,7.33,7.33,0,0,0-2-3.86c-1.67-1.83-4.77-4-10.08-4A14.9,14.9,0,0,0,33.85,101a19.29,19.29,0,0,0-4.36,12.74c0,5.08,1.48,9.46,4.27,12.65a14.88,14.88,0,0,0,11.57,5c6,0,9.18-3,10-3.86a8.77,8.77,0,0,0,2.45-4.75A1.21,1.21,0,0,0,56.69,121.58Z" transform="translate(-10.63 -10.63)"/><path class="cls-1" d="M84.17,129.87,71.05,116h1.84c3.56,0,6.35-.86,8.29-2.57a9.18,9.18,0,0,0,2.91-7.24c0-6.39-4-9.77-11.6-9.77H64a1.2,1.2,0,0,0-1.22,1.36V130c0,.81.45,1,.83,1h.2a.88.88,0,0,0,.88-1V116h3.79l13.43,14.29a1.66,1.66,0,0,0,1.2.74,1.16,1.16,0,0,0,1-.56.6.6,0,0,0,.11-.55ZM64.69,114.15V98.25h7.85c6.27,0,9.59,2.75,9.59,8s-3.35,8-9.44,8Z" transform="translate(-10.63 -10.63)"/><path class="cls-1" d="M196.84,98.25c.6,0,.93-.3.93-.83v-.21a.82.82,0,0,0-.93-.83h-19.2a1.2,1.2,0,0,0-1.23,1.36v31.78a1.2,1.2,0,0,0,1.23,1.36h19.18a.84.84,0,0,0,.93-.88v-.16c0-.53-.33-.83-.93-.83h-18.5V114.06H192.2c.6,0,.93-.29.93-.83v-.1a.85.85,0,0,0-.93-.89H178.32v-14Z" transform="translate(-10.63 -10.63)"/><path class="cls-1" d="M140.07,97.88A2,2,0,0,0,138.65,96a1.8,1.8,0,0,0-2.07,1l-11.16,23.91v-23A2,2,0,0,0,124,96a1.81,1.81,0,0,0-2.08,1l-14.66,31.41a2.06,2.06,0,0,0-.17.6h-16V114.06H105c.6,0,.93-.29.93-.83v-.1a.85.85,0,0,0-.93-.89H91.08v-14H109.6c.6,0,.93-.3.93-.83v-.21a.83.83,0,0,0-.93-.83H90.4a1.2,1.2,0,0,0-1.23,1.36v31.78a1.2,1.2,0,0,0,1.23,1.36h19.18a.94.94,0,0,0,.71-.27l.09-.13a1.49,1.49,0,0,0,.18-.3l11.16-23.91v23a2,2,0,0,0,1.43,1.93,1.8,1.8,0,0,0,2.07-1l11.16-23.91v15.47a.3.3,0,0,0,.55.13l3.14-6.67Z" transform="translate(-10.63 -10.63)"/><path class="cls-1" d="M169.9,96a1.8,1.8,0,0,0-2.07,1l-11.16,23.91v-23A2,2,0,0,0,155.25,96a1.81,1.81,0,0,0-2.08,1l-14.65,31.41a2,2,0,0,0,.83,2.65,1.72,1.72,0,0,0,.82.21,1.84,1.84,0,0,0,1.65-1.09L153,106.27v23a2,2,0,0,0,1.42,1.93,1.82,1.82,0,0,0,2.08-1l11.15-23.91v23a1.85,1.85,0,1,0,3.7,0V97.88A2,2,0,0,0,169.9,96Z" transform="translate(-10.63 -10.63)"/><circle class="cls-2" cx="103" cy="103" r="102.5"/></svg>