<svg xmlns="http://www.w3.org/2000/svg" data-name="Layer 1" viewBox="0 0 100 125" x="0px" y="0px"><title>Artboard 509</title><path d="M50,6A43.91,43.91,0,0,0,18,19.89V10a4,4,0,0,0-8,0V30a4,4,0,0,0,4,4H34a4,4,0,0,0,0-8H23.22A36,36,0,0,1,86,50v4a4,4,0,0,0,8,0V50A44.05,44.05,0,0,0,50,6Z"/><path d="M86,66H66a4,4,0,0,0,0,8H76.78A36,36,0,0,1,14,50V46a4,4,0,0,0-8,0v4A43.94,43.94,0,0,0,82,80.11V90a4,4,0,0,0,8,0V70A4,4,0,0,0,86,66Z"/><text x="0" y="115" fill="#000000" font-size="5px" font-weight="bold" font-family="'Helvetica Neue', Helvetica, Arial-Unicode, Arial, Sans-serif">Created by Gregor Cresnar</text><text x="0" y="120" fill="#000000" font-size="5px" font-weight="bold" font-family="'Helvetica Neue', Helvetica, Arial-Unicode, Arial, Sans-serif">from the Noun Project</text></svg>